<svg xmlns="http://www.w3.org/2000/svg" width="49152" height="49152" viewBox="0 0 36864 36864">
  <path d="M13503.6 3889.8c-19.8 32.4-37.8 36-138.6 30.6-104.4-3.6-120.6 0-145.8 37.8-25.2 36-41.4 39.6-100.8 32.4s-77.4-1.8-113.4 36c-34.2 39.6-52.2 45-108 36-54-9-72-3.6-102.6 34.2-23.4 25.2-59.4 43.2-84.6 43.2-27 0-55.8 14.4-70.2 36-16.2 27-41.4 36-108 36s-90 7.2-108 37.8c-19.8 32.4-36 37.8-97.2 28.8-59.4-7.2-77.4-1.8-109.8 34.2-21.6 25.2-57.6 43.2-82.8 43.2-28.8 0-55.8 16.2-70.2 37.8-19.8 32.4-36 37.8-97.2 28.8-59.4-7.2-77.4-1.8-109.8 34.2-21.6 25.2-57.6 43.2-82.8 43.2-27 0-55.8 14.4-70.2 36-12.6 21.6-41.4 36-72 36s-57.6 14.4-72 37.8c-19.8 32.4-36 37.8-95.4 28.8-61.2-7.2-79.2-1.8-115.2 36-25.2 28.8-52.2 43.2-70.2 36-19.8-7.2-43.2 5.4-68.4 32.4-23.4 27-57.6 45-84.6 45s-55.8 14.4-70.2 36c-16.2 27-41.4 36-108 36s-90 7.2-108 37.8c-19.8 32.4-36 37.8-97.2 28.8-59.4-7.2-77.4-1.8-109.8 34.2-21.6 25.2-57.6 43.2-82.8 43.2-27 0-55.8 14.4-70.2 36-12.6 21.6-41.4 36-72 36s-57.6 14.4-72 37.8c-19.8 32.4-36 37.8-95.4 28.8-61.2-7.2-79.2-1.8-115.2 36-25.2 28.8-52.2 43.2-70.2 36s-45 7.2-72 36-54 43.2-72 36-45 7.2-72 36-54 43.2-72 36-45 7.2-72 36-54 43.2-72 36-45 7.2-72 36-54 43.2-72 36-55.8 18-108 72-90 79.2-108 72-55.8 16.2-104.4 68.4c-46.8 48.6-93.6 81-118.8 81-23.4 0-66.6 28.8-106.2 73.8-45 48.6-75.6 70.2-99 64.8-23.4-7.2-66.6 25.2-145.8 106.2-75.6 79.2-122.4 115.2-144 108-21.6-5.4-75.6 39.6-178.2 144-95.4 99-160.2 151.2-181.8 147.6-45-7.2-1738.8 1686.6-1728 1728 5.4 19.8-55.8 91.8-181.8 216-129.6 126-185.4 192.6-178.2 212.4 7.2 18-18 55.8-72 106.2-55.8 54-79.2 91.8-72 113.4 5.4 21.6-16.2 54-64.8 99-45 39.6-73.8 82.8-73.8 106.2 0 25.2-32.4 72-79.2 117-57.6 54-77.4 86.4-70.2 111.6 5.4 23.4-3.6 43.2-28.8 59.4-21.6 12.6-37.8 41.4-37.8 68.4 0 30.6-27 70.2-79.2 120.6-57.6 54-77.4 86.4-70.2 111.6 5.4 23.4-3.6 43.2-28.8 59.4-23.4 14.4-37.8 41.4-37.8 72s-14.4 59.4-36 72c-21.6 14.4-36 43.2-36 72 0 30.6-14.4 59.4-36 72-21.6 14.4-36 43.2-36 72 0 30.6-14.4 59.4-36 72-21.6 14.4-36 43.2-36 72 0 27-14.4 59.4-34.2 72-19.8 14.4-37.8 57.6-45 108-7.2 46.8-25.2 97.2-39.6 111.6s-25.2 46.8-25.2 72c0 27-14.4 55.8-36 68.4-27 18-36 43.2-36 108 0 66.6-9 91.8-36 108-21.6 14.4-36 43.2-36 70.2 0 25.2-18 61.2-43.2 82.8-36 32.4-41.4 50.4-34.2 109.8 9 61.2 3.6 77.4-28.8 97.2-23.4 14.4-37.8 41.4-37.8 72s-14.4 59.4-36 72c-21.6 14.4-36 43.2-36 72 0 30.6-14.4 59.4-36 72-27 18-36 43.2-36 108 0 66.6-9 91.8-36 108-21.6 14.4-36 43.2-36 72 0 30.6-14.4 59.4-36 72-27 18-36 43.2-36 108 0 66.6-9 91.8-36 108-21.6 14.4-36 43.2-36 72 0 30.6-14.4 59.4-36 72-27 18-36 43.2-36 108 0 66.6-9 91.8-36 108-21.6 14.4-36 43.2-36 70.2 0 25.2-18 61.2-43.2 82.8-36 32.4-41.4 50.4-34.2 109.8 9 61.2 3.6 77.4-28.8 97.2-30.6 18-37.8 41.4-37.8 108s-9 91.8-36 108c-27 18-36 43.2-36 108 0 66.6-9 91.8-36 108-27 18-36 43.2-36 108 0 66.6-9 91.8-36 108-34.2 21.6-36 43.2-36 617.4s1.8 595.8 36 617.4c27 16.2 36 41.4 36 108 0 64.8 9 90 36 108 21.6 12.6 36 41.4 36 72s14.4 57.6 37.8 72c25.2 16.2 34.2 36 28.8 59.4-7.2 25.2 12.6 57.6 70.2 111.6 52.2 50.4 79.2 90 79.2 120.6 0 27 16.2 55.8 37.8 68.4 21.6 14.4 34.2 37.8 30.6 59.4-7.2 48.6 748.8 811.8 790.2 795.6 16.2-5.4 45 9 70.2 36 27 28.8 54 43.2 72 36s45 7.2 72 36 54 43.2 72 36 55.8 18 108 72c50.4 52.2 90 79.2 108 72 36-14.4 376.2 325.8 361.8 363.6-7.2 18 28.8 64.8 106.2 138.6 81 77.4 115.2 124.2 108 145.8-5.4 21.6 28.8 66.6 108 144 79.2 75.6 115.2 122.4 108 144-5.4 21.6 68.4 106.2 252 288 183.6 180 259.2 264.6 252 286.2-5.4 23.4 50.4 90 180 217.8C7169.4 18342 7254 18441 7254 18459s-68.4 100.8-151.2 183.6c-104.4 102.6-149.4 158.4-144 180 7.2 23.4-68.4 108-252 288-183.6 181.8-257.4 266.4-252 288 5.4 23.4-37.8 79.2-144 180-106.2 104.4-149.4 158.4-144 180 7.2 21.6-27 68.4-108 145.8-77.4 73.8-113.4 122.4-106.2 138.6 14.4 37.8-469.8 522-507.6 505.8-16.2-5.4-45 9-70.2 37.8-27 28.8-54 43.2-72 36s-55.8 18-108 72-90 79.2-108 72c-19.8-7.2-64.8 27-140.4 106.2-75.6 77.4-124.2 115.2-144 108-45-10.8-446.4 392.4-433.8 435.6 5.4 21.6-16.2 55.8-64.8 99-45 41.4-73.8 82.8-73.8 108s-28.8 68.4-75.6 109.8c-46.8 43.2-75.6 86.4-77.4 117-1.8 25.2-5.4 61.2-5.4 77.4-1.8 16.2-36 64.8-73.8 104.4-63 66.6-68.4 81-61.2 144 7.2 57.6 3.6 73.8-28.8 93.6-37.8 23.4-37.8 30.6-37.8 617.4 0 574.2 1.8 595.8 36 617.4 27 16.2 36 41.4 36 108 0 64.8 9 90 36 108 27 16.2 36 41.4 36 108 0 64.8 9 90 36 108 27 16.2 36 41.4 36 108 0 64.8 9 90 36 108 21.6 12.6 36 41.4 36 68.4 0 25.2 10.8 57.6 25.2 72s32.4 64.8 39.6 111.6c7.2 50.4 25.2 93.6 45 108 19.8 12.6 34.2 43.2 34.2 68.4s10.8 57.6 25.2 72 32.4 64.8 39.6 111.6c7.2 50.4 25.2 93.6 45 108 19.8 12.6 34.2 43.2 34.2 68.4s10.8 57.6 25.2 72 32.4 64.8 39.6 111.6c7.2 50.4 25.2 93.6 45 108 19.8 12.6 34.2 45 34.2 72 0 28.8 14.4 57.6 36 72 21.6 12.6 36 41.4 36 68.4 0 25.2 10.8 57.6 25.2 72s32.4 64.8 39.6 111.6c7.2 50.4 25.2 93.6 45 108 25.2 18 34.2 46.8 34.2 108 0 64.8 9 90 36 108 21.6 12.6 36 41.4 36 72 0 28.8 14.4 57.6 36 72 27 16.2 36 41.4 36 108 0 64.8 9 90 36 108 21.6 12.6 36 41.4 36 72 0 28.8 14.4 57.6 36 72 21.6 12.6 36 41.4 36 72 0 28.8 14.4 57.6 36 72 27 16.2 36 41.4 36 108 0 64.8 9 90 36 108 21.6 12.6 36 41.4 36 72 0 28.8 14.4 57.6 36 72 21.6 12.6 36 41.4 36 72 0 28.8 14.4 57.6 36 72 21.6 12.6 36 41.4 36 72s14.4 57.6 37.8 72c25.2 16.2 34.2 36 28.8 59.4-7.2 25.2 12.6 57.6 70.2 111.6 52.2 50.4 79.2 90 79.2 120.6 0 25.2 16.2 55.8 36 68.4s36 41.4 36 66.6c0 30.6 25.2 68.4 73.8 111.6 48.6 45 70.2 77.4 64.8 99-7.2 21.6 16.2 59.4 72 113.4 54 50.4 79.2 88.2 72 106.2s18 55.8 72 108 79.2 90 72 108c-7.2 19.8 27 64.8 106.2 140.4 79.2 77.4 115.2 124.2 108 145.8-5.4 21.6 77.4 115.2 288 324 208.8 203.4 295.2 300.6 288 322.2-10.8 45 822.6 878.4 867.6 867.6 21.6-5.4 129.6 91.8 360 324 225 228.6 336.6 329.4 356.4 322.2 18-7.2 66.6 30.6 144 108 75.6 77.4 126 115.2 144 108s68.4 30.6 145.8 109.8c81 82.8 127.8 117 147.6 109.8 19.8-5.4 46.8 7.2 70.2 36 23.4 27 50.4 39.6 66.6 32.4 19.8-7.2 55.8 18 109.8 72 52.2 54 90 79.2 108 72s45 7.2 72 36 54 43.2 72 36 55.8 19.8 109.8 73.8c54 55.8 91.8 81 111.6 73.8 19.8-5.4 46.8 7.2 70.2 36 34.2 37.8 50.4 43.2 108 34.2 55.8-9 72-3.6 106.2 36 25.2 28.8 50.4 41.4 70.2 34.2 18-7.2 45 7.2 72 36s54 43.2 72 36 45 7.2 72 36 54 43.2 72 36 45 7.2 73.8 37.8c27 30.6 55.8 45 75.6 37.8 19.8-5.4 45 7.2 70.2 36 34.2 37.8 50.4 43.2 108 34.2 55.8-9 72-3.6 108 36 34.2 39.6 50.4 45 108 36 55.8-9 72-3.6 106.2 36 25.2 28.8 50.4 41.4 70.2 34.2 18-7.2 45 7.2 72 37.8 37.8 39.6 55.8 45 111.6 36s72-3.6 106.2 36c25.2 28.8 50.4 41.4 70.2 34.2 18-7.2 45 7.2 72 36s54 43.2 72 36 45 7.2 72 37.8c37.8 39.6 55.8 45 111.6 36s72-3.6 106.2 36c25.2 28.8 50.4 41.4 70.2 34.2 18-7.2 45 7.2 72 37.8 37.8 39.6 55.8 45 111.6 36s72-3.6 106.2 36c25.2 28.8 50.4 41.4 70.2 34.2 18-7.2 45 7.2 72 37.8 37.8 39.6 55.8 45 111.6 36s72-3.6 106.2 36c25.2 28.8 50.4 41.4 70.2 34.2 18-7.2 45 7.2 72 37.8 37.8 39.6 55.8 45 111.6 36s72-3.6 108 36c34.2 39.6 50.4 45 108 36 55.8-9 72-3.6 106.2 34.2 34.2 41.4 46.8 45 145.8 36 95.4-9 109.8-5.4 135 30.6 28.8 41.4 32.4 41.4 471.6 41.4s442.8 0 471.6-41.4c23.4-34.2 39.6-37.8 99-30.6s77.4 1.8 109.8-36c34.2-37.8 50.4-43.2 106.2-34.2s73.8 3.6 111.6-36c27-30.6 54-45 72-37.8s55.8-18 108-72c50.4-50.4 90-77.4 108-72 39.6 16.2 729-680.4 718.2-725.4-5.4-21.6 5.4-41.4 28.8-57.6 21.6-12.6 37.8-41.4 37.8-68.4 0-30.6 27-70.2 79.2-120.6 57.6-54 77.4-86.4 70.2-111.6-5.4-23.4 3.6-43.2 28.8-59.4 23.4-14.4 37.8-41.4 37.8-70.2 0-32.4 23.4-68.4 72-113.4 45-41.4 72-81 72-108 0-50.4 43.2-91.8 81-77.4 16.2 7.2 55.8-19.8 106.2-72 52.2-54 90-79.2 108-72s55.8-16.2 104.4-68.4c50.4-52.2 88.2-77.4 106.2-72q29.7 10.8 183.6-145.8c102.6-102.6 163.8-153 181.8-145.8 19.8 7.2 131.4-95.4 356.4-322.2 232.2-234 338.4-329.4 360-324s90-50.4 216-178.2l185.4-183.6h216l257.4 257.4c174.6 174.6 266.4 253.8 284.4 246.6 19.8-7.2 111.6 73.8 288 252s270 259.2 288 252 66.6 30.6 144 108c75.6 77.4 126 115.2 144 108s66.6 30.6 144 108c75.6 77.4 126 115.2 144 108 36-14.4 302.4 253.8 289.8 291.6-7.2 16.2 18 54 68.4 102.6 48.6 46.8 81 93.6 81 118.8 0 23.4 28.8 64.8 72 104.4 45 41.4 72 81 72 108s27 66.6 72 109.8c45 39.6 72 77.4 68.4 99-7.2 45 678.6 736.2 718.2 721.8 16.2-5.4 55.8 21.6 106.2 72 52.2 54 90 79.2 108 72s45 7.2 72 37.8c37.8 39.6 55.8 45 111.6 36s72-3.6 106.2 34.2c32.4 37.8 50.4 43.2 109.8 36s75.6-3.6 99 30.6c28.8 41.4 32.4 41.4 471.6 41.4s442.8 0 471.6-41.4c25.2-36 39.6-39.6 135-30.6 99 9 111.6 5.4 145.8-36 34.2-37.8 50.4-43.2 106.2-34.2 57.6 9 73.8 3.6 108-36 36-39.6 52.2-45 108-36s73.8 3.6 111.6-36c27-30.6 54-45 72-37.8 19.8 7.2 45-5.4 70.2-34.2 34.2-39.6 50.4-45 106.2-36s73.8 3.6 111.6-36c27-30.6 54-45 72-37.8 19.8 7.2 45-5.4 70.2-34.2 34.2-39.6 50.4-45 106.2-36s73.8 3.6 111.6-36c27-30.6 54-45 72-37.8s45-7.2 72-36 54-43.2 72-36c19.8 7.2 45-5.4 70.2-34.2 34.2-39.6 50.4-45 106.2-36s73.8 3.6 111.6-36c27-30.6 54-45 72-37.8 19.8 7.2 45-5.4 70.2-34.2 34.2-39.6 50.4-45 106.2-36 57.6 9 73.8 3.6 108-34.2 25.2-28.8 50.4-41.4 70.2-36 21.6 7.2 46.8-5.4 73.8-36 36-41.4 52.2-46.8 108-37.8s73.8 3.6 111.6-36c27-30.6 54-45 72-37.8 19.8 7.2 45-5.4 70.2-34.2 34.2-39.6 50.4-45 106.2-36s73.8 3.6 111.6-36c27-30.6 54-45 72-37.8s45-7.2 72-36 54-43.2 72-36 45-7.2 72-36 54-43.2 72-36 45-7.2 72-36 54-43.2 72-36 45-7.2 72-36 54-43.2 72-36 45-7.2 72-36 54-43.2 72-36 45-7.2 72-36 54-43.2 72-36 45-7.2 72-36 54-43.2 72-36 55.8-18 108-72c52.2-52.2 90-79.2 108-72s55.8-18 108-72c52.2-52.2 90-79.2 108-72s55.8-18 108-72 90-79.2 108-72c19.8 7.2 75.6-37.8 176.4-142.2 95.4-95.4 162-149.4 181.8-147.6 46.8 7.2 2026.8-1974.6 2016-2017.8-5.4-19.8 18-55.8 64.8-97.2 45-41.4 73.8-82.8 73.8-108 0-27 48.6-88.2 153-189 102.6-100.8 147.6-156.6 140.4-176.4-7.2-18 18-55.8 72-106.2 57.6-57.6 79.2-90 72-115.2-5.4-23.4 3.6-43.2 28.8-59.4 23.4-14.4 37.8-41.4 37.8-70.2 0-27 18-61.2 45-84.6 25.2-21.6 45-55.8 45-77.4s28.8-66.6 63-100.8c36-36 63-81 63-106.2 0-23.4 16.2-52.2 36-64.8 21.6-14.4 36-43.2 36-72 0-30.6 14.4-59.4 36-72 21.6-14.4 36-43.2 36-72 0-30.6 14.4-59.4 36-72 21.6-14.4 36-43.2 36-72 0-30.6 14.4-59.4 36-72 21.6-14.4 36-43.2 36-72 0-30.6 14.4-59.4 36-72 21.6-14.4 36-43.2 36-72 0-30.6 14.4-59.4 36-72 21.6-14.4 36-43.2 36-70.2 0-61.2 34.2-160.2 55.8-160.2 9 0 16.2-27 16.2-59.4s16.2-90 36-129.6 36-84.6 36-102.6 16.2-41.4 36-54c21.6-14.4 36-43.2 36-70.2 0-61.2 34.2-160.2 55.8-160.2 9 0 16.2-23.4 16.2-54 0-34.2 12.6-61.2 36-75.6 21.6-14.4 36-43.2 36-72 0-30.6 14.4-59.4 36-72 21.6-14.4 36-43.2 36-70.2 0-61.2 34.2-160.2 55.8-160.2 9 0 16.2-23.4 16.2-54 0-34.2 12.6-61.2 36-75.6 21.6-14.4 36-43.2 36-72 0-27 14.4-59.4 34.2-72 19.8-14.4 37.8-57.6 45-108 7.2-46.8 25.2-97.2 39.6-111.6s25.2-46.8 25.2-72c0-27 14.4-55.8 36-68.4 27-18 36-43.2 36-108 0-66.6 9-91.8 36-108 21.6-14.4 36-43.2 36-70.2 0-61.2 34.2-160.2 55.8-160.2 9 0 16.2-23.4 16.2-52.2 0-63 34.2-163.8 55.8-163.8 9 0 16.2-27 16.2-59.4s16.2-90 36-129.6 36-84.6 36-102.6 16.2-41.4 36-54c27-18 36-43.2 37.8-104.4 0-120.6 27-259.2 50.4-266.4 14.4-5.4 19.8-122.4 19.8-390.6s-5.4-385.2-19.8-390.6c-23.4-7.2-50.4-145.8-50.4-266.4-1.8-61.2-10.8-86.4-37.8-104.4-21.6-12.6-36-41.4-36-72 0-28.8-14.4-57.6-36-72-21.6-12.6-36-41.4-36-72 0-28.8-14.4-57.6-36-72-21.6-12.6-36-41.4-36-72s-14.4-57.6-37.8-72c-25.2-16.2-34.2-36-28.8-59.4 7.2-27-21.6-64.8-106.2-147.6-79.2-73.8-115.2-122.4-108-142.2 10.8-43.2-320.4-374.4-363.6-363.6-19.8 7.2-68.4-28.8-142.2-108-82.8-84.6-120.6-113.4-147.6-106.2-23.4 5.4-43.2-3.6-59.4-28.8-12.6-21.6-41.4-37.8-68.4-37.8-30.6 0-70.2-27-122.4-81-50.4-52.2-86.4-75.6-104.4-68.4s-45-7.2-72-36c-25.2-27-54-41.4-73.8-37.8-43.2 12.6-230.4-176.4-216-216 7.2-19.8-36-75.6-140.4-176.4-100.8-97.2-153-162-153-189 0-23.4-39.6-77.4-109.8-142.2-73.8-72-106.2-115.2-100.8-136.8 7.2-23.4-45-86.4-178.2-216-133.2-131.4-187.2-194.4-180-217.8 5.4-21.6-75.6-113.4-288-324-280.8-279-295.2-295.2-295.2-361.8 0-64.8 12.6-82.8 151.2-221.4 102.6-100.8 149.4-160.2 144-180-5.4-23.4 68.4-108 252-288 185.4-183.6 257.4-266.4 252-288-7.2-21.6 28.8-68.4 108-144 79.2-77.4 113.4-122.4 108-144-7.2-21.6 27-68.4 108-145.8 77.4-73.8 113.4-122.4 106.2-138.6-14.4-37.8 469.8-522 507.6-505.8 16.2 5.4 45-9 70.2-37.8 27-28.8 54-43.2 72-36s45-7.2 72-36 54-43.2 72-36 45-7.2 72-36c25.2-27 54-41.4 70.2-36 39.6 14.4 730.8-680.4 720-723.6-5.4-19.8 18-54 64.8-97.2 48.6-43.2 73.8-81 73.8-111.6 0-25.2 16.2-54 36-66.6 21.6-14.4 36-43.2 36-72 0-30.6 14.4-59.4 36-72 21.6-14.4 36-43.2 36-72 0-30.6 14.4-59.4 36-72 21.6-14.4 36-43.2 36-72 0-30.6 14.4-59.4 36-72 27-18 36-43.2 37.8-104.4 0-120.6 27-259.2 50.4-266.4 14.4-5.4 19.8-122.4 19.8-390.6s-5.4-385.2-19.8-390.6c-23.4-7.2-50.4-145.8-50.4-271.8-1.8-46.8-9-84.6-18-84.6-21.6 0-55.8-100.8-55.8-163.8 0-28.8-7.2-52.2-16.2-52.2-19.8 0-55.8-99-55.8-156.6 0-25.2-10.8-55.8-25.2-70.2s-32.4-64.8-39.6-111.6c-7.2-50.4-25.2-93.6-45-108-19.8-12.6-34.2-43.2-34.2-68.4s-10.8-57.6-25.2-72-32.4-64.8-39.6-111.6c-7.2-50.4-25.2-93.6-45-108-19.8-12.6-34.2-45-34.2-72 0-28.8-14.4-57.6-36-72-23.4-14.4-36-41.4-36-75.6 0-30.6-7.2-54-16.2-54-21.6 0-55.8-99-55.8-160.2 0-27-14.4-55.8-36-70.2-21.6-12.6-36-41.4-36-72 0-28.8-14.4-57.6-36-72-23.4-14.4-36-41.4-36-75.6 0-30.6-7.2-54-16.2-54-21.6 0-55.8-99-55.8-160.2 0-27-14.4-55.8-36-70.2-23.4-14.4-36-41.4-36-75.6 0-30.6-7.2-54-16.2-54-21.6 0-55.8-100.8-55.8-163.8 0-28.8-7.2-52.2-16.2-52.2-21.6 0-55.8-99-55.8-160.2 0-27-14.4-55.8-36-70.2-21.6-12.6-36-41.4-36-72 0-28.8-14.4-57.6-36-72-23.4-14.4-36-41.4-36-75.6 0-30.6-7.2-54-16.2-54-21.6 0-55.8-99-55.8-160.2 0-27-14.4-55.8-36-70.2-21.6-12.6-36-41.4-36-72 0-28.8-14.4-57.6-36-72-21.6-12.6-36-41.4-36-72 0-28.8-14.4-57.6-36-72-21.6-12.6-36-41.4-36-72 0-28.8-14.4-57.6-36-72-21.6-12.6-36-41.4-36-72 0-28.8-14.4-57.6-36-72-19.8-12.6-36-41.4-36-66.6 0-30.6-25.2-66.6-72-109.8-48.6-45-72-81-72-113.4 0-27-14.4-55.8-36-70.2-19.8-12.6-36-41.4-36-66.6 0-30.6-25.2-66.6-72-109.8-45-41.4-72-81-72-108s-27-66.6-73.8-109.8c-48.6-45-70.2-75.6-64.8-99 7.2-23.4-25.2-66.6-106.2-145.8-79.2-75.6-115.2-122.4-108-142.2 5.4-23.4-50.4-88.2-180-216-131.4-127.8-187.2-194.4-181.8-216 12.6-45-1468.8-1526.4-1513.8-1515.6-21.6 7.2-88.2-50.4-214.2-180-129.6-131.4-194.4-185.4-216-180-21.6 7.2-68.4-28.8-145.8-108-75.6-79.2-120.6-113.4-140.4-106.2-18 7.2-55.8-18-108-72s-90-79.2-108-72-55.8-18-106.2-72c-57.6-57.6-90-79.2-115.2-72-23.4 5.4-43.2-3.6-59.4-28.8-12.6-21.6-41.4-37.8-68.4-37.8-30.6 0-70.2-27-122.4-81-50.4-52.2-86.4-75.6-104.4-68.4s-45-7.2-72-36-54-43.2-72-36-45-7.2-72-36-54-43.2-72-36-45-7.2-72-36-54-43.2-72-36-45-7.2-70.2-36c-36-37.8-54-43.2-115.2-36-59.4 9-75.6 3.6-95.4-28.8-14.4-23.4-41.4-37.8-72-37.8s-59.4-14.4-72-36c-14.4-21.6-43.2-36-70.2-36-25.2 0-61.2-18-82.8-43.2-32.4-36-50.4-41.4-109.8-34.2-61.2 9-77.4 3.6-97.2-28.8-18-30.6-41.4-37.8-108-37.8s-91.8-9-108-36c-14.4-21.6-43.2-36-70.2-36s-61.2-18-84.6-45c-25.2-27-48.6-39.6-68.4-32.4-18 7.2-45-7.2-70.2-36-36-37.8-54-43.2-115.2-36-59.4 9-75.6 3.6-95.4-28.8-14.4-21.6-41.4-37.8-70.2-37.8-25.2 0-61.2-18-82.8-43.2-32.4-36-50.4-41.4-109.8-34.2-61.2 9-77.4 3.6-97.2-28.8-14.4-23.4-41.4-37.8-72-37.8s-59.4-14.4-72-36c-18-27-43.2-36-108-36-66.6 0-91.8-9-108-36-14.4-21.6-43.2-36-70.2-36-25.2 0-61.2-18-82.8-43.2-32.4-36-50.4-41.4-109.8-34.2-61.2 9-77.4 3.6-97.2-28.8-14.4-21.6-41.4-37.8-70.2-37.8-25.2 0-61.2-18-84.6-43.2-30.6-37.8-48.6-43.2-102.6-34.2-55.8 9-73.8 3.6-108-36-36-37.8-54-43.2-113.4-36s-75.6 3.6-100.8-32.4c-25.2-37.8-41.4-41.4-145.8-37.8-100.8 5.4-118.8 1.8-138.6-30.6-21.6-36-37.8-37.8-473.4-37.8s-451.8 1.8-473.4 37.8c-19.8 32.4-37.8 36-138.6 30.6-104.4-3.6-120.6 0-145.8 36-16.2 23.4-46.8 39.6-75.6 39.6-30.6 0-57.6 14.4-72 37.8-16.2 25.2-36 34.2-59.4 28.8-23.4-7.2-50.4 7.2-77.4 36s-54 43.2-72 36c-19.8-7.2-64.8 25.2-140.4 106.2-75.6 77.4-124.2 115.2-144 108-45-10.8-446.4 390.6-435.6 435.6 7.2 19.8-30.6 68.4-108 144-79.2 75.6-113.4 120.6-106.2 140.4 7.2 18-18 55.8-72 106.2-57.6 57.6-79.2 90-72 115.2 5.4 23.4-3.6 43.2-28.8 59.4-21.6 12.6-37.8 41.4-37.8 68.4 0 34.2-41.4 84.6-153 194.4-99 97.2-147.6 156.6-140.4 174.6 14.4 37.8-30.6 84.6-70.2 75.6-21.6-7.2-59.4 16.2-113.4 72-50.4 54-88.2 79.2-106.2 72-19.8-7.2-64.8 27-140.4 106.2-77.4 79.2-124.2 115.2-145.8 108-21.6-5.4-77.4 39.6-180 144-100.8 106.2-156.6 151.2-178.2 144-23.4-5.4-126 88.2-361.8 324-235.8 241.2-336.6 331.2-360 324-21.6-5.4-57.6 19.8-108 72-86.4 90-133.2 99-187.2 36-23.4-27-52.2-41.4-72-36-23.4 7.2-129.6-88.2-396-360-261-262.8-374.4-365.4-396-360-23.4 7.2-88.2-48.6-217.8-180-126-129.6-192.6-185.4-212.4-178.2-18 7.2-55.8-18-106.2-72-54-55.8-91.8-79.2-113.4-72-21.6 5.4-54-16.2-99-64.8-41.4-45-82.8-73.8-108-73.8-54 0-237.6-183.6-223.2-223.2 7.2-18-18-55.8-72-108s-79.2-90-72-108-16.2-55.8-68.4-104.4c-54-52.2-81-91.8-81-122.4 0-27-16.2-55.8-37.8-68.4-25.2-16.2-34.2-36-28.8-59.4 7.2-25.2-28.8-72-142.2-183.6-104.4-100.8-151.2-156.6-145.8-178.2 12.6-43.2-316.8-374.4-361.8-363.6-19.8 7.2-68.4-28.8-144-108-75.6-81-120.6-113.4-140.4-106.2-18 7.2-45-7.2-72-36s-54-43.2-77.4-36c-23.4 5.4-43.2-3.6-59.4-28.8-14.4-23.4-41.4-37.8-72-37.8-28.8 0-59.4-16.2-75.6-39.6-25.2-36-41.4-39.6-145.8-36-100.8 5.4-118.8 1.8-138.6-30.6-21.6-36-37.8-37.8-473.4-37.8s-451.8 1.8-473.4 37.8m799.2 781.2c27 41.4 36 43.2 142.2 32.4 102.6-9 115.2-7.2 136.8 28.8 16.2 23.4 43.2 37.8 73.8 37.8s59.4 14.4 72 36c12.6 19.8 43.2 36 68.4 36 30.6 0 77.4 34.2 156.6 117 77.4 81 120.6 113.4 140.4 106.2 37.8-14.4 162 106.2 147.6 144-7.2 18 18 57.6 72 108 57.6 55.8 79.2 90 70.2 109.8-7.2 21.6 14.4 54 72 108 81 72 84.6 79.2 73.8 149.4-10.8 63-7.2 75.6 32.4 100.8 43.2 28.8 45 32.4 32.4 190.8-7.2 113.4-5.4 162 9 162 10.8 0 39.6 21.6 64.8 46.8 27 30.6 54 45 72 37.8s54 16.2 104.4 68.4c55.8 59.4 86.4 77.4 113.4 70.2 28.8-7.2 55.8 10.8 108 72 54 64.8 77.4 79.2 109.8 72 30.6-7.2 48.6 1.8 72 36 21.6 36 39.6 45 66.6 36 28.8-9 59.4 14.4 147.6 108 82.8 88.2 120.6 117 144 108s59.4 18 144 108c82.8 88.2 120.6 117 144 108 21.6-9 109.8 70.2 360 324 239.4 241.2 338.4 331.2 360 324 39.6-16.2 162 106.2 145.8 147.6-9 21.6 64.8 106.2 277.2 318.6 257.4 257.4 288 295.2 288 347.4 0 54 5.4 61.2 45 61.2 25.2 0 45-9 45-18 0-23.4 77.4-106.2 356.4-385.2 162-163.8 217.8-230.4 208.8-252-16.2-41.4 106.2-163.8 145.8-147.6 21.6 7.2 120.6-82.8 360-324 250.2-255.6 338.4-333 361.8-324 21.6 9 68.4-28.8 178.2-144s156.6-153 180-144c21.6 7.2 52.2-12.6 106.2-72 57.6-63 86.4-81 111.6-72 27 9 52.2-9 106.2-72s79.2-79.2 108-72c30.6 7.2 55.8-9 108-72 52.2-61.2 79.2-79.2 108-72 27 7.2 57.6-10.8 113.4-70.2 50.4-52.2 86.4-75.6 104.4-68.4s45-7.2 72-37.8c25.2-25.2 54-46.8 64.8-46.8 14.4 0 16.2-48.6 9-162-12.6-158.4-10.8-162 32.4-190.8 39.6-25.2 43.2-37.8 32.4-100.8-10.8-70.2-7.2-77.4 73.8-149.4 57.6-54 79.2-86.4 72-108-9-19.8 12.6-54 70.2-109.8 54-50.4 79.2-90 72-108-14.4-37.8 109.8-158.4 147.6-144 19.8 7.2 63-25.2 140.4-106.2 79.2-82.8 126-117 156.6-117 25.2 0 55.8-16.2 68.4-36 12.6-21.6 41.4-36 72-36s57.6-14.4 73.8-37.8c21.6-36 34.2-37.8 136.8-28.8 106.2 10.8 115.2 9 142.2-32.4 28.8-45 30.6-45 325.8-45s297 0 325.8 45c27 41.4 36 43.2 142.2 32.4 108-9 115.2-7.2 144 37.8 23.4 36 41.4 43.2 72 36 32.4-7.2 50.4 1.8 73.8 37.8 27 41.4 37.8 45 108 34.2 68.4-9 79.2-5.4 108 36 27 43.2 37.8 46.8 108 36 68.4-9 79.2-5.4 106.2 36 23.4 36 41.4 43.2 72 36 32.4-7.2 50.4 1.8 73.8 37.8 27 41.4 37.8 45 108 34.2 68.4-9 79.2-5.4 106.2 36 23.4 36 41.4 43.2 72 36 32.4-7.2 50.4 1.8 73.8 37.8 27 41.4 37.8 45 108 34.2 68.4-9 79.2-5.4 106.2 36 23.4 36 41.4 43.2 72 36 32.4-7.2 50.4 1.8 73.8 37.8 27 41.4 37.8 45 108 34.2 68.4-9 79.2-5.4 106.2 36 23.4 36 41.4 43.2 72 36 32.4-7.2 48.6 1.8 72 36 23.4 36 41.4 43.2 72 36 32.4-7.2 50.4 1.8 73.8 37.8s41.4 45 72 37.8c28.8-7.2 46.8 1.8 68.4 36 27 41.4 39.6 43.2 109.8 34.2 70.2-10.8 81-9 109.8 34.2 27 43.2 37.8 46.8 108 36 68.4-9 79.2-5.4 108 36 27 43.2 37.8 46.8 104.4 37.8 64.8-10.8 79.2-5.4 113.4 32.4 25.2 30.6 50.4 43.2 73.8 36 25.2-5.4 45 5.4 66.6 37.8 23.4 36 41.4 43.2 72 36 32.4-7.2 48.6 1.8 72 36 23.4 36 41.4 43.2 72 36 32.4-7.2 48.6 1.8 72 36 23.4 36 41.4 43.2 72 36 32.4-7.2 48.6 1.8 72 36 23.4 36 41.4 43.2 72 36 32.4-7.2 48.6 1.8 72 36 23.4 36 41.4 43.2 72 36 32.4-7.2 50.4 1.8 73.8 36 21.6 36 39.6 45 66.6 36s54 7.2 111.6 70.2c54 59.4 84.6 81 109.8 73.8 27-7.2 55.8 12.6 106.2 72 52.2 63 77.4 79.2 108 72 28.8-7.2 54 9 108 72 52.2 63 79.2 81 104.4 72 28.8-9 68.4 23.4 183.6 144 106.2 113.4 156.6 153 178.2 144 43.2-16.2 1747.8 1688.4 1731.6 1731.6-9 21.6 32.4 72 144 178.2 115.2 109.8 153 156.6 144 180-7.2 21.6 12.6 52.2 72 106.2 63 57.6 81 86.4 72 111.6-9 27 9 52.2 72 106.2 59.4 50.4 79.2 79.2 72 106.2-7.2 25.2 14.4 55.8 73.8 109.8 63 57.6 79.2 84.6 70.2 111.6s0 45 36 66.6c34.2 23.4 43.2 41.4 36 73.8-7.2 30.6 0 48.6 36 72 34.2 23.4 43.2 39.6 36 72-7.2 30.6 0 48.6 36 72 34.2 23.4 43.2 39.6 36 72-7.2 30.6 0 48.6 36 72 34.2 23.4 43.2 39.6 36 72-7.2 30.6 0 48.6 36 72 34.2 23.4 43.2 39.6 36 72-7.2 30.6 0 48.6 36 72 34.2 23.4 43.2 39.6 36 72-7.2 30.6 0 48.6 36 72 41.4 27 45 37.8 36 106.2-10.8 70.2-7.2 81 36 108 41.4 28.8 45 39.6 36 108-10.8 70.2-7.2 81 36 108 43.2 28.8 45 39.6 34.2 109.8-9 70.2-7.2 82.8 34.2 109.8 34.2 21.6 43.2 39.6 36 68.4-7.2 30.6 1.8 48.6 37.8 72s45 41.4 37.8 73.8c-7.2 30.6 0 48.6 36 72 43.2 27 45 37.8 34.2 108-9 72-7.2 81 36 109.8 36 23.4 45 41.4 37.8 72-7.2 28.8 1.8 46.8 36 70.2s43.2 39.6 36 72c-7.2 30.6 0 48.6 36 72 41.4 27 45 37.8 36 106.2-10.8 70.2-7.2 81 34.2 108 36 23.4 45 41.4 37.8 73.8-7.2 30.6 0 48.6 36 72 41.4 27 45 37.8 36 106.2-10.8 70.2-7.2 81 34.2 108 36 23.4 45 41.4 37.8 73.8-7.2 30.6 0 48.6 36 72 41.4 27 45 37.8 36 106.2-10.8 70.2-7.2 81 36 108 41.4 28.8 45 39.6 36 108-10.8 70.2-7.2 81 34.2 108 36 23.4 45 41.4 37.8 73.8-7.2 30.6 0 48.6 36 72 45 28.8 46.8 36 37.8 144-10.8 106.2-9 115.2 32.4 142.2 45 28.8 45 30.6 45 325.8s0 297-45 325.8c-41.4 27-43.2 36-32.4 142.2 9 102.6 7.2 115.2-28.8 136.8-23.4 16.2-37.8 43.2-37.8 73.8s-14.4 59.4-36 72c-19.8 12.6-36 43.2-36 68.4 0 30.6-34.2 77.4-117 156.6-81 77.4-113.4 120.6-106.2 140.4 14.4 37.8-106.2 162-144 147.6-18-7.2-57.6 18-108 72-55.8 57.6-90 79.2-109.8 70.2-21.6-7.2-54 14.4-108 72-72 81-79.2 84.6-149.4 73.8-63-10.8-75.6-7.2-100.8 32.4-30.6 45-32.4 46.8-190.8 34.2-111.6-9-162-5.4-162 7.2 0 10.8-37.8 55.8-82.8 99-61.2 61.2-79.2 90-72 117 9 25.2-1.8 43.2-34.2 64.8-34.2 21.6-43.2 39.6-36 70.2 9 34.2-5.4 55.8-70.2 111.6-64.8 54-79.2 77.4-72 109.8 7.2 30.6-1.8 48.6-36 72-36 21.6-45 39.6-36 66.6 9 28.8-14.4 59.4-108 147.6-88.2 82.8-117 120.6-108 144s-27 68.4-144 180c-115.2 109.8-153 156.6-144 178.2 9 23.4-70.2 113.4-322.2 361.8-232.2 228.6-333 340.2-325.8 360 16.2 37.8-28.8 84.6-68.4 73.8-25.2-5.4-109.8 66.6-324 279-257.4 253.8-297 286.2-351 286.2-52.2 0-59.4 5.4-59.4 45 0 25.2 9 45 18 45 23.4 0 99 70.2 423 390.6 180 178.2 268.2 253.8 288 246.6 37.8-16.2 84.6 28.8 73.8 68.4-5.4 27 73.8 117 325.8 365.4s331.2 338.4 322.2 361.8c-9 21.6 28.8 68.4 144 178.2 117 111.6 153 156.6 144 180s19.8 61.2 108 144c93.6 88.2 117 118.8 108 147.6-9 27 0 45 36 66.6 34.2 23.4 43.2 41.4 36 72-7.2 32.4 7.2 55.8 72 109.8 63 54 79.2 79.2 72 108-7.2 30.6 9 55.8 70.2 111.6 59.4 52.2 77.4 81 70.2 104.4-9 19.8 3.6 45 36 73.8 25.2 25.2 46.8 54 46.8 64.8 0 14.4 48.6 16.2 162 7.2 158.4-12.6 160.2-10.8 190.8 34.2 25.2 39.6 37.8 43.2 100.8 32.4 70.2-10.8 77.4-7.2 149.4 73.8 54 57.6 86.4 79.2 108 72 19.8-9 54 12.6 109.8 70.2 50.4 54 90 79.2 108 72 37.8-14.4 158.4 109.8 144 147.6-7.2 19.8 25.2 63 106.2 140.4 82.8 79.2 117 126 117 156.6 0 25.2 16.2 55.8 36 68.4 21.6 12.6 36 41.4 36 72s14.4 57.6 37.8 73.8c36 21.6 37.8 34.2 28.8 136.8-10.8 106.2-9 115.2 32.4 142.2 45 28.8 45 30.6 45 325.8s0 297-45 325.8c-41.4 27-43.2 36-32.4 142.2 9 108 7.2 115.2-37.8 144-36 23.4-43.2 41.4-36 72 7.2 32.4-1.8 50.4-37.8 73.8-41.4 27-45 37.8-34.2 108 9 68.4 5.4 79.2-36 108-43.2 27-46.8 37.8-36 108 9 68.4 5.4 79.2-36 106.2-36 23.4-43.2 41.4-36 72 7.2 32.4-1.8 50.4-37.8 73.8-41.4 27-45 37.8-34.2 108 9 68.4 5.4 79.2-36 106.2-36 23.4-43.2 41.4-36 72 7.2 32.4-1.8 50.4-37.8 73.8-41.4 27-45 37.8-34.2 108 9 68.4 5.4 79.2-36 106.2-36 23.4-43.2 41.4-36 72 7.2 32.4-1.8 48.6-36 72s-43.2 41.4-36 70.2c7.2 30.6-1.8 48.6-37.8 72-43.2 28.8-45 37.8-36 109.8 10.8 70.2 9 81-34.2 108-36 23.4-43.2 41.4-36 72 7.2 32.4-1.8 48.6-36 72s-43.2 41.4-36 70.2c7.2 30.6-1.8 48.6-37.8 72-43.2 28.8-45 37.8-36 109.8 10.8 70.2 9 81-34.2 109.8-43.2 27-46.8 37.8-36 108 9 68.4 5.4 79.2-36 108-43.2 27-46.8 37.8-36 108 9 68.4 5.4 79.2-36 106.2-36 23.4-43.2 41.4-36 72 7.2 32.4-1.8 48.6-36 72-36 23.4-43.2 41.4-36 72 7.2 32.4-1.8 48.6-36 72-36 23.4-43.2 41.4-36 72 7.2 32.4-1.8 48.6-36 72-36 23.4-43.2 41.4-36 72 7.2 32.4-1.8 48.6-36 72-36 23.4-43.2 41.4-36 72 7.2 32.4-1.8 48.6-36 72-36 23.4-43.2 41.4-36 72 7.2 32.4-1.8 50.4-36 73.8-36 21.6-45 39.6-36 66.6s-7.2 54-70.2 111.6c-59.4 54-81 84.6-73.8 109.8 7.2 27-12.6 55.8-72 106.2-63 52.2-79.2 77.4-72 108 7.2 28.8-9 54-72 108-63 52.2-81 79.2-72 104.4 9 28.8-23.4 68.4-144 183.6-113.4 106.2-153 156.6-144 178.2 16.2 43.2-1688.4 1747.8-1731.6 1731.6-21.6-9-72 30.6-178.2 144-115.2 120.6-154.8 153-183.6 144-25.2-9-52.2 9-104.4 72-54 63-79.2 79.2-108 72-30.6-7.2-55.8 9-108 72-54 63-79.2 79.2-108 72-30.6-7.2-55.8 9-108 72-54 63-79.2 79.2-109.8 72-28.8-7.2-46.8 1.8-70.2 36s-39.6 43.2-72 36c-30.6-7.2-48.6 0-72 36-23.4 34.2-39.6 43.2-72 36-30.6-7.2-48.6 0-72 36-23.4 34.2-39.6 43.2-72 36-30.6-7.2-48.6 0-72 36-23.4 34.2-39.6 43.2-72 36-30.6-7.2-48.6 0-72 36-23.4 34.2-39.6 43.2-72 36-30.6-7.2-48.6 0-72 36-23.4 34.2-39.6 43.2-72 36-30.6-7.2-48.6 0-72 36-27 41.4-37.8 45-106.2 36-70.2-10.8-81-7.2-108 36-28.8 41.4-39.6 45-108 36-70.2-10.8-81-7.2-108 34.2-28.8 43.2-37.8 45-109.8 36-70.2-10.8-81-9-108 34.2-23.4 34.2-41.4 43.2-70.2 36-30.6-7.2-48.6 1.8-72 37.8s-41.4 45-73.8 37.8c-30.6-7.2-48.6 0-72 36-27 43.2-37.8 45-108 34.2-72-9-81-7.2-109.8 36-23.4 36-41.4 45-72 37.8-28.8-7.2-46.8 1.8-70.2 36s-39.6 43.2-72 36c-30.6-7.2-48.6 0-72 36-27 41.4-37.8 45-106.2 36-70.2-10.8-81-7.2-108 34.2-23.4 36-41.4 45-73.8 37.8-30.6-7.2-48.6 0-72 36-27 41.4-37.8 45-106.2 36-70.2-10.8-81-7.2-108 34.2-23.4 36-41.4 45-73.8 37.8-30.6-7.2-48.6 0-72 36-27 41.4-37.8 45-106.2 36-70.2-10.8-81-7.2-108 36-28.8 41.4-39.6 45-108 36-70.2-10.8-81-7.2-108 34.2-23.4 36-41.4 45-73.8 37.8-30.6-7.2-48.6 0-72 36-28.8 45-36 46.8-144 37.8-106.2-10.8-115.2-9-142.2 32.4-28.8 45-30.6 45-325.8 45s-297 0-325.8-45c-27-41.4-36-43.2-142.2-32.4-102.6 9-115.2 7.2-136.8-28.8-16.2-23.4-43.2-37.8-73.8-37.8s-59.4-14.4-72-36c-12.6-19.8-43.2-36-68.4-36-30.6 0-77.4-34.2-156.6-117-77.4-81-120.6-113.4-140.4-106.2-37.8 14.4-162-106.2-147.6-144 7.2-18-18-57.6-72-108-57.6-55.8-79.2-90-70.2-109.8 7.2-21.6-14.4-54-72-108-81-72-84.6-79.2-73.8-149.4 10.8-63 7.2-75.6-32.4-100.8-45-30.6-46.8-32.4-34.2-190.8 9-113.4 7.2-162-7.2-162-10.8 0-39.6-21.6-64.8-46.8-27-30.6-54-45-72-37.8s-54-16.2-104.4-68.4c-55.8-59.4-86.4-77.4-113.4-70.2-28.8 7.2-55.8-10.8-108-72-52.2-63-77.4-79.2-108-72-28.8 7.2-54-9-108-72s-79.2-81-106.2-72c-25.2 9-54-9-111.6-72-54-59.4-84.6-79.2-106.2-72-23.4 9-70.2-28.8-180-144s-156.6-153-178.2-144c-23.4 9-113.4-70.2-361.8-322.2s-338.4-331.2-365.4-325.8c-39.6 10.8-84.6-36-68.4-75.6 7.2-19.8-64.8-104.4-246.6-286.2-320.4-324-390.6-399.6-390.6-423 0-9-19.8-18-45-18-39.6 0-45 7.2-45 59.4 0 54-32.4 93.6-288 351-194.4 198-284.4 300.6-277.2 318.6 16.2 37.8-28.8 84.6-68.4 73.8-27-5.4-117 73.8-365.4 325.8s-338.4 331.2-361.8 322.2c-21.6-9-68.4 28.8-178.2 144-111.6 117-156.6 153-180 144s-61.2 19.8-144 108c-88.2 93.6-118.8 117-147.6 108-27-9-45 0-66.6 36-23.4 34.2-41.4 43.2-72 36-32.4-7.2-55.8 7.2-109.8 72-55.8 64.8-77.4 79.2-111.6 70.2-30.6-7.2-48.6 1.8-70.2 36-21.6 32.4-39.6 43.2-64.8 34.2-27-7.2-55.8 10.8-117 72-43.2 45-88.2 82.8-99 82.8-12.6 0-16.2 50.4-7.2 158.4 10.8 153 10.8 160.2-32.4 196.2-28.8 25.2-41.4 50.4-34.2 73.8 5.4 25.2-5.4 45-37.8 66.6-34.2 23.4-43.2 41.4-36 70.2 5.4 27-5.4 50.4-36 77.4-28.8 25.2-41.4 50.4-34.2 68.4 7.2 19.8-18 55.8-72 109.8-54 50.4-79.2 90-72 108 14.4 37.8-109.8 158.4-147.6 144-19.8-7.2-63 25.2-140.4 106.2-79.2 82.8-126 117-156.6 117-25.2 0-55.8 16.2-68.4 36-12.6 21.6-41.4 36-72 36s-57.6 14.4-73.8 37.8c-21.6 36-34.2 37.8-136.8 28.8-106.2-10.8-115.2-9-142.2 32.4-28.8 45-30.6 45-325.8 45s-297 0-325.8-45c-27-41.4-36-43.2-142.2-32.4-108 9-115.2 7.2-144-37.8-23.4-36-41.4-43.2-72-36-32.4 7.2-50.4-1.8-73.8-37.8-27-41.4-37.8-45-108-34.2-68.4 9-79.2 5.4-108-36-27-43.2-37.8-46.8-108-36-68.4 9-79.2 5.4-106.2-36-23.4-36-41.4-43.2-72-36-32.4 7.2-50.4-1.8-73.8-37.8-27-41.4-37.8-45-108-34.2-68.4 9-79.2 5.4-106.2-36-23.4-34.2-41.4-43.2-70.2-36-30.6 7.2-48.6-1.8-72-37.8-28.8-43.2-37.8-45-109.8-36-70.2 10.8-81 9-108-34.2-23.4-36-41.4-43.2-72-36-32.4 7.2-50.4-1.8-73.8-37.8-27-41.4-37.8-45-108-34.2-68.4 9-79.2 5.4-106.2-36-23.4-36-41.4-43.2-72-36-32.4 7.2-48.6-1.8-72-36-23.4-36-41.4-43.2-72-36-32.4 7.2-50.4-1.8-73.8-37.8s-41.4-45-72-37.8c-28.8 7.2-46.8-1.8-68.4-36-27-41.4-39.6-43.2-109.8-34.2-70.2 10.8-81 9-109.8-34.2-27-43.2-37.8-46.8-108-36-68.4 9-79.2 5.4-108-36-27-43.2-37.8-46.8-108-36-68.4 9-79.2 5.4-106.2-36-23.4-36-41.4-43.2-72-36-32.4 7.2-48.6-1.8-72-36-23.4-36-41.4-43.2-72-36-32.4 7.2-48.6-1.8-72-36-23.4-36-41.4-43.2-72-36-32.4 7.2-48.6-1.8-72-36-23.4-36-41.4-43.2-72-36-32.4 7.2-48.6-1.8-72-36-23.4-36-41.4-43.2-72-36-32.4 7.2-48.6-1.8-72-36-23.4-36-41.4-43.2-72-36-32.4 7.2-50.4-1.8-73.8-36-21.6-36-39.6-45-66.6-36s-54-7.2-111.6-70.2c-54-59.4-84.6-81-109.8-73.8-27 7.2-55.8-12.6-106.2-72-54-63-79.2-81-106.2-72-25.2 9-54-9-111.6-72-54-59.4-84.6-79.2-106.2-72-23.4 9-70.2-28.8-180-144-106.2-111.6-156.6-153-178.2-144-43.2 16.2-1747.8-1688.4-1731.6-1731.6 9-21.6-32.4-72-144-178.2-115.2-109.8-153-156.6-144-180 7.2-21.6-12.6-52.2-72-106.2-63-57.6-81-86.4-72-111.6 9-27-9-52.2-72-106.2-59.4-50.4-79.2-79.2-72-106.2 7.2-25.2-14.4-55.8-73.8-109.8-63-57.6-79.2-84.6-70.2-111.6s0-45-36-66.6c-34.2-23.4-43.2-41.4-36-73.8 7.2-30.6 0-48.6-36-72-34.2-23.4-43.2-39.6-36-72 7.2-30.6 0-48.6-36-72-34.2-23.4-43.2-39.6-36-72 7.2-30.6 0-48.6-36-72-34.2-23.4-43.2-39.6-36-72 7.2-30.6 0-48.6-36-72-34.2-23.4-43.2-39.6-36-72 7.2-30.6 0-48.6-36-72-34.2-23.4-43.2-39.6-36-72 7.2-30.6 0-48.6-36-72-41.4-27-45-37.8-36-106.2 10.8-70.2 7.2-81-36-108-41.4-28.8-45-39.6-36-108 10.8-70.2 7.2-81-36-108-43.2-28.8-45-39.6-34.2-109.8 9-70.2 7.2-82.8-34.2-109.8-34.2-21.6-43.2-39.6-36-68.4 7.2-30.6-1.8-48.6-37.8-72s-45-41.4-37.8-73.8c7.2-30.6 0-48.6-36-72-34.2-23.4-43.2-39.6-36-72 7.2-30.6 0-48.6-36-72-41.4-27-45-37.8-36-106.2 10.8-70.2 7.2-81-34.2-108-36-23.4-45-41.4-37.8-73.8 7.2-30.6 0-48.6-36-72-41.4-27-45-37.8-36-106.2 10.8-70.2 7.2-81-34.2-108-36-23.4-45-41.4-37.8-73.8 7.2-30.6 0-48.6-36-72-41.4-27-45-37.8-36-106.2 10.8-70.2 7.2-81-34.2-108-36-23.4-45-41.4-37.8-73.8 7.2-30.6 0-48.6-36-72-41.4-27-45-37.8-36-106.2 10.8-70.2 7.2-81-36-108-41.4-28.8-45-39.6-36-108 10.8-70.2 7.2-81-34.2-108-36-23.4-45-41.4-37.8-73.8 7.2-30.6 0-48.6-36-72-45-28.8-46.8-36-37.8-144 10.8-106.2 9-115.2-32.4-142.2-45-28.8-45-30.6-45-325.8s0-297 45-325.8c41.4-27 43.2-36 32.4-142.2-9-102.6-7.2-115.2 28.8-136.8 23.4-16.2 37.8-43.2 37.8-73.8s14.4-59.4 36-72c19.8-12.6 36-43.2 36-68.4 0-30.6 34.2-77.4 117-156.6 81-77.4 113.4-120.6 106.2-140.4-14.4-37.8 106.2-162 144-147.6 18 7.2 57.6-18 108-72 55.8-57.6 90-79.2 109.8-70.2 21.6 7.2 54-14.4 108-72 72-81 79.2-84.6 149.4-73.8 63 10.8 75.6 7.2 100.8-32.4 28.8-43.2 32.4-45 190.8-32.4 113.4 7.2 162 5.4 162-9 0-10.8 21.6-39.6 46.8-64.8 30.6-27 45-54 37.8-72s18-55.8 70.2-108c61.2-59.4 79.2-88.2 72-113.4-9-27 9-52.2 70.2-104.4 63-54 77.4-77.4 70.2-109.8-7.2-30.6 1.8-48.6 36-72 36-21.6 45-39.6 36-66.6-9-28.8 14.4-59.4 108-147.6 88.2-82.8 117-120.6 108-144s18-59.4 108-144c88.2-82.8 117-120.6 108-144-9-21.6 70.2-109.8 324-360 241.2-237.6 331.2-338.4 324-360-16.2-39.6 178.2-234 219.6-217.8 21.6 9 99-57.6 282.6-241.2 223.2-223.2 259.2-252 313.2-252 59.4 0 59.4-1.8 59.4-81s0-81-59.4-81c-54 0-91.8-32.4-351-288-201.6-198-298.8-284.4-318.6-277.2-37.8 16.2-84.6-28.8-73.8-68.4 5.4-27-82.8-126-361.8-401.4-277.2-275.4-367.2-374.4-358.2-397.8 9-21.6-21.6-61.2-108-142.2-90-84.6-117-120.6-108-144s-19.8-61.2-108-144c-93.6-88.2-117-118.8-108-147.6 9-27 0-45-36-66.6-34.2-23.4-43.2-41.4-36-72 7.2-32.4-7.2-55.8-70.2-109.8-63-52.2-79.2-77.4-70.2-104.4s-9-54-72-113.4c-59.4-54-79.2-84.6-72-106.2 9-19.8-3.6-45-36-73.8-25.2-25.2-46.8-54-46.8-64.8 0-14.4-48.6-16.2-162-9-158.4 12.6-162 10.8-190.8-32.4-25.2-39.6-37.8-43.2-100.8-32.4-70.2 10.8-77.4 7.2-149.4-73.8-54-57.6-86.4-79.2-108-72-19.8 9-54-12.6-109.8-70.2-50.4-54-90-79.2-108-72-37.8 14.4-158.4-109.8-144-147.6 7.2-19.8-25.2-63-106.2-140.4-82.8-79.2-117-126-117-156.6 0-25.2-16.2-55.8-36-68.4-21.6-12.6-36-41.4-36-72s-14.4-57.6-37.8-73.8c-36-21.6-37.8-34.2-28.8-136.8 10.8-106.2 9-115.2-32.4-142.2-45-28.8-45-30.6-45-325.8s0-297 45-325.8c41.4-27 43.2-36 32.4-142.2-9-108-7.2-115.2 37.8-144 36-23.4 43.2-41.4 36-72-7.2-32.4 1.8-50.4 37.8-73.8 41.4-27 45-37.8 34.2-108-9-68.4-5.4-79.2 36-108 43.2-27 46.8-37.8 36-108-9-68.4-5.4-79.2 36-106.2 36-23.4 43.2-41.4 36-72-7.2-32.4 1.8-50.4 37.8-73.8 41.4-27 45-37.8 34.2-108-9-68.4-5.4-79.2 36-106.2 36-23.4 43.2-41.4 36-72-7.2-32.4 1.8-50.4 37.8-73.8 41.4-27 45-37.8 34.2-108-9-68.4-5.4-79.2 36-106.2 36-23.4 43.2-41.4 36-72-7.2-32.4 1.8-50.4 37.8-73.8 41.4-27 45-37.8 34.2-108-9-68.4-5.4-79.2 36-106.2 36-23.4 43.2-41.4 36-72-7.2-32.4 1.8-48.6 36-72 36-23.4 43.2-41.4 36-72-7.2-32.4 1.8-50.4 37.8-73.8s45-41.4 37.8-72c-7.2-28.8 1.8-46.8 36-68.4 41.4-27 43.2-39.6 34.2-109.8-10.8-70.2-9-81 34.2-109.8 43.2-27 46.8-37.8 36-108-9-68.4-5.4-79.2 36-108 43.2-27 46.8-37.8 36-108-9-68.4-5.4-79.2 36-106.2 36-23.4 43.2-41.4 36-72-7.2-32.4 1.8-48.6 36-72 36-23.4 43.2-41.4 36-72-7.2-32.4 1.8-48.6 36-72 36-23.4 43.2-41.4 36-72-7.2-32.4 1.8-50.4 37.8-73.8 41.4-27 46.8-37.8 34.2-102.6-10.8-68.4-7.2-75.6 70.2-147.6 61.2-55.8 81-84.6 73.8-113.4-7.2-25.2 1.8-45 36-66.6 34.2-23.4 43.2-41.4 36-70.2-7.2-30.6 9-55.8 72-109.8 63-52.2 79.2-77.4 72-108-7.2-28.8 9-54 72-108s81-79.2 72-106.2c-9-25.2 9-54 72-111.6 59.4-54 79.2-84.6 72-106.2-9-23.4 28.8-70.2 144-180 111.6-106.2 153-156.6 144-178.2-16.2-43.2 1688.4-1747.8 1731.6-1731.6 21.6 9 72-30.6 178.2-144 115.2-120.6 154.8-153 183.6-144 25.2 9 52.2-9 104.4-72 52.2-59.4 79.2-79.2 106.2-72s63-19.8 147.6-109.8c79.2-84.6 120.6-115.2 140.4-108s43.2-5.4 70.2-34.2c27-30.6 50.4-41.4 77.4-36 28.8 7.2 46.8-1.8 70.2-36s39.6-43.2 72-36c30.6 7.2 48.6 0 72-36 23.4-34.2 39.6-43.2 72-36 30.6 7.2 48.6 0 72-36 23.4-34.2 39.6-43.2 72-36 30.6 7.2 48.6 0 72-36 23.4-34.2 39.6-43.2 72-36 30.6 7.2 48.6 0 72-36 23.4-34.2 39.6-43.2 72-36 30.6 7.2 48.6 0 72-36 23.4-34.2 39.6-43.2 72-36 30.6 7.2 48.6 0 72-36 27-41.4 37.8-45 106.2-36 70.2 10.8 81 7.2 108-36 28.8-41.4 39.6-45 108-36 70.2 10.8 81 7.2 108-36 28.8-43.2 39.6-45 109.8-34.2 70.2 9 82.8 7.2 109.8-34.2 21.6-34.2 39.6-43.2 68.4-36 30.6 7.2 48.6-1.8 72-37.8s41.4-45 73.8-37.8c30.6 7.2 48.6 0 72-36 23.4-34.2 39.6-43.2 72-36 30.6 7.2 48.6 0 72-36 27-41.4 37.8-45 106.2-36 70.2 10.8 81 7.2 108-34.2 23.4-36 41.4-45 73.8-37.8 30.6 7.2 48.6 0 72-36 27-43.2 37.8-45 108-34.2 72 9 81 7.2 109.8-36 23.4-36 41.4-45 72-37.8 28.8 7.2 46.8-1.8 70.2-36 27-43.2 37.8-45 108-34.2 72 9 81 7.2 109.8-36 23.4-36 41.4-45 72-37.8 28.8 7.2 46.8-1.8 70.2-36 27-41.4 37.8-45 106.2-36 70.2 10.8 81 7.2 108-36 28.8-41.4 39.6-45 108-36 70.2 10.8 81 7.2 108-36 21.6-32.4 43.2-43.2 66.6-37.8 23.4 7.2 50.4-7.2 79.2-36 39.6-43.2 50.4-46.8 149.4-36 100.8 10.8 109.8 9 136.8-32.4 28.8-45 30.6-45 325.8-45s297 0 325.8 45m-1875.6 4104c-27 41.4-37.8 45-108 34.2-68.4-9-79.2-5.4-106.2 36-23.4 36-41.4 43.2-72 36-32.4-7.2-48.6 1.8-72 36-23.4 36-41.4 43.2-72 36-32.4-7.2-48.6 1.8-72 36s-41.4 43.2-70.2 36-54 10.8-109.8 73.8c-54 64.8-79.2 81-109.8 73.8-28.8-7.2-46.8 1.8-70.2 36-21.6 34.2-39.6 43.2-70.2 36-32.4-7.2-55.8 7.2-109.8 72-54 63-79.2 79.2-109.8 72-28.8-7.2-46.8 1.8-68.4 34.2-21.6 34.2-39.6 43.2-70.2 36-32.4-9-55.8 7.2-111.6 72-52.2 63-79.2 81-108 73.8s-61.2 16.2-144 108c-81 88.2-117 115.2-142.2 108-27-7.2-72 28.8-183.6 145.8-109.8 115.2-154.8 151.2-178.2 142.2-45-16.2-230.4 169.2-214.2 214.2 9 23.4-27 68.4-142.2 178.2-117 111.6-153 156.6-145.8 183.6 7.2 25.2-19.8 61.2-108 142.2-91.8 82.8-115.2 115.2-108 144s-10.8 54-72 108c-63 52.2-79.2 77.4-72 108 7.2 28.8-10.8 54-73.8 108-64.8 55.8-81 79.2-72 111.6 7.2 30.6-1.8 48.6-36 70.2-32.4 21.6-41.4 39.6-34.2 68.4 7.2 30.6-9 55.8-73.8 109.8-64.8 55.8-81 79.2-72 111.6 7.2 30.6-1.8 48.6-36 70.2s-41.4 39.6-34.2 70.2c7.2 32.4-1.8 48.6-36 72s-43.2 41.4-36 70.2c7.2 30.6-1.8 48.6-37.8 72s-45 41.4-37.8 73.8c7.2 30.6 0 48.6-36 72-41.4 27-45 37.8-36 106.2 10.8 70.2 7.2 81-34.2 108l-45 28.8v666l46.8 28.8c43.2 28.8 45 36 34.2 144-12.6 108-10.8 113.4 34.2 142.2 43.2 28.8 46.8 39.6 37.8 108-10.8 66.6-7.2 77.4 36 106.2s45 37.8 36 109.8c-10.8 70.2-9 81 34.2 108 36 23.4 43.2 41.4 36 72-7.2 32.4 1.8 48.6 36 72s43.2 41.4 36 70.2 10.8 54 73.8 109.8c64.8 54 81 79.2 73.8 109.8-7.2 28.8 1.8 46.8 36 68.4 32.4 23.4 41.4 39.6 32.4 68.4s12.6 59.4 109.8 149.4c84.6 79.2 118.8 122.4 111.6 142.2-16.2 41.4 1107 1162.8 1152 1152 23.4-7.2 64.8 25.2 140.4 108 81 90 115.2 115.2 144 108 27-7.2 61.2 18 144 108 82.8 91.8 115.2 115.2 144 108s54 10.8 108 72c52.2 63 77.4 79.2 108 72 28.8-7.2 54 9 108 72 52.2 63 77.4 79.2 108 72 28.8-7.2 54 10.8 108 73.8 55.8 64.8 79.2 81 111.6 72 30.6-7.2 48.6 1.8 70.2 36s39.6 43.2 66.6 34.2 54 7.2 113.4 72c54 59.4 84.6 79.2 106.2 72 23.4-9 52.2 10.8 108 72 54 57.6 86.4 79.2 106.2 72 41.4-16.2 307.8 250.2 291.6 291.6-7.2 19.8 12.6 52.2 70.2 102.6 55.8 50.4 81 86.4 81 118.8 0 28.8 16.2 55.8 37.8 70.2 32.4 19.8 37.8 36 28.8 97.2-7.2 59.4-1.8 77.4 34.2 109.8 39.6 34.2 43.2 48.6 43.2 221.4 0 174.6-1.8 183.6-45 212.4-27 18-45 46.8-45 73.8s18 55.8 45 73.8c43.2 28.8 45 37.8 45 212.4 0 172.8-3.6 187.2-43.2 221.4-36 32.4-41.4 50.4-34.2 109.8 9 61.2 3.6 77.4-28.8 97.2-21.6 14.4-37.8 41.4-37.8 70.2 0 32.4-25.2 68.4-81 118.8-57.6 50.4-77.4 82.8-70.2 102.6 16.2 41.4-250.2 307.8-291.6 291.6-19.8-7.2-52.2 14.4-106.2 72-55.8 61.2-84.6 81-108 72-21.6-7.2-52.2 12.6-106.2 72-59.4 64.8-86.4 81-113.4 72s-45 0-66.6 36c-23.4 34.2-41.4 43.2-72 36-32.4-7.2-55.8 7.2-109.8 72-54 63-79.2 79.2-108 72-30.6-7.2-55.8 9-108 72-54 63-79.2 79.2-108 72-30.6-7.2-55.8 9-108 72-54 61.2-79.2 79.2-108 72s-61.2 16.2-144 108c-82.8 90-117 115.2-144 108-28.8-7.2-63 18-144 108-75.6 82.8-117 115.2-140.4 108-45-10.8-1168.2 1110.6-1152 1152 7.2 19.8-27 63-111.6 142.2-97.2 90-118.8 120.6-109.8 149.4s0 45-32.4 68.4c-34.2 21.6-43.2 39.6-36 68.4 7.2 30.6-9 55.8-73.8 109.8-63 55.8-81 81-73.8 109.8s-1.8 46.8-36 70.2-43.2 39.6-36 72c7.2 30.6 0 48.6-36 72-43.2 27-45 37.8-34.2 108 9 72 7.2 81-36 109.8s-46.8 39.6-36 106.2c9 68.4 5.4 79.2-37.8 108-45 28.8-46.8 34.2-34.2 142.2 10.8 108 9 115.2-34.2 144l-46.8 28.8v666l45 28.8c41.4 27 45 37.8 34.2 108-9 68.4-5.4 79.2 36 106.2 36 23.4 43.2 41.4 36 72-7.2 32.4 1.8 48.6 36 72 36 23.4 43.2 41.4 36 72-7.2 32.4 1.8 48.6 36 72s43.2 41.4 36 70.2 10.8 54 73.8 109.8c64.8 54 81 79.2 73.8 109.8-7.2 28.8 1.8 46.8 36 70.2s43.2 39.6 36 72c-7.2 30.6 0 48.6 34.2 70.2s43.2 39.6 36 70.2c-9 32.4 7.2 55.8 72 111.6 63 54 81 79.2 73.8 108-7.2 30.6 9 55.8 72 108 61.2 54 79.2 79.2 72 108s16.2 61.2 108 144c88.2 81 115.2 117 108 144s27 70.2 145.8 181.8c115.2 111.6 151.2 154.8 142.2 178.2-16.2 45 169.2 230.4 214.2 214.2 23.4-9 68.4 27 178.2 142.2 111.6 117 156.6 153 183.6 145.8 25.2-7.2 61.2 19.8 142.2 108 82.8 91.8 115.2 115.2 144 108s55.8 10.8 108 73.8c55.8 64.8 79.2 81 111.6 72 30.6-7.2 48.6 1.8 70.2 36 21.6 32.4 39.6 41.4 68.4 34.2 30.6-7.2 55.8 9 109.8 72 54 64.8 77.4 79.2 109.8 72 30.6-7.2 48.6 1.8 70.2 36 23.4 34.2 41.4 43.2 70.2 36 30.6-7.2 55.8 9 109.8 73.8 55.8 63 81 81 109.8 73.8s46.8 1.8 70.2 36 39.6 43.2 72 36c30.6-7.2 48.6 0 72 36 23.4 34.2 39.6 43.2 72 36 30.6-7.2 48.6 0 72 36 27 41.4 37.8 45 106.2 36 70.2-10.8 81-7.2 108 34.2l28.8 45h666l28.8-46.8c28.8-43.2 36-45 144-34.2 108 12.6 113.4 10.8 144-36 28.8-43.2 39.6-46.8 106.2-36 68.4 9 79.2 5.4 106.2-36 28.8-43.2 37.8-45 109.8-36 70.2 10.8 81 9 108-34.2 23.4-36 41.4-43.2 72-36 32.4 7.2 48.6-1.8 72-36s41.4-43.2 70.2-36 54-10.8 109.8-73.8c54-63 79.2-81 108-73.8 30.6 7.2 55.8-9 108-72 54-63 79.2-79.2 108-72 30.6 7.2 55.8-9 108-70.2 48.6-57.6 77.4-79.2 100.8-72 45 14.4 1168.2-1108.8 1157.4-1155.6-7.2-23.4 27-64.8 108-140.4 90-81 115.2-115.2 108-144-7.2-27 18-61.2 108-144 91.8-82.8 115.2-115.2 108-144s10.8-54 72-108c63-52.2 79.2-77.4 72-108-7.2-28.8 9-54 72-108 63-52.2 79.2-77.4 72-108-7.2-28.8 9-54 72-108 64.8-54 79.2-77.4 72-109.8-7.2-30.6 1.8-48.6 36-72 36-21.6 45-39.6 36-66.6s7.2-54 72-113.4c59.4-54 79.2-84.6 72-106.2-9-23.4 10.8-52.2 72-108 57.6-54 79.2-86.4 72-106.2-16.2-41.4 250.2-307.8 291.6-291.6 19.8 7.2 52.2-12.6 102.6-70.2 50.4-55.8 86.4-81 118.8-81 28.8 0 55.8-16.2 70.2-37.8 19.8-32.4 36-37.8 97.2-28.8 59.4 7.2 77.4 1.8 109.8-34.2 34.2-39.6 48.6-43.2 221.4-43.2 174.6 0 183.6 1.8 212.4 45 39.6 59.4 108 59.4 147.6 0 28.8-43.2 37.8-45 212.4-45 172.8 0 187.2 3.6 221.4 43.2 32.4 36 50.4 41.4 109.8 34.2 61.2-9 77.4-3.6 97.2 28.8 14.4 21.6 41.4 37.8 70.2 37.8 32.4 0 68.4 25.2 118.8 81 50.4 57.6 82.8 77.4 102.6 70.2 41.4-16.2 307.8 250.2 291.6 291.6-7.2 19.8 14.4 52.2 72 106.2 61.2 55.8 81 84.6 72 108-7.2 21.6 12.6 52.2 72 106.2 64.8 59.4 81 86.4 72 113.4s0 45 36 66.6c34.2 23.4 43.2 41.4 36 72-7.2 32.4 7.2 55.8 72 109.8 63 54 79.2 79.2 72 108-7.2 30.6 9 55.8 72 108 63 54 79.2 79.2 72 108-7.2 30.6 9 55.8 72 108 61.2 54 79.2 79.2 72 108s16.2 61.2 108 144c90 82.8 115.2 117 108 144-7.2 28.8 18 63 108 144 82.8 75.6 115.2 117 108 140.4-10.8 46.8 1112.4 1170 1157.4 1155.6 23.4-7.2 52.2 14.4 100.8 72 52.2 61.2 77.4 77.4 108 70.2 28.8-7.2 54 9 108 72 52.2 63 77.4 79.2 108 72 28.8-7.2 54 10.8 108 73.8 55.8 63 81 81 109.8 73.8s46.8 1.8 70.2 36 39.6 43.2 72 36c30.6-7.2 48.6 0 72 36 27 43.2 37.8 45 108 34.2 72-9 81-7.2 109.8 36 27 41.4 37.8 45 106.2 36 66.6-10.8 77.4-7.2 106.2 36 30.6 46.8 36 48.6 144 36 108-10.8 115.2-9 144 34.2l28.8 46.8h666l28.8-45c27-41.4 37.8-45 108-34.2 68.4 9 79.2 5.4 106.2-36 23.4-34.2 41.4-43.2 70.2-36 30.6 7.2 48.6-1.8 72-37.8s41.4-45 73.8-37.8c30.6 7.2 48.6 0 72-36 23.4-34.2 39.6-43.2 72-36 30.6 7.2 48.6 0 70.2-34.2s39.6-43.2 70.2-36c32.4 9 55.8-7.2 111.6-72 54-64.8 79.2-81 109.8-73.8 28.8 7.2 46.8-1.8 68.4-34.2 21.6-34.2 39.6-43.2 70.2-36 32.4 9 55.8-7.2 111.6-72 54-63 79.2-81 108-73.8 30.6 7.2 55.8-9 108-72 54-61.2 79.2-79.2 108-72s61.2-16.2 144-108c81-88.2 117-115.2 142.2-108 27 7.2 72-28.8 181.8-144s153-149.4 176.4-140.4c45 16.2 234-172.8 217.8-217.8-9-23.4 27-68.4 142.2-178.2 117-111.6 153-156.6 145.8-183.6-7.2-25.2 19.8-61.2 108-142.2 91.8-82.8 115.2-115.2 108-144s10.8-55.8 73.8-108c64.8-55.8 81-79.2 72-111.6-7.2-30.6 1.8-48.6 36-70.2 32.4-21.6 41.4-39.6 34.2-68.4-7.2-30.6 9-55.8 72-109.8 64.8-54 79.2-77.4 72-109.8-7.2-30.6 1.8-48.6 36-70.2 34.2-23.4 43.2-41.4 36-70.2-7.2-30.6 9-55.8 73.8-109.8 63-55.8 81-81 73.8-109.8s1.8-46.8 36-70.2 43.2-39.6 36-72c-7.2-30.6 0-48.6 36-72 34.2-23.4 43.2-39.6 36-72-7.2-30.6 0-48.6 36-72 41.4-27 45-37.8 36-106.2-10.8-70.2-7.2-81 34.2-108l45-28.8v-666l-46.8-28.8c-43.2-28.8-45-36-34.2-144 12.6-108 10.8-113.4-34.2-142.2-43.2-28.8-46.8-39.6-37.8-108 10.8-66.6 7.2-77.4-36-106.2s-45-37.8-36-109.8c10.8-70.2 9-81-34.2-108-36-23.4-43.2-41.4-36-72 7.2-32.4-1.8-48.6-36-72s-43.2-41.4-36-70.2-10.8-54-73.8-109.8c-63-54-81-79.2-73.8-108 7.2-30.6-9-55.8-72-108-63-54-79.2-79.2-72-108 7.2-30.6-9-55.8-70.2-108-57.6-48.6-79.2-77.4-72-100.8 14.4-45-1112.4-1171.8-1153.8-1155.6-19.8 7.2-73.8-36-176.4-144-113.4-118.8-156.6-153-183.6-145.8s-54-10.8-106.2-72c-52.2-63-77.4-79.2-108-72-28.8 7.2-54-9-108-72-52.2-63-77.4-79.2-108-72-28.8 7.2-54-9-108-72-52.2-63-77.4-79.2-108-72-28.8 7.2-54-10.8-108-73.8-55.8-64.8-79.2-81-111.6-72-30.6 7.2-48.6-1.8-70.2-36s-39.6-43.2-66.6-34.2-54-7.2-113.4-72c-54-59.4-84.6-79.2-106.2-72-23.4 9-52.2-10.8-108-72-54-57.6-86.4-79.2-106.2-72-41.4 16.2-307.8-250.2-291.6-291.6 7.2-19.8-12.6-52.2-70.2-102.6-55.8-50.4-81-86.4-81-118.8 0-28.8-16.2-55.8-37.8-70.2-32.4-19.8-37.8-36-28.8-97.2 7.2-59.4 1.8-77.4-34.2-109.8-39.6-34.2-43.2-48.6-43.2-221.4 0-174.6 1.8-183.6 45-212.4 27-18 45-46.8 45-73.8s-18-55.8-45-73.8c-43.2-28.8-45-37.8-45-212.4 0-172.8 3.6-187.2 43.2-221.4 36-32.4 41.4-50.4 34.2-109.8-9-61.2-3.6-77.4 28.8-97.2 21.6-14.4 37.8-41.4 37.8-70.2 0-32.4 25.2-68.4 81-118.8 57.6-50.4 77.4-82.8 70.2-102.6-16.2-41.4 250.2-307.8 291.6-291.6 19.8 7.2 52.2-14.4 106.2-72 55.8-61.2 84.6-81 108-72 21.6 7.2 52.2-12.6 106.2-72 59.4-64.8 86.4-81 113.4-72s45 0 66.6-34.2 39.6-43.2 70.2-36c32.4 9 55.8-7.2 111.6-72 54-63 79.2-81 108-73.8 30.6 7.2 55.8-9 108-72 54-63 79.2-79.2 108-72 30.6 7.2 55.8-9 108-72 54-63 79.2-79.2 108-72 30.6 7.2 55.8-9 108-72 52.2-61.2 79.2-79.2 106.2-72 28.8 7.2 70.2-25.2 183.6-145.8 104.4-108 156.6-151.2 176.4-144 41.4 16.2 1168.2-1112.4 1153.8-1155.6-7.2-23.4 14.4-52.2 72-100.8 61.2-52.2 77.4-77.4 70.2-108-7.2-28.8 9-54 72-108 63-52.2 79.2-77.4 72-108-7.2-28.8 10.8-54 73.8-108 63-55.8 81-81 73.8-109.8s1.8-46.8 36-70.2 43.2-39.6 36-72c-7.2-30.6 0-48.6 36-72 43.2-27 45-37.8 34.2-108-9-72-7.2-81 36-109.8s46.8-39.6 36-106.2c-9-68.4-5.4-79.2 37.8-108 45-28.8 46.8-34.2 34.2-142.2-10.8-108-9-115.2 34.2-144l46.8-28.8v-666l-45-28.8c-41.4-27-45-37.8-34.2-108 9-68.4 5.4-79.2-36-106.2-36-23.4-43.2-41.4-36-72 7.2-32.4-1.8-48.6-36-72-36-23.4-43.2-41.4-36-72 7.2-32.4-1.8-48.6-36-72s-43.2-41.4-36-70.2-10.8-54-73.8-109.8c-64.8-54-81-79.2-73.8-109.8 7.2-28.8-1.8-46.8-36-70.2s-43.2-39.6-36-72c7.2-30.6 0-48.6-34.2-70.2s-43.2-39.6-36-70.2c9-32.4-7.2-55.8-72-111.6-63-54-81-79.2-73.8-108 7.2-30.6-9-55.8-72-108-61.2-54-79.2-79.2-72-108s-16.2-61.2-108-144c-88.2-81-115.2-117-108-142.2 7.2-27-28.8-72-144-181.8s-149.4-153-140.4-176.4c16.2-45-176.4-237.6-221.4-221.4-23.4 9-66.6-25.2-176.4-140.4s-154.8-151.2-181.8-144c-25.2 7.2-61.2-19.8-142.2-108-82.8-91.8-115.2-115.2-144-108s-54-10.8-108-72c-52.2-63-77.4-79.2-108-72-28.8 7.2-54-10.8-108-73.8-55.8-64.8-79.2-81-111.6-72-30.6 7.2-48.6-1.8-70.2-36-21.6-32.4-39.6-41.4-68.4-34.2-30.6 7.2-55.8-9-109.8-73.8-55.8-64.8-79.2-81-111.6-72-30.6 7.2-48.6-1.8-70.2-36s-39.6-41.4-70.2-34.2c-32.4 7.2-48.6-1.8-72-36s-41.4-43.2-70.2-36c-30.6 7.2-48.6-1.8-72-37.8s-41.4-45-73.8-37.8c-30.6 7.2-48.6 0-72-36-27-41.4-37.8-45-106.2-36-70.2 10.8-81 7.2-108-34.2l-28.8-45h-666l-28.8 46.8c-28.8 43.2-36 45-144 34.2-108-12.6-113.4-10.8-144 36-28.8 43.2-39.6 46.8-106.2 36-68.4-9-79.2-5.4-106.2 36-28.8 43.2-37.8 45-109.8 36-70.2-10.8-81-9-108 34.2-23.4 36-41.4 43.2-72 36-32.4-7.2-48.6 1.8-72 36s-41.4 43.2-70.2 36-54 10.8-109.8 73.8c-54 64.8-79.2 81-109.8 73.8-28.8-7.2-46.8 1.8-68.4 36-23.4 32.4-39.6 41.4-68.4 32.4s-59.4 12.6-149.4 109.8c-79.2 84.6-122.4 118.8-142.2 111.6-41.4-16.2-1162.8 1107-1152 1152 7.2 23.4-25.2 64.8-108 140.4-90 81-115.2 115.2-108 144 7.2 27-18 61.2-108 144-91.8 82.8-115.2 115.2-108 144s-10.8 54-72 108c-63 52.2-79.2 77.4-72 108 7.2 28.8-9 54-72 108-63 52.2-79.2 77.4-72 108 7.2 28.8-9 54-72 108-64.8 54-79.2 77.4-72 109.8 7.2 30.6-1.8 48.6-36 72-36 21.6-45 39.6-36 66.6s-7.2 54-72 113.4c-59.4 54-79.2 84.6-72 106.2 9 23.4-10.8 52.2-72 108-57.6 54-79.2 86.4-72 106.2 16.2 41.4-250.2 307.8-291.6 291.6-19.8-7.2-52.2 12.6-102.6 70.2-50.4 55.8-86.4 81-118.8 81-28.8 0-55.8 16.2-70.2 37.8-19.8 32.4-36 37.8-97.2 28.8-59.4-7.2-77.4-1.8-109.8 34.2-34.2 39.6-48.6 43.2-221.4 43.2-174.6 0-183.6-1.8-212.4-45-18-27-46.8-45-73.8-45s-55.8 18-73.8 45c-28.8 43.2-37.8 45-212.4 45-172.8 0-187.2-3.6-221.4-43.2-32.4-36-50.4-41.4-109.8-34.2-61.2 9-77.4 3.6-97.2-28.8-14.4-21.6-41.4-37.8-70.2-37.8-32.4 0-68.4-25.2-118.8-81-50.4-57.6-82.8-77.4-102.6-70.2-41.4 16.2-307.8-250.2-291.6-291.6 7.2-19.8-14.4-52.2-72-106.2-61.2-55.8-81-84.6-72-108 7.2-21.6-12.6-52.2-72-106.2-64.8-59.4-81-86.4-72-113.4s0-45-34.2-66.6-43.2-39.6-36-70.2c9-32.4-7.2-55.8-72-111.6-63-54-81-79.2-73.8-108 7.2-30.6-9-55.8-72-108-63-54-79.2-79.2-72-108 7.2-30.6-9-55.8-72-108-61.2-54-79.2-79.2-72-108s-16.2-61.2-108-144c-90-82.8-115.2-117-108-144 7.2-28.8-18-63-108-144-81-75.6-115.2-117-108-140.4 10.8-46.8-1112.4-1170-1157.4-1155.6-23.4 7.2-52.2-14.4-100.8-72-52.2-61.2-77.4-77.4-108-70.2-28.8 7.2-54-9-108-72-52.2-63-77.4-79.2-108-72-28.8 7.2-54-10.8-108-73.8-55.8-63-81-81-109.8-73.8s-46.8-1.8-70.2-36-39.6-43.2-72-36c-30.6 7.2-48.6 0-72-36-27-43.2-37.8-45-108-34.2-72 9-81 7.2-109.8-36-27-41.4-37.8-45-106.2-36-66.6 10.8-77.4 7.2-106.2-36-30.6-46.8-36-48.6-144-36-108 10.8-115.2 9-144-34.2l-28.8-46.8h-666zm729 937.8c34.2 39.6 48.6 43.2 142.2 34.2 95.4-9 108-5.4 144 36 34.2 37.8 50.4 43.2 108 34.2 55.8-9 72-3.6 106.2 36 25.2 28.8 50.4 41.4 70.2 34.2 18-7.2 45 7.2 72 36s54 43.2 72 36 55.8 18 108 72 90 79.2 108 72 55.8 19.8 108 72c50.4 52.2 90 79.2 106.2 72 37.8-14.4 1170 1116 1155.6 1153.8-7.2 19.8 28.8 66.6 106.2 140.4 79.2 77.4 115.2 124.2 108 145.8-5.4 19.8 19.8 59.4 73.8 111.6 54 50.4 79.2 88.2 72 106.2s18 55.8 72 108 79.2 90 72 108 16.2 55.8 68.4 104.4c48.6 46.8 81 93.6 81 118.8 0 23.4 28.8 66.6 73.8 106.2 48.6 45 70.2 77.4 64.8 99-7.2 21.6 16.2 59.4 72 113.4 52.2 50.4 79.2 88.2 72 106.2s39.6 75.6 142.2 176.4c104.4 102.6 151.2 158.4 145.8 180-12.6 43.2 320.4 376.2 358.2 361.8 18-7.2 57.6 19.8 108 72 52.2 54 90 79.2 108 72s55.8 19.8 109.8 73.8c54 55.8 91.8 81 111.6 73.8 19.8-5.4 46.8 7.2 70.2 36 34.2 39.6 50.4 43.2 109.8 34.2 57.6-9 73.8-5.4 97.2 28.8l27 39.6h624.6c622.8 0 624.6 0 651.6-39.6 23.4-34.2 39.6-37.8 97.2-28.8 59.4 9 75.6 5.4 109.8-34.2 23.4-28.8 50.4-41.4 70.2-36 19.8 7.2 57.6-18 111.6-73.8 54-54 91.8-81 109.8-73.8s55.8-18 108-72c50.4-52.2 90-79.2 108-72 37.8 14.4 370.8-318.6 360-361.8-5.4-19.8 41.4-79.2 144-180 104.4-100.8 149.4-156.6 142.2-176.4-7.2-18 18-55.8 72-106.2 57.6-57.6 79.2-90 72-115.2-5.4-23.4 3.6-43.2 28.8-59.4 23.4-14.4 37.8-41.4 37.8-70.2 0-32.4 23.4-68.4 72-113.4 43.2-39.6 72-81 72-104.4 0-25.2 32.4-72 81-118.8 52.2-48.6 75.6-86.4 68.4-104.4s18-55.8 72-106.2c54-52.2 79.2-91.8 73.8-111.6-7.2-21.6 28.8-68.4 108-144 79.2-77.4 113.4-122.4 108-144-7.2-23.4 46.8-86.4 180-217.8 131.4-127.8 185.4-192.6 178.2-212.4-14.4-39.6 387-444.6 430.2-432 23.4 5.4 100.8-61.2 257.4-217.8 151.2-153 232.2-223.2 252-216 16.2 7.2 45-7.2 70.2-36 27-28.8 54-43.2 72-36s55.8-18 108-72 90-79.2 108-72 45-7.2 72-36 54-43.2 72-36c19.8 7.2 45-5.4 70.2-34.2 34.2-39.6 50.4-45 106.2-36 57.6 9 73.8 3.6 108-34.2 36-41.4 48.6-45 144-36 93.6 9 108 5.4 142.2-34.2 36-41.4 43.2-43.2 331.2-43.2s295.2 1.8 331.2 43.2c32.4 36 48.6 41.4 106.2 32.4 55.8-9 72-3.6 106.2 36 25.2 28.8 50.4 41.4 70.2 34.2 18-7.2 45 7.2 72 36s54 43.2 72 36 45 7.2 72 36 54 43.2 72 36 45 7.2 72 36 54 43.2 72 36 55.8 18 108 72 90 79.2 108 72 55.8 19.8 108 72c52.2 54 90 79.2 108 72s55.8 19.8 108 72c50.4 52.2 90 79.2 108 72s88.2 52.2 214.2 180c131.4 131.4 198 187.2 221.4 181.8 41.4-10.8 156.6 106.2 142.2 144-7.2 19.8 48.6 86.4 178.2 212.4 133.2 129.6 187.2 194.4 180 217.8-5.4 19.8 21.6 59.4 73.8 111.6 54 50.4 79.2 88.2 72 106.2s16.2 55.8 68.4 104.4c54 52.2 81 91.8 81 122.4 0 27 16.2 55.8 37.8 68.4 25.2 16.2 34.2 36 28.8 59.4-7.2 25.2 12.6 57.6 70.2 111.6 55.8 54 79.2 90 79.2 124.2 0 28.8 7.2 50.4 18 50.4 39.6 0 52.2 165.6 52.2 707.4 0 547.2-1.8 572.4-34.2 594-21.6 12.6-36 41.4-36 70.2 0 30.6-14.4 59.4-36 72-21.6 14.4-36 43.2-36 72 0 30.6-14.4 59.4-36 72-19.8 12.6-36 43.2-36 68.4 0 30.6-27 70.2-79.2 120.6s-77.4 86.4-72 108c5.4 23.4-37.8 77.4-144 181.8-106.2 102.6-149.4 156.6-142.2 176.4 14.4 41.4-675 732.6-720 720-21.6-5.4-77.4 39.6-180 144-102.6 106.2-156.6 149.4-180 144-19.8-5.4-59.4 21.6-111.6 73.8-50.4 54-88.2 79.2-106.2 72-19.8-7.2-64.8 27-140.4 104.4-81 84.6-124.2 117-158.4 117-27 0-55.8 16.2-68.4 37.8-16.2 25.2-36 34.2-59.4 28.8-25.2-7.2-57.6 14.4-115.2 72-50.4 54-88.2 79.2-106.2 72s-55.8 18-108 72c-52.2 52.2-90 79.2-108 72s-55.8 18-108 72c-50.4 50.4-90 77.4-106.2 72-39.6-14.4-658.8 608.4-648 651.6 5.4 19.8-18 54-64.8 97.2-48.6 43.2-73.8 81-73.8 111.6 0 25.2-16.2 54-36 66.6s-36 43.2-36 68.4c0 30.6-27 70.2-79.2 120.6-73.8 70.2-79.2 81-70.2 147.6 9 59.4 3.6 75.6-28.8 95.4-37.8 23.4-37.8 28.8-37.8 725.4s0 702 37.8 725.4c32.4 19.8 37.8 36 28.8 95.4-7.2 61.2-1.8 79.2 36 115.2 28.8 25.2 43.2 52.2 36 70.2s16.2 54 68.4 104.4c54 52.2 81 91.8 81 122.4 0 27 16.2 55.8 37.8 68.4 25.2 16.2 34.2 36 28.8 59.4-7.2 27 21.6 64.8 106.2 147.6 79.2 73.8 115.2 122.4 108 142.2-10.8 43.2 322.2 376.2 360 361.8 18-5.4 68.4 32.4 144 108 77.4 79.2 126 115.2 144 108s55.8 19.8 108 72c52.2 54 90 79.2 108 72s55.8 19.8 108 72c52.2 54 90 79.2 108 72s55.8 19.8 108 72c52.2 54 90 79.2 108 72s55.8 19.8 108 72c52.2 54 90 79.2 108 72s55.8 19.8 108 72c50.4 54 90 79.2 108 72s66.6 30.6 144 108c73.8 75.6 126 115.2 142.2 108 37.8-14.4 1170 1116 1155.6 1153.8-7.2 18 16.2 55.8 68.4 104.4 54 52.2 81 91.8 81 122.4 0 25.2 16.2 55.8 36 68.4 21.6 12.6 36 41.4 36 72 0 28.8 14.4 57.6 36 72 21.6 12.6 36 41.4 36 72 0 28.8 14.4 57.6 36 70.2 32.4 21.6 34.2 46.8 34.2 608.4 0 540-3.6 586.8-32.4 606.6-19.8 14.4-37.8 59.4-45 109.8-10.8 64.8-30.6 102.6-82.8 158.4-45 46.8-64.8 82.8-59.4 106.2 5.4 21.6-5.4 41.4-28.8 57.6-23.4 14.4-37.8 41.4-37.8 70.2 0 32.4-23.4 68.4-72 113.4-45 39.6-72 81-72 106.2 0 27-39.6 79.2-117 153s-111.6 120.6-104.4 140.4c7.2 18-30.6 66.6-108 144-79.2 77.4-115.2 126-108 144 14.4 39.6-459 514.8-504 504-19.8-5.4-68.4 30.6-147.6 109.8-75.6 77.4-124.2 115.2-142.2 108s-57.6 18-108 72c-52.2 52.2-90 79.2-108 72s-55.8 18-108 72-90 79.2-108 72-45 7.2-72 36-54 43.2-72 36-54 16.2-104.4 68.4c-52.2 54-91.8 81-122.4 81-25.2 0-55.8 16.2-68.4 36-12.6 21.6-41.4 36-72 36s-57.6 14.4-72 37.8c-19.8 32.4-36 37.8-95.4 28.8-68.4-9-124.2 18-124.2 61.2 0 9-129.6 16.2-304.2 16.2-295.2 0-306-1.8-333-39.6-25.2-36-41.4-39.6-145.8-36-100.8 5.4-118.8 1.8-138.6-30.6-14.4-23.4-41.4-37.8-70.2-37.8-25.2 0-61.2-18-84.6-43.2-30.6-37.8-48.6-43.2-102.6-34.2-59.4 9-72 3.6-144-72-57.6-57.6-90-79.2-115.2-72-23.4 5.4-43.2-3.6-59.4-28.8-12.6-21.6-41.4-37.8-68.4-37.8-34.2 0-77.4-32.4-158.4-117-75.6-77.4-120.6-111.6-140.4-104.4-39.6 14.4-946.8-891-936-936 5.4-21.6-41.4-77.4-144-180-106.2-102.6-151.2-156.6-144-180 5.4-19.8-19.8-59.4-73.8-111.6-54-50.4-79.2-88.2-72-106.2s-18-55.8-72-108-79.2-90-72-108-16.2-55.8-68.4-104.4c-48.6-46.8-81-93.6-81-118.8 0-23.4-28.8-64.8-72-104.4-45-41.4-72-81-72-108s-27-66.6-72-108-72-81-72-108-27-66.6-73.8-109.8-70.2-77.4-64.8-97.2c12.6-45-532.8-592.2-577.8-579.6-19.8 5.4-68.4-32.4-144-109.8-75.6-81-120.6-113.4-140.4-106.2-18 7.2-45-7.2-72-36s-54-43.2-72-36-45-7.2-70.2-36c-36-37.8-54-43.2-113.4-36-57.6 7.2-75.6 1.8-97.2-28.8-27-39.6-34.2-39.6-653.4-39.6s-626.4 0-653.4 39.6c-21.6 30.6-39.6 36-97.2 28.8-59.4-7.2-77.4-1.8-113.4 36-25.2 28.8-52.2 43.2-70.2 36s-45 7.2-72 36-54 43.2-72 36-55.8 18-108 72c-50.4 50.4-90 77.4-106.2 72-39.6-14.4-725.4 675-718.2 721.8 3.6 21.6-21.6 59.4-68.4 99-43.2 39.6-72 82.8-72 106.2 0 25.2-32.4 72-81 118.8-52.2 48.6-75.6 86.4-68.4 104.4s-18 55.8-72 108-79.2 90-72 108-19.8 55.8-72 108c-54 52.2-79.2 90-72 108s-19.8 55.8-72 108c-54 50.4-79.2 90-72 108s-30.6 66.6-108 142.2c-79.2 79.2-115.2 127.8-109.8 147.6 5.4 23.4-39.6 79.2-144 180-104.4 102.6-149.4 158.4-144 180 10.8 45-678.6 734.4-720 720-18-7.2-66.6 27-144 108-77.4 77.4-126 115.2-144 108s-57.6 18-108 72c-52.2 54-90 79.2-108 72s-45 7.2-72 36-54 43.2-72 36-45 7.2-72 36-54 43.2-72 36c-19.8-7.2-43.2 5.4-68.4 32.4-23.4 27-57.6 45-84.6 45-28.8 0-55.8 14.4-70.2 37.8-19.8 32.4-37.8 36-138.6 30.6-104.4-3.6-120.6 0-145.8 36-27 37.8-37.8 39.6-320.4 39.6-286.2 0-293.4 0-329.4-43.2-32.4-36-50.4-41.4-109.8-34.2-61.2 9-77.4 3.6-97.2-28.8-14.4-23.4-41.4-37.8-72-37.8s-59.4-14.4-72-36c-12.6-19.8-43.2-36-68.4-36-30.6 0-70.2-27-122.4-81-50.4-52.2-86.4-75.6-104.4-68.4s-45-7.2-72-36-54-43.2-72-36-55.8-18-108-72-90-79.2-108-72-55.8-19.8-108-72c-52.2-54-90-79.2-108-72s-55.8-19.8-108-72c-50.4-52.2-90-79.2-108-72-37.8 14.4-802.8-748.8-792-792 5.4-19.8-21.6-59.4-73.8-111.6-54-50.4-79.2-88.2-72-106.2s-16.2-55.8-68.4-104.4c-48.6-46.8-81-93.6-81-118.8 0-23.4-28.8-64.8-72-104.4-48.6-45-72-81-72-113.4 0-27-14.4-55.8-36-70.2-21.6-12.6-36-41.4-36-72s-14.4-57.6-37.8-72c-25.2-16.2-34.2-36-28.8-59.4s-10.8-54-52.2-95.4c-32.4-32.4-68.4-81-77.4-104.4-9-25.2-18-259.2-18-520.2 0-451.8 12.6-592.2 54-592.2 9 0 16.2-23.4 16.2-54 0-34.2 12.6-61.2 36-75.6 21.6-14.4 36-43.2 36-72 0-30.6 14.4-59.4 36-72 19.8-12.6 36-43.2 36-68.4 0-30.6 27-70.2 79.2-120.6s77.4-86.4 72-108c-5.4-23.4 37.8-77.4 144-181.8 106.2-102.6 149.4-156.6 142.2-176.4-14.4-39.6 459-516.6 502.2-504 23.4 5.4 91.8-52.2 221.4-181.8 124.2-126 196.2-185.4 214.2-180 18 7.2 68.4-30.6 144-108 77.4-77.4 126-115.2 144-108s57.6-18 108-72c52.2-52.2 90-79.2 108-72s55.8-18 108-72c52.2-52.2 90-79.2 108-72s55.8-18 108-72c52.2-52.2 90-79.2 108-72s55.8-18 108-72c52.2-52.2 90-79.2 108-72s55.8-18 108-72 90-79.2 108-72c19.8 7.2 75.6-37.8 176.4-142.2 102.6-104.4 160.2-149.4 180-144 41.4 9 160.2-106.2 145.8-144-14.4-39.6 28.8-79.2 86.4-79.2 45 0 52.2-7.2 52.2-50.4 0-34.2 23.4-70.2 79.2-124.2 54-52.2 77.4-86.4 70.2-109.8-5.4-23.4 16.2-54 64.8-99 48.6-43.2 73.8-81 73.8-111.6 0-25.2 16.2-54 36-66.6 21.6-14.4 36-43.2 36-72 0-30.6 14.4-59.4 36-72 23.4-14.4 36-43.2 36-75.6 0-28.8 16.2-86.4 34.2-126 18-41.4 39.6-104.4 45-140.4 7.2-37.8 23.4-79.2 37.8-93.6 39.6-39.6 39.6-1116 0-1155.6-14.4-14.4-30.6-55.8-37.8-93.6-5.4-36-27-99-45-140.4-18-39.6-34.2-97.2-34.2-126 0-32.4-12.6-61.2-36-75.6-21.6-12.6-36-41.4-36-72s-14.4-57.6-37.8-72c-25.2-16.2-34.2-36-28.8-59.4 7.2-27-21.6-64.8-106.2-147.6-77.4-73.8-115.2-122.4-109.8-142.2 12.6-43.2-462.6-518.4-505.8-505.8-19.8 5.4-68.4-32.4-144-109.8-75.6-79.2-120.6-113.4-140.4-106.2-18 7.2-55.8-18-106.2-72-57.6-57.6-90-79.2-115.2-72-23.4 5.4-43.2-3.6-59.4-28.8-12.6-21.6-41.4-37.8-68.4-37.8-30.6 0-70.2-27-122.4-81-48.6-52.2-86.4-75.6-104.4-68.4s-55.8-18-106.2-72c-52.2-54-91.8-79.2-111.6-73.8-21.6 7.2-68.4-28.8-144-108-77.4-79.2-122.4-113.4-144-108-21.6 7.2-68.4-27-144-108-75.6-77.4-122.4-113.4-144-108-45 10.8-1022.4-968.4-1008-1008 7.2-18-18-55.8-72-108s-79.2-90-72-108-16.2-55.8-68.4-104.4c-54-52.2-81-91.8-81-122.4 0-25.2-16.2-55.8-36-68.4-21.6-12.6-36-41.4-36-72 0-28.8-14.4-57.6-36-72-23.4-14.4-36-41.4-36-75.6 0-30.6-7.2-54-16.2-54-41.4 0-54-142.2-54-592.2 0-261 9-493.2 18-518.4s45-73.8 77.4-106.2c41.4-41.4 57.6-72 52.2-95.4s3.6-43.2 28.8-59.4c23.4-14.4 37.8-41.4 37.8-72s14.4-59.4 36-72c21.6-14.4 36-43.2 36-70.2 0-32.4 23.4-68.4 72-113.4 45-41.4 72-81 72-108s27-66.6 72-108c43.2-39.6 72-81 72-104.4 0-28.8 59.4-100.8 189-226.8 122.4-120.6 183.6-194.4 176.4-210.6-14.4-39.6 316.8-372.6 360-361.8 19.8 5.4 68.4-30.6 147.6-109.8 75.6-77.4 124.2-115.2 142.2-108s57.6-18 108-72c52.2-52.2 90-79.2 108-72s55.8-18 108-72 90-79.2 108-72 45-7.2 72-36 54-43.2 72-36 55.8-18 108-72 90-79.2 108-72 45-7.2 72-36 54-43.2 72-36 45-7.2 72-36 54-43.2 72-36c19.8 7.2 45-5.4 70.2-34.2 34.2-39.6 50.4-45 106.2-36 57.6 9 73.8 3.6 106.2-32.4 36-41.4 45-41.4 329.4-43.2 289.8-1.8 295.2 0 333 43.2"/>
</svg>
