<?xml version="1.0" standalone="no"?>
<!DOCTYPE svg PUBLIC "-//W3C//DTD SVG 20010904//EN"
 "http://www.w3.org/TR/2001/REC-SVG-20010904/DTD/svg10.dtd">
<svg version="1.0" xmlns="http://www.w3.org/2000/svg"
 width="36864.000000pt" height="36864.000000pt" viewBox="0 0 36864.000000 36864.000000"
 preserveAspectRatio="xMidYMid meet">
<metadata>
Created by potrace 1.16, written by Peter Selinger 2001-2019
</metadata>
<g transform="translate(-6158.992421,43018.075684) scale(9.605926,-9.604491)"
fill="#000000" stroke="none">
<path d="M1840 4456 c-36 -13 -105 -40 -155 -61 -49 -21 -118 -48 -152 -61
-181 -68 -293 -146 -464 -321 -153 -157 -218 -254 -283 -425 -13 -34 -49 -125
-80 -201 -63 -156 -71 -189 -62 -251 13 -83 94 -170 171 -183 29 -5 41 -16 85
-84 56 -86 146 -188 227 -259 28 -25 51 -47 51 -50 0 -3 -23 -25 -51 -49 -76
-65 -171 -174 -228 -262 -43 -66 -55 -77 -84 -82 -77 -13 -158 -100 -171 -183
-9 -62 -1 -95 62 -251 31 -76 67 -166 80 -200 64 -170 131 -271 283 -426 169
-173 284 -253 461 -320 36 -14 127 -50 203 -81 76 -30 153 -58 172 -62 93 -17
193 31 238 115 15 27 27 58 27 70 0 15 14 30 46 49 92 54 196 141 296 249 l47
51 49 -51 c89 -94 174 -168 258 -224 70 -47 82 -59 87 -88 13 -77 100 -158
183 -171 62 -9 97 0 252 63 75 31 166 67 202 80 176 66 292 147 461 320 152
156 220 257 283 426 13 34 48 124 79 199 63 155 72 190 63 252 -13 84 -94 170
-171 183 -29 5 -41 15 -74 68 -51 80 -119 161 -213 253 l-75 74 50 46 c107
100 195 204 248 294 22 37 33 46 62 51 79 13 160 99 173 183 9 62 0 97 -63
252 -31 75 -66 165 -79 199 -63 169 -131 270 -283 426 -169 173 -284 253 -461
320 -36 14 -127 50 -203 81 -156 63 -189 71 -251 62 -83 -13 -170 -94 -183
-171 -5 -29 -17 -41 -87 -88 -85 -57 -178 -137 -259 -224 l-48 -52 -50 55
c-78 86 -174 169 -259 224 -67 44 -78 56 -83 85 -11 68 -84 145 -157 165 -54
15 -99 11 -170 -14z m39 -565 c142 -44 292 -182 434 -398 108 -164 127 -178
247 -178 120 0 139 14 247 178 143 217 291 354 432 397 96 30 137 27 228 -20
182 -94 305 -216 401 -400 48 -94 53 -134 23 -229 -44 -142 -186 -296 -400
-436 -162 -105 -176 -125 -176 -245 0 -120 14 -140 176 -245 277 -181 435
-393 417 -560 -6 -52 -71 -171 -151 -277 -89 -119 -319 -268 -412 -268 -169 0
-362 149 -538 417 -108 164 -127 178 -247 178 -120 0 -139 -14 -247 -177 -184
-280 -391 -434 -558 -416 -53 6 -174 72 -280 154 -118 89 -265 317 -265 408 0
171 148 362 417 539 164 108 178 127 178 247 0 120 -14 139 -178 247 -217 143
-354 291 -397 432 -30 95 -26 137 19 225 80 155 163 253 282 332 175 116 232
131 348 95z"/>
</g>
</svg>
