<?xml version="1.0" standalone="no"?>
<!DOCTYPE svg PUBLIC "-//W3C//DTD SVG 20010904//EN"
 "http://www.w3.org/TR/2001/REC-SVG-20010904/DTD/svg10.dtd">
<svg version="1.0" xmlns="http://www.w3.org/2000/svg"
 width="36864.000000pt" height="36864.000000pt" viewBox="0 0 36864.000000 36864.000000"
 preserveAspectRatio="xMidYMid meet">
<metadata>
Created by potrace 1.16, written by Peter Selinger 2001-2019
</metadata>
<g transform="translate(0.000000,36864.000000) scale(1.800000,-1.800000)"
fill="#000000" stroke="none">
<path d="M7502 18319 c-11 -18 -21 -20 -77 -17 -58 2 -67 0 -81 -21 -14 -20
-23 -22 -56 -18 -33 4 -43 1 -63 -20 -19 -22 -29 -25 -60 -20 -30 5 -40 2 -57
-19 -13 -14 -33 -24 -47 -24 -15 0 -31 -8 -39 -20 -9 -15 -23 -20 -60 -20 -37
0 -50 -4 -60 -21 -11 -18 -20 -21 -54 -16 -33 4 -43 1 -61 -19 -12 -14 -32
-24 -46 -24 -16 0 -31 -9 -39 -21 -11 -18 -20 -21 -54 -16 -33 4 -43 1 -61
-19 -12 -14 -32 -24 -46 -24 -15 0 -31 -8 -39 -20 -7 -12 -23 -20 -40 -20 -17
0 -32 -8 -40 -21 -11 -18 -20 -21 -53 -16 -34 4 -44 1 -64 -20 -14 -16 -29
-24 -39 -20 -11 4 -24 -3 -38 -18 -13 -15 -32 -25 -47 -25 -15 0 -31 -8 -39
-20 -9 -15 -23 -20 -60 -20 -37 0 -50 -4 -60 -21 -11 -18 -20 -21 -54 -16 -33
4 -43 1 -61 -19 -12 -14 -32 -24 -46 -24 -15 0 -31 -8 -39 -20 -7 -12 -23 -20
-40 -20 -17 0 -32 -8 -40 -21 -11 -18 -20 -21 -53 -16 -34 4 -44 1 -64 -20
-14 -16 -29 -24 -39 -20 -10 4 -25 -4 -40 -20 -15 -16 -30 -24 -40 -20 -10 4
-25 -4 -40 -20 -15 -16 -30 -24 -40 -20 -10 4 -25 -4 -40 -20 -15 -16 -30 -24
-40 -20 -10 4 -25 -4 -40 -20 -15 -16 -30 -24 -40 -20 -10 4 -31 -10 -60 -40
-29 -30 -50 -44 -60 -40 -10 4 -31 -9 -58 -38 -26 -27 -52 -45 -66 -45 -13 0
-37 -16 -59 -41 -25 -27 -42 -39 -55 -36 -13 4 -37 -14 -81 -59 -42 -44 -68
-64 -80 -60 -12 3 -42 -22 -99 -80 -53 -55 -89 -84 -101 -82 -25 4 -966 -937
-960 -960 3 -11 -31 -51 -101 -120 -72 -70 -103 -107 -99 -118 4 -10 -10 -31
-40 -59 -31 -30 -44 -51 -40 -63 3 -12 -9 -30 -36 -55 -25 -22 -41 -46 -41
-59 0 -14 -18 -40 -44 -65 -32 -30 -43 -48 -39 -62 3 -13 -2 -24 -16 -33 -12
-7 -21 -23 -21 -38 0 -17 -15 -39 -44 -67 -32 -30 -43 -48 -39 -62 3 -13 -2
-24 -16 -33 -13 -8 -21 -23 -21 -40 0 -17 -8 -33 -20 -40 -12 -8 -20 -24 -20
-40 0 -17 -8 -33 -20 -40 -12 -8 -20 -24 -20 -40 0 -17 -8 -33 -20 -40 -12 -8
-20 -24 -20 -40 0 -15 -8 -33 -19 -40 -11 -8 -21 -32 -25 -60 -4 -26 -14 -54
-22 -62 -8 -8 -14 -26 -14 -40 0 -15 -8 -31 -20 -38 -15 -10 -20 -24 -20 -60
0 -37 -5 -51 -20 -60 -12 -8 -20 -24 -20 -39 0 -14 -10 -34 -24 -46 -20 -18
-23 -28 -19 -61 5 -34 2 -43 -16 -54 -13 -8 -21 -23 -21 -40 0 -17 -8 -33 -20
-40 -12 -8 -20 -24 -20 -40 0 -17 -8 -33 -20 -40 -15 -10 -20 -24 -20 -60 0
-37 -5 -51 -20 -60 -12 -8 -20 -24 -20 -40 0 -17 -8 -33 -20 -40 -15 -10 -20
-24 -20 -60 0 -37 -5 -51 -20 -60 -12 -8 -20 -24 -20 -40 0 -17 -8 -33 -20
-40 -15 -10 -20 -24 -20 -60 0 -37 -5 -51 -20 -60 -12 -8 -20 -24 -20 -39 0
-14 -10 -34 -24 -46 -20 -18 -23 -28 -19 -61 5 -34 2 -43 -16 -54 -17 -10 -21
-23 -21 -60 0 -37 -5 -51 -20 -60 -15 -10 -20 -24 -20 -60 0 -37 -5 -51 -20
-60 -15 -10 -20 -24 -20 -60 0 -37 -5 -51 -20 -60 -19 -12 -20 -24 -20 -343 0
-319 1 -331 20 -343 15 -9 20 -23 20 -60 0 -36 5 -50 20 -60 12 -7 20 -23 20
-40 0 -17 8 -32 21 -40 14 -9 19 -20 16 -33 -4 -14 7 -32 39 -62 29 -28 44
-50 44 -67 0 -15 9 -31 21 -38 12 -8 19 -21 17 -33 -4 -27 416 -451 439 -442
9 3 25 -5 39 -20 15 -16 30 -24 40 -20 10 4 25 -4 40 -20 15 -16 30 -24 40
-20 10 4 31 -10 60 -40 28 -29 50 -44 60 -40 20 8 209 -181 201 -202 -4 -10
16 -36 59 -77 45 -43 64 -69 60 -81 -3 -12 16 -37 60 -80 44 -42 64 -68 60
-80 -3 -12 38 -59 140 -160 102 -100 144 -147 140 -159 -3 -13 28 -50 100
-121 57 -57 104 -112 104 -122 0 -10 -38 -56 -84 -102 -58 -57 -83 -88 -80
-100 4 -13 -38 -60 -140 -160 -102 -101 -143 -148 -140 -160 3 -13 -21 -44
-80 -100 -59 -58 -83 -88 -80 -100 4 -12 -15 -38 -60 -81 -43 -41 -63 -68 -59
-77 8 -21 -261 -290 -282 -281 -9 3 -25 -5 -39 -21 -15 -16 -30 -24 -40 -20
-10 4 -31 -10 -60 -40 -29 -30 -50 -44 -60 -40 -11 4 -36 -15 -78 -59 -42 -43
-69 -64 -80 -60 -25 6 -248 -218 -241 -242 3 -12 -9 -31 -36 -55 -25 -23 -41
-46 -41 -60 0 -14 -16 -38 -42 -61 -26 -24 -42 -48 -43 -65 -1 -14 -3 -34 -3
-43 -1 -9 -20 -36 -41 -58 -35 -37 -38 -45 -34 -80 4 -32 2 -41 -16 -52 -21
-13 -21 -17 -21 -343 0 -319 1 -331 20 -343 15 -9 20 -23 20 -60 0 -36 5 -50
20 -60 15 -9 20 -23 20 -60 0 -36 5 -50 20 -60 15 -9 20 -23 20 -60 0 -36 5
-50 20 -60 12 -7 20 -23 20 -38 0 -14 6 -32 14 -40 8 -8 18 -36 22 -62 4 -28
14 -52 25 -60 11 -7 19 -24 19 -38 0 -14 6 -32 14 -40 8 -8 18 -36 22 -62 4
-28 14 -52 25 -60 11 -7 19 -24 19 -38 0 -14 6 -32 14 -40 8 -8 18 -36 22 -62
4 -28 14 -52 25 -60 11 -7 19 -25 19 -40 0 -16 8 -32 20 -40 12 -7 20 -23 20
-38 0 -14 6 -32 14 -40 8 -8 18 -36 22 -62 4 -28 14 -52 25 -60 14 -10 19 -26
19 -60 0 -36 5 -50 20 -60 12 -7 20 -23 20 -40 0 -16 8 -32 20 -40 15 -9 20
-23 20 -60 0 -36 5 -50 20 -60 12 -7 20 -23 20 -40 0 -16 8 -32 20 -40 12 -7
20 -23 20 -40 0 -16 8 -32 20 -40 15 -9 20 -23 20 -60 0 -36 5 -50 20 -60 12
-7 20 -23 20 -40 0 -16 8 -32 20 -40 12 -7 20 -23 20 -40 0 -16 8 -32 20 -40
12 -7 20 -23 20 -40 0 -17 8 -32 21 -40 14 -9 19 -20 16 -33 -4 -14 7 -32 39
-62 29 -28 44 -50 44 -67 0 -14 9 -31 20 -38 11 -7 20 -23 20 -37 0 -17 14
-38 41 -62 27 -25 39 -43 36 -55 -4 -12 9 -33 40 -63 30 -28 44 -49 40 -59 -4
-10 10 -31 40 -60 30 -29 44 -50 40 -60 -4 -11 15 -36 59 -78 44 -43 64 -69
60 -81 -3 -12 43 -64 160 -180 116 -113 164 -167 160 -179 -6 -25 457 -488
482 -482 12 3 72 -51 200 -180 125 -127 187 -183 198 -179 10 4 37 -17 80 -60
42 -43 70 -64 80 -60 10 4 38 -17 81 -61 45 -46 71 -65 82 -61 11 3 26 -4 39
-20 13 -15 28 -22 37 -18 11 4 31 -10 61 -40 29 -30 50 -44 60 -40 10 4 25 -4
40 -20 15 -16 30 -24 40 -20 10 4 31 -11 61 -41 30 -31 51 -45 62 -41 11 3 26
-4 39 -20 19 -21 28 -24 60 -19 31 5 40 2 59 -20 14 -16 28 -23 39 -19 10 4
25 -4 40 -20 15 -16 30 -24 40 -20 10 4 25 -4 40 -20 15 -16 30 -24 40 -20 10
4 25 -4 41 -21 15 -17 31 -25 42 -21 11 3 25 -4 39 -20 19 -21 28 -24 60 -19
31 5 40 2 60 -20 19 -22 28 -25 60 -20 31 5 40 2 59 -20 14 -16 28 -23 39 -19
10 4 25 -4 40 -21 21 -22 31 -25 62 -20 31 5 40 2 59 -20 14 -16 28 -23 39
-19 10 4 25 -4 40 -20 15 -16 30 -24 40 -20 10 4 25 -4 40 -21 21 -22 31 -25
62 -20 31 5 40 2 59 -20 14 -16 28 -23 39 -19 10 4 25 -4 40 -21 21 -22 31
-25 62 -20 31 5 40 2 59 -20 14 -16 28 -23 39 -19 10 4 25 -4 40 -21 21 -22
31 -25 62 -20 31 5 40 2 59 -20 14 -16 28 -23 39 -19 10 4 25 -4 40 -21 21
-22 31 -25 62 -20 31 5 40 2 60 -20 19 -22 28 -25 60 -20 31 5 40 2 59 -19 19
-23 26 -25 81 -20 53 5 61 3 75 -17 16 -23 18 -23 262 -23 244 0 246 0 262 23
13 19 22 21 55 17 33 -4 43 -1 61 20 19 21 28 24 59 19 31 -5 41 -2 62 20 15
17 30 25 40 21 10 -4 31 10 60 40 28 28 50 43 60 40 22 -9 405 378 399 403 -3
12 3 23 16 32 12 7 21 23 21 38 0 17 15 39 44 67 32 30 43 48 39 62 -3 13 2
24 16 33 13 8 21 23 21 39 0 18 13 38 40 63 25 23 40 45 40 60 0 28 24 51 45
43 9 -4 31 11 59 40 29 30 50 44 60 40 10 -4 31 9 58 38 28 29 49 43 59 40 11
-4 45 23 102 81 57 57 91 85 101 81 11 -4 73 53 198 179 129 130 188 183 200
180 12 -3 50 28 120 99 l103 102 60 0 60 0 143 -143 c97 -97 148 -141 158
-137 11 4 62 -41 160 -140 98 -99 150 -144 160 -140 10 4 37 -17 80 -60 42
-43 70 -64 80 -60 10 4 37 -17 80 -60 42 -43 70 -64 80 -60 20 8 168 -141 161
-162 -4 -9 10 -30 38 -57 27 -26 45 -52 45 -66 0 -13 16 -36 40 -58 25 -23 40
-45 40 -60 0 -15 15 -37 40 -61 25 -22 40 -43 38 -55 -4 -25 377 -409 399
-401 9 3 31 -12 59 -40 29 -30 50 -44 60 -40 10 4 25 -4 40 -21 21 -22 31 -25
62 -20 31 5 40 2 59 -19 18 -21 28 -24 61 -20 33 4 42 2 55 -17 16 -23 18 -23
262 -23 244 0 246 0 262 23 14 20 22 22 75 17 55 -5 62 -3 81 20 19 21 28 24
59 19 32 -5 41 -2 60 20 20 22 29 25 60 20 31 -5 41 -2 62 20 15 17 30 25 40
21 11 -4 25 3 39 19 19 22 28 25 59 20 31 -5 41 -2 62 20 15 17 30 25 40 21
11 -4 25 3 39 19 19 22 28 25 59 20 31 -5 41 -2 62 20 15 17 30 25 40 21 10
-4 25 4 40 20 15 16 30 24 40 20 11 -4 25 3 39 19 19 22 28 25 59 20 31 -5 41
-2 62 20 15 17 30 25 40 21 11 -4 25 3 39 19 19 22 28 25 59 20 32 -5 41 -2
60 19 14 16 28 23 39 20 12 -4 26 3 41 20 20 23 29 26 60 21 31 -5 41 -2 62
20 15 17 30 25 40 21 11 -4 25 3 39 19 19 22 28 25 59 20 31 -5 41 -2 62 20
15 17 30 25 40 21 10 -4 25 4 40 20 15 16 30 24 40 20 10 -4 25 4 40 20 15 16
30 24 40 20 10 -4 25 4 40 20 15 16 30 24 40 20 10 -4 25 4 40 20 15 16 30 24
40 20 10 -4 25 4 40 20 15 16 30 24 40 20 10 -4 25 4 40 20 15 16 30 24 40 20
10 -4 25 4 40 20 15 16 30 24 40 20 10 -4 31 10 60 40 29 29 50 44 60 40 10
-4 31 10 60 40 29 29 50 44 60 40 10 -4 31 10 60 40 29 30 50 44 60 40 11 -4
42 21 98 79 53 53 90 83 101 82 26 -4 1126 1097 1120 1121 -3 11 10 31 36 54
25 23 41 46 41 60 0 15 27 49 85 105 57 56 82 87 78 98 -4 10 10 31 40 59 32
32 44 50 40 64 -3 13 2 24 16 33 13 8 21 23 21 39 0 15 10 34 25 47 14 12 25
31 25 43 0 12 16 37 35 56 20 20 35 45 35 59 0 13 9 29 20 36 12 8 20 24 20
40 0 17 8 33 20 40 12 8 20 24 20 40 0 17 8 33 20 40 12 8 20 24 20 40 0 17 8
33 20 40 12 8 20 24 20 40 0 17 8 33 20 40 12 8 20 24 20 40 0 17 8 33 20 40
12 8 20 24 20 39 0 34 19 89 31 89 5 0 9 15 9 33 0 18 9 50 20 72 11 22 20 47
20 57 0 10 9 23 20 30 12 8 20 24 20 39 0 34 19 89 31 89 5 0 9 13 9 30 0 19
7 34 20 42 12 8 20 24 20 40 0 17 8 33 20 40 12 8 20 24 20 39 0 34 19 89 31
89 5 0 9 13 9 30 0 19 7 34 20 42 12 8 20 24 20 40 0 15 8 33 19 40 11 8 21
32 25 60 4 26 14 54 22 62 8 8 14 26 14 40 0 15 8 31 20 38 15 10 20 24 20 60
0 37 5 51 20 60 12 8 20 24 20 39 0 34 19 89 31 89 5 0 9 13 9 29 0 35 19 91
31 91 5 0 9 15 9 33 0 18 9 50 20 72 11 22 20 47 20 57 0 10 9 23 20 30 15 10
20 24 21 58 0 67 15 144 28 148 8 3 11 68 11 217 0 149 -3 214 -11 217 -13 4
-28 81 -28 148 -1 34 -6 48 -21 58 -12 7 -20 23 -20 40 0 16 -8 32 -20 40 -12
7 -20 23 -20 40 0 16 -8 32 -20 40 -12 7 -20 23 -20 40 0 17 -8 32 -21 40 -14
9 -19 20 -16 33 4 15 -12 36 -59 82 -44 41 -64 68 -60 79 6 24 -178 208 -202
202 -11 -4 -38 16 -79 60 -46 47 -67 63 -82 59 -13 -3 -24 2 -33 16 -7 12 -23
21 -38 21 -17 0 -39 15 -68 45 -28 29 -48 42 -58 38 -10 -4 -25 4 -40 20 -14
15 -30 23 -41 21 -24 -7 -128 98 -120 120 4 11 -20 42 -78 98 -56 54 -85 90
-85 105 0 13 -22 43 -61 79 -41 40 -59 64 -56 76 4 13 -25 48 -99 120 -74 73
-104 108 -100 121 3 12 -42 63 -160 180 -156 155 -164 164 -164 201 0 36 7 46
84 123 57 56 83 89 80 100 -3 13 38 60 140 160 103 102 143 148 140 160 -4 12
16 38 60 80 44 43 63 68 60 80 -4 12 15 38 60 81 43 41 63 68 59 77 -8 21 261
290 282 281 9 -3 25 5 39 21 15 16 30 24 40 20 10 -4 25 4 40 20 15 16 30 24
40 20 10 -4 25 4 40 20 14 15 30 23 39 20 22 -8 406 378 400 402 -3 11 10 30
36 54 27 24 41 45 41 62 0 14 9 30 20 37 12 8 20 24 20 40 0 17 8 33 20 40 12
8 20 24 20 40 0 17 8 33 20 40 12 8 20 24 20 40 0 17 8 33 20 40 15 10 20 24
21 58 0 67 15 144 28 148 8 3 11 68 11 217 0 149 -3 214 -11 217 -13 4 -28 81
-28 151 -1 26 -5 47 -10 47 -12 0 -31 56 -31 91 0 16 -4 29 -9 29 -11 0 -31
55 -31 87 0 14 -6 31 -14 39 -8 8 -18 36 -22 62 -4 28 -14 52 -25 60 -11 7
-19 24 -19 38 0 14 -6 32 -14 40 -8 8 -18 36 -22 62 -4 28 -14 52 -25 60 -11
7 -19 25 -19 40 0 16 -8 32 -20 40 -13 8 -20 23 -20 42 0 17 -4 30 -9 30 -12
0 -31 55 -31 89 0 15 -8 31 -20 39 -12 7 -20 23 -20 40 0 16 -8 32 -20 40 -13
8 -20 23 -20 42 0 17 -4 30 -9 30 -12 0 -31 55 -31 89 0 15 -8 31 -20 39 -13
8 -20 23 -20 42 0 17 -4 30 -9 30 -12 0 -31 56 -31 91 0 16 -4 29 -9 29 -12 0
-31 55 -31 89 0 15 -8 31 -20 39 -12 7 -20 23 -20 40 0 16 -8 32 -20 40 -13 8
-20 23 -20 42 0 17 -4 30 -9 30 -12 0 -31 55 -31 89 0 15 -8 31 -20 39 -12 7
-20 23 -20 40 0 16 -8 32 -20 40 -12 7 -20 23 -20 40 0 16 -8 32 -20 40 -12 7
-20 23 -20 40 0 16 -8 32 -20 40 -12 7 -20 23 -20 40 0 16 -8 32 -20 40 -11 7
-20 23 -20 37 0 17 -14 37 -40 61 -27 25 -40 45 -40 63 0 15 -8 31 -20 39 -11
7 -20 23 -20 37 0 17 -14 37 -40 61 -25 23 -40 45 -40 60 0 15 -15 37 -41 61
-27 25 -39 42 -36 55 4 13 -14 37 -59 81 -44 42 -64 68 -60 79 3 13 -28 49
-100 120 -73 71 -104 108 -101 120 7 25 -816 848 -841 842 -12 -4 -49 28 -119
100 -72 73 -108 103 -120 100 -12 -4 -38 16 -81 60 -42 44 -67 63 -78 59 -10
-4 -31 10 -60 40 -29 30 -50 44 -60 40 -10 -4 -31 10 -59 40 -32 32 -50 44
-64 40 -13 -3 -24 2 -33 16 -7 12 -23 21 -38 21 -17 0 -39 15 -68 45 -28 29
-48 42 -58 38 -10 -4 -25 4 -40 20 -15 16 -30 24 -40 20 -10 -4 -25 4 -40 20
-15 16 -30 24 -40 20 -10 -4 -25 4 -40 20 -15 16 -30 24 -40 20 -10 -4 -25 4
-39 20 -20 21 -30 24 -64 20 -33 -5 -42 -2 -53 16 -8 13 -23 21 -40 21 -17 0
-33 8 -40 20 -8 12 -24 20 -39 20 -14 0 -34 10 -46 24 -18 20 -28 23 -61 19
-34 -5 -43 -2 -54 16 -10 17 -23 21 -60 21 -37 0 -51 5 -60 20 -8 12 -24 20
-39 20 -15 0 -34 10 -47 25 -14 15 -27 22 -38 18 -10 -4 -25 4 -39 20 -20 21
-30 24 -64 20 -33 -5 -42 -2 -53 16 -8 12 -23 21 -39 21 -14 0 -34 10 -46 24
-18 20 -28 23 -61 19 -34 -5 -43 -2 -54 16 -8 13 -23 21 -40 21 -17 0 -33 8
-40 20 -10 15 -24 20 -60 20 -37 0 -51 5 -60 20 -8 12 -24 20 -39 20 -14 0
-34 10 -46 24 -18 20 -28 23 -61 19 -34 -5 -43 -2 -54 16 -8 12 -23 21 -39 21
-14 0 -34 10 -47 24 -17 21 -27 24 -57 19 -31 -5 -41 -2 -60 20 -20 21 -30 24
-63 20 -33 -4 -42 -2 -56 18 -14 21 -23 23 -81 21 -56 -3 -66 -1 -77 17 -12
20 -21 21 -263 21 -242 0 -251 -1 -263 -21 -11 -18 -21 -20 -77 -17 -58 2 -67
0 -81 -20 -9 -13 -26 -22 -42 -22 -17 0 -32 -8 -40 -21 -9 -14 -20 -19 -33
-16 -13 4 -28 -4 -43 -20 -15 -16 -30 -24 -40 -20 -11 4 -36 -14 -78 -59 -42
-43 -69 -64 -80 -60 -25 6 -248 -217 -242 -242 4 -11 -17 -38 -60 -80 -44 -42
-63 -67 -59 -78 4 -10 -10 -31 -40 -59 -32 -32 -44 -50 -40 -64 3 -13 -2 -24
-16 -33 -12 -7 -21 -23 -21 -38 0 -19 -23 -47 -85 -108 -55 -54 -82 -87 -78
-97 8 -21 -17 -47 -39 -42 -12 4 -33 -9 -63 -40 -28 -30 -49 -44 -59 -40 -11
4 -36 -15 -78 -59 -43 -44 -69 -64 -81 -60 -12 3 -43 -22 -100 -80 -56 -59
-87 -84 -99 -80 -13 3 -70 -49 -201 -180 -131 -134 -187 -184 -200 -180 -12 3
-32 -11 -60 -40 -48 -50 -74 -55 -104 -20 -13 15 -29 23 -40 20 -13 -4 -72 49
-220 200 -145 146 -208 203 -220 200 -13 -4 -49 27 -121 100 -70 72 -107 103
-118 99 -10 -4 -31 10 -59 40 -30 31 -51 44 -63 40 -12 -3 -30 9 -55 36 -23
25 -46 41 -60 41 -30 0 -132 102 -124 124 4 10 -10 31 -40 60 -30 29 -44 50
-40 60 4 10 -9 31 -38 58 -30 29 -45 51 -45 68 0 15 -9 31 -21 38 -14 9 -19
20 -16 33 4 14 -16 40 -79 102 -58 56 -84 87 -81 99 7 24 -176 208 -201 202
-11 -4 -38 16 -80 60 -42 45 -67 63 -78 59 -10 -4 -25 4 -40 20 -15 16 -30 24
-43 20 -13 -3 -24 2 -33 16 -8 13 -23 21 -40 21 -16 0 -33 9 -42 22 -14 20
-23 22 -81 20 -56 -3 -66 -1 -77 17 -12 20 -21 21 -263 21 -242 0 -251 -1
-263 -21z m444 -434 c15 -23 20 -24 79 -18 57 5 64 4 76 -16 9 -13 24 -21 41
-21 17 0 33 -8 40 -20 7 -11 24 -20 38 -20 17 0 43 -19 87 -65 43 -45 67 -63
78 -59 21 8 90 -59 82 -80 -4 -10 10 -32 40 -60 32 -31 44 -50 39 -61 -4 -12
8 -30 40 -60 45 -40 47 -44 41 -83 -6 -35 -4 -42 18 -56 24 -16 25 -18 18
-106 -4 -63 -3 -90 5 -90 6 0 22 -12 36 -26 15 -17 30 -25 40 -21 10 4 30 -9
58 -38 31 -33 48 -43 63 -39 16 4 31 -6 60 -40 30 -36 43 -44 61 -40 17 4 27
-1 40 -20 12 -20 22 -25 37 -20 16 5 33 -8 82 -60 46 -49 67 -65 80 -60 13 5
33 -10 80 -60 46 -49 67 -65 80 -60 12 5 61 -39 200 -180 133 -134 188 -184
200 -180 22 9 90 -59 81 -82 -5 -12 36 -59 154 -177 143 -143 160 -164 160
-193 0 -30 3 -34 25 -34 14 0 25 5 25 10 0 13 43 59 198 214 90 91 121 128
116 140 -9 23 59 91 81 82 12 -4 67 46 200 180 139 142 188 185 201 180 12 -5
38 16 99 80 61 64 87 85 100 80 12 -4 29 7 59 40 32 35 48 45 62 40 15 -5 29
5 59 40 30 35 44 44 60 40 17 -4 31 5 60 40 29 34 44 44 60 40 15 -4 32 6 63
39 28 29 48 42 58 38 10 -4 25 4 40 21 14 14 30 26 36 26 8 0 9 27 5 90 -7 88
-6 90 18 106 22 14 24 21 18 56 -6 39 -4 43 41 83 32 30 44 48 40 60 -5 11 7
30 39 61 30 28 44 50 40 60 -8 21 61 88 82 80 11 -4 35 14 78 59 44 46 70 65
87 65 14 0 31 9 38 20 7 12 23 20 40 20 17 0 32 8 41 21 12 20 19 21 76 16 59
-6 64 -5 79 18 16 25 17 25 181 25 164 0 165 0 181 -25 15 -23 20 -24 79 -18
60 5 64 4 80 -21 13 -20 23 -24 40 -20 18 4 28 -1 41 -21 15 -23 21 -25 60
-19 38 5 44 3 60 -20 15 -24 21 -26 60 -20 38 5 44 3 59 -20 13 -20 23 -24 40
-20 18 4 28 -1 41 -21 15 -23 21 -25 60 -19 38 5 44 3 59 -20 13 -20 23 -24
40 -20 18 4 28 -1 41 -21 15 -23 21 -25 60 -19 38 5 44 3 59 -20 13 -20 23
-24 40 -20 18 4 28 -1 41 -21 15 -23 21 -25 60 -19 38 5 44 3 59 -20 13 -20
23 -24 40 -20 18 4 27 -1 40 -20 13 -20 23 -24 40 -20 18 4 28 -1 41 -21 13
-20 23 -25 40 -21 16 4 26 -1 38 -20 15 -23 22 -24 61 -19 39 6 45 5 61 -19
15 -24 21 -26 60 -20 38 5 44 3 60 -20 15 -24 21 -26 58 -21 36 6 44 3 63 -18
14 -17 28 -24 41 -20 14 3 25 -3 37 -21 13 -20 23 -24 40 -20 18 4 27 -1 40
-20 13 -20 23 -24 40 -20 18 4 27 -1 40 -20 13 -20 23 -24 40 -20 18 4 27 -1
40 -20 13 -20 23 -24 40 -20 18 4 27 -1 40 -20 13 -20 23 -24 40 -20 18 4 28
-1 41 -20 12 -20 22 -25 37 -20 15 5 30 -4 62 -39 30 -33 47 -45 61 -41 15 4
31 -7 59 -40 29 -35 43 -44 60 -40 16 4 30 -5 60 -40 29 -35 44 -45 58 -40 16
5 38 -13 102 -80 59 -63 87 -85 99 -80 24 9 971 -938 962 -962 -5 -12 18 -40
80 -99 64 -61 85 -87 80 -100 -4 -12 7 -29 40 -59 35 -32 45 -48 40 -62 -5
-15 5 -29 40 -59 33 -28 44 -44 40 -59 -4 -14 8 -31 41 -61 35 -32 44 -47 39
-62 -5 -15 0 -25 20 -37 19 -13 24 -23 20 -41 -4 -17 0 -27 20 -40 19 -13 24
-22 20 -40 -4 -17 0 -27 20 -40 19 -13 24 -22 20 -40 -4 -17 0 -27 20 -40 19
-13 24 -22 20 -40 -4 -17 0 -27 20 -40 19 -13 24 -22 20 -40 -4 -17 0 -27 20
-40 19 -13 24 -22 20 -40 -4 -17 0 -27 20 -40 23 -15 25 -21 20 -59 -6 -39 -4
-45 20 -60 23 -16 25 -22 20 -60 -6 -39 -4 -45 20 -60 24 -16 25 -22 19 -61
-5 -39 -4 -46 19 -61 19 -12 24 -22 20 -38 -4 -17 1 -27 21 -40 20 -13 25 -23
21 -41 -4 -17 0 -27 20 -40 24 -15 25 -21 19 -60 -5 -40 -4 -45 20 -61 20 -13
25 -23 21 -40 -4 -16 1 -26 20 -39 19 -13 24 -22 20 -40 -4 -17 0 -27 20 -40
23 -15 25 -21 20 -59 -6 -39 -4 -45 19 -60 20 -13 25 -23 21 -41 -4 -17 0 -27
20 -40 23 -15 25 -21 20 -59 -6 -39 -4 -45 19 -60 20 -13 25 -23 21 -41 -4
-17 0 -27 20 -40 23 -15 25 -21 20 -59 -6 -39 -4 -45 20 -60 23 -16 25 -22 20
-60 -6 -39 -4 -45 19 -60 20 -13 25 -23 21 -41 -4 -17 0 -27 20 -40 25 -16 26
-20 21 -80 -6 -59 -5 -64 18 -79 25 -16 25 -17 25 -181 0 -164 0 -165 -25
-181 -23 -15 -24 -20 -18 -79 5 -57 4 -64 -16 -76 -13 -9 -21 -24 -21 -41 0
-17 -8 -33 -20 -40 -11 -7 -20 -24 -20 -38 0 -17 -19 -43 -65 -87 -45 -43 -63
-67 -59 -78 8 -21 -59 -90 -80 -82 -10 4 -32 -10 -60 -40 -31 -32 -50 -44 -61
-39 -12 4 -30 -8 -60 -40 -40 -45 -44 -47 -83 -41 -35 6 -42 4 -56 -18 -17
-25 -18 -26 -106 -19 -62 5 -90 3 -90 -4 0 -6 -21 -31 -46 -55 -34 -34 -44
-50 -40 -65 5 -14 -1 -24 -19 -36 -19 -12 -24 -22 -20 -39 5 -19 -3 -31 -39
-62 -36 -30 -44 -43 -40 -61 4 -17 -1 -27 -20 -40 -20 -12 -25 -22 -20 -37 5
-16 -8 -33 -60 -82 -49 -46 -65 -67 -60 -80 5 -13 -15 -38 -80 -100 -64 -61
-85 -87 -80 -99 5 -13 -39 -63 -179 -201 -129 -127 -185 -189 -181 -200 9 -21
-16 -47 -38 -41 -14 3 -61 -37 -180 -155 -143 -141 -165 -159 -195 -159 -29 0
-33 -3 -33 -25 0 -14 5 -25 10 -25 13 0 55 -39 235 -217 100 -99 149 -141 160
-137 21 9 47 -16 41 -38 -3 -15 41 -65 181 -203 140 -138 184 -188 179 -201
-5 -12 16 -38 80 -99 65 -62 85 -87 80 -100 -5 -13 11 -34 60 -80 52 -49 65
-66 60 -82 -5 -15 0 -25 20 -37 19 -13 24 -23 20 -40 -4 -18 4 -31 40 -61 35
-30 44 -44 40 -60 -4 -17 5 -31 39 -62 33 -29 43 -45 39 -58 -5 -11 2 -25 20
-41 14 -14 26 -30 26 -36 0 -8 27 -9 90 -4 88 7 89 6 106 -19 14 -22 21 -24
56 -18 39 6 43 4 83 -41 30 -32 48 -44 60 -40 11 5 30 -7 61 -39 28 -30 50
-44 60 -40 21 8 88 -61 80 -82 -4 -11 14 -35 59 -78 46 -44 65 -70 65 -87 0
-14 9 -31 20 -38 12 -7 20 -23 20 -40 0 -17 8 -32 21 -41 20 -12 21 -19 16
-76 -6 -59 -5 -64 18 -79 25 -16 25 -17 25 -181 0 -164 0 -165 -25 -181 -23
-15 -24 -20 -18 -79 5 -60 4 -64 -21 -80 -20 -13 -24 -23 -20 -40 4 -18 -1
-28 -21 -41 -23 -15 -25 -21 -19 -60 5 -38 3 -44 -20 -60 -24 -15 -26 -21 -20
-60 5 -38 3 -44 -20 -59 -20 -13 -24 -23 -20 -40 4 -18 -1 -28 -21 -41 -23
-15 -25 -21 -19 -60 5 -38 3 -44 -20 -59 -20 -13 -24 -23 -20 -40 4 -18 -1
-28 -21 -41 -23 -15 -25 -21 -19 -60 5 -38 3 -44 -20 -59 -20 -13 -24 -23 -20
-40 4 -18 -1 -27 -20 -40 -19 -13 -24 -23 -20 -39 4 -17 -1 -27 -21 -40 -24
-16 -25 -21 -20 -61 6 -39 5 -45 -19 -60 -20 -13 -24 -23 -20 -40 4 -18 -1
-27 -20 -40 -19 -13 -24 -23 -20 -39 4 -17 -1 -27 -21 -40 -24 -16 -25 -21
-20 -61 6 -39 5 -45 -19 -61 -24 -15 -26 -21 -20 -60 5 -38 3 -44 -20 -60 -24
-15 -26 -21 -20 -60 5 -38 3 -44 -20 -59 -20 -13 -24 -23 -20 -40 4 -18 -1
-27 -20 -40 -20 -13 -24 -23 -20 -40 4 -18 -1 -27 -20 -40 -20 -13 -24 -23
-20 -40 4 -18 -1 -27 -20 -40 -20 -13 -24 -23 -20 -40 4 -18 -1 -27 -20 -40
-20 -13 -24 -23 -20 -40 4 -18 -1 -27 -20 -40 -20 -13 -24 -23 -20 -40 4 -18
-1 -28 -20 -41 -20 -12 -25 -22 -20 -37 5 -15 -4 -30 -39 -62 -33 -30 -45 -47
-41 -61 4 -15 -7 -31 -40 -59 -35 -29 -44 -43 -40 -60 4 -16 -5 -30 -40 -60
-35 -29 -45 -44 -40 -58 5 -16 -13 -38 -80 -102 -63 -59 -85 -87 -80 -99 9
-24 -938 -971 -962 -962 -12 5 -40 -17 -99 -80 -64 -67 -86 -85 -102 -80 -14
5 -29 -5 -58 -40 -30 -35 -44 -44 -60 -40 -17 4 -31 -5 -60 -40 -30 -35 -44
-44 -60 -40 -17 4 -31 -5 -60 -40 -30 -35 -44 -44 -61 -40 -16 4 -26 -1 -39
-20 -13 -19 -22 -24 -40 -20 -17 4 -27 0 -40 -20 -13 -19 -22 -24 -40 -20 -17
4 -27 0 -40 -20 -13 -19 -22 -24 -40 -20 -17 4 -27 0 -40 -20 -13 -19 -22 -24
-40 -20 -17 4 -27 0 -40 -20 -13 -19 -22 -24 -40 -20 -17 4 -27 0 -40 -20 -13
-19 -22 -24 -40 -20 -17 4 -27 0 -40 -20 -15 -23 -21 -25 -59 -20 -39 6 -45 4
-60 -20 -16 -23 -22 -25 -60 -20 -39 6 -45 4 -60 -19 -16 -24 -21 -25 -61 -20
-39 6 -45 5 -60 -19 -13 -19 -23 -24 -39 -20 -17 4 -27 -1 -40 -21 -13 -20
-23 -25 -41 -21 -17 4 -27 0 -40 -20 -15 -24 -21 -25 -60 -19 -40 5 -45 4 -61
-20 -13 -20 -23 -25 -40 -21 -16 4 -26 -1 -39 -20 -13 -19 -22 -24 -40 -20
-17 4 -27 0 -40 -20 -15 -23 -21 -25 -59 -20 -39 6 -45 4 -60 -19 -13 -20 -23
-25 -41 -21 -17 4 -27 0 -40 -20 -15 -23 -21 -25 -59 -20 -39 6 -45 4 -60 -19
-13 -20 -23 -25 -41 -21 -17 4 -27 0 -40 -20 -15 -23 -21 -25 -59 -20 -39 6
-45 4 -60 -20 -16 -23 -22 -25 -60 -20 -39 6 -45 4 -60 -19 -13 -20 -23 -25
-41 -21 -17 4 -27 0 -40 -20 -16 -25 -20 -26 -80 -21 -59 6 -64 5 -79 -18 -16
-25 -17 -25 -181 -25 -164 0 -165 0 -181 25 -15 23 -20 24 -79 18 -57 -5 -64
-4 -76 16 -9 13 -24 21 -41 21 -17 0 -33 8 -40 20 -7 11 -24 20 -38 20 -17 0
-43 19 -87 65 -43 45 -67 63 -78 59 -21 -8 -90 59 -82 80 4 10 -10 32 -40 60
-32 31 -44 50 -39 61 4 12 -8 30 -40 60 -45 40 -47 44 -41 83 6 35 4 42 -18
56 -25 17 -26 18 -19 106 5 63 4 90 -4 90 -6 0 -22 12 -36 26 -15 17 -30 25
-40 21 -10 -4 -30 9 -58 38 -31 33 -48 43 -63 39 -16 -4 -31 6 -60 40 -29 35
-43 44 -60 40 -16 -4 -30 5 -60 40 -30 35 -44 45 -59 40 -14 -5 -30 5 -62 40
-30 33 -47 44 -59 40 -13 -5 -39 16 -100 80 -61 64 -87 85 -99 80 -13 -5 -63
39 -201 179 -138 140 -188 184 -203 181 -22 -6 -47 20 -38 42 4 11 -36 58
-137 159 -178 180 -217 222 -217 235 0 5 -11 10 -25 10 -22 0 -25 -4 -25 -33
0 -30 -18 -52 -160 -195 -108 -110 -158 -167 -154 -177 9 -21 -16 -47 -38 -41
-15 3 -65 -41 -203 -181 -138 -140 -188 -184 -201 -179 -12 5 -38 -16 -99 -80
-62 -65 -87 -85 -100 -80 -13 5 -34 -11 -80 -60 -49 -52 -66 -65 -82 -60 -15
5 -25 0 -37 -20 -13 -19 -23 -24 -40 -20 -18 4 -31 -4 -61 -40 -31 -36 -43
-44 -62 -39 -17 4 -27 -1 -39 -20 -12 -18 -22 -24 -36 -19 -15 4 -31 -6 -65
-40 -24 -25 -49 -46 -55 -46 -7 0 -9 -28 -4 -88 6 -85 6 -89 -18 -109 -16 -14
-23 -28 -19 -41 3 -14 -3 -25 -21 -37 -19 -13 -24 -23 -20 -39 3 -15 -3 -28
-20 -43 -16 -14 -23 -28 -19 -38 4 -11 -10 -31 -40 -61 -30 -28 -44 -50 -40
-60 8 -21 -61 -88 -82 -80 -11 4 -35 -14 -78 -59 -44 -46 -70 -65 -87 -65 -14
0 -31 -9 -38 -20 -7 -12 -23 -20 -40 -20 -17 0 -32 -8 -41 -21 -12 -20 -19
-21 -76 -16 -59 6 -64 5 -79 -18 -16 -25 -17 -25 -181 -25 -164 0 -165 0 -181
25 -15 23 -20 24 -79 18 -60 -5 -64 -4 -80 21 -13 20 -23 24 -40 20 -18 -4
-28 1 -41 21 -15 23 -21 25 -60 19 -38 -5 -44 -3 -60 20 -15 24 -21 26 -60 20
-38 -5 -44 -3 -59 20 -13 20 -23 24 -40 20 -18 -4 -28 1 -41 21 -15 23 -21 25
-60 19 -38 -5 -44 -3 -59 20 -13 19 -23 24 -39 20 -17 -4 -27 1 -40 21 -16 24
-21 25 -61 20 -39 -6 -45 -5 -60 19 -13 20 -23 24 -40 20 -18 -4 -28 1 -41 21
-15 23 -21 25 -60 19 -38 -5 -44 -3 -59 20 -13 20 -23 24 -40 20 -18 -4 -27 1
-40 20 -13 20 -23 24 -40 20 -18 -4 -28 1 -41 21 -13 20 -23 25 -40 21 -16 -4
-26 1 -38 20 -15 23 -22 24 -61 19 -39 -6 -45 -5 -61 19 -15 24 -21 26 -60 20
-38 -5 -44 -3 -60 20 -15 24 -21 26 -60 20 -38 -5 -44 -3 -59 20 -13 20 -23
24 -40 20 -18 -4 -27 1 -40 20 -13 20 -23 24 -40 20 -18 -4 -27 1 -40 20 -13
20 -23 24 -40 20 -18 -4 -27 1 -40 20 -13 20 -23 24 -40 20 -18 -4 -27 1 -40
20 -13 20 -23 24 -40 20 -18 -4 -27 1 -40 20 -13 20 -23 24 -40 20 -18 -4 -28
1 -41 20 -12 20 -22 25 -37 20 -15 -5 -30 4 -62 39 -30 33 -47 45 -61 41 -15
-4 -31 7 -59 40 -30 35 -44 45 -59 40 -14 -5 -30 5 -62 40 -30 33 -47 44 -59
40 -13 -5 -39 16 -100 80 -59 62 -87 85 -99 80 -24 -9 -971 938 -962 962 5 12
-18 40 -80 99 -64 61 -85 87 -80 100 4 12 -7 29 -40 59 -35 32 -45 48 -40 62
5 15 -5 29 -40 59 -33 28 -44 44 -40 59 4 14 -8 31 -41 61 -35 32 -44 47 -39
62 5 15 0 25 -20 37 -19 13 -24 23 -20 41 4 17 0 27 -20 40 -19 13 -24 22 -20
40 4 17 0 27 -20 40 -19 13 -24 22 -20 40 4 17 0 27 -20 40 -19 13 -24 22 -20
40 4 17 0 27 -20 40 -19 13 -24 22 -20 40 4 17 0 27 -20 40 -19 13 -24 22 -20
40 4 17 0 27 -20 40 -23 15 -25 21 -20 59 6 39 4 45 -20 60 -23 16 -25 22 -20
60 6 39 4 45 -20 60 -24 16 -25 22 -19 61 5 39 4 46 -19 61 -19 12 -24 22 -20
38 4 17 -1 27 -21 40 -20 13 -25 23 -21 41 4 17 0 27 -20 40 -19 13 -24 22
-20 40 4 17 0 27 -20 40 -23 15 -25 21 -20 59 6 39 4 45 -19 60 -20 13 -25 23
-21 41 4 17 0 27 -20 40 -23 15 -25 21 -20 59 6 39 4 45 -19 60 -20 13 -25 23
-21 41 4 17 0 27 -20 40 -23 15 -25 21 -20 59 6 39 4 45 -19 60 -20 13 -25 23
-21 41 4 17 0 27 -20 40 -23 15 -25 21 -20 59 6 39 4 45 -20 60 -23 16 -25 22
-20 60 6 39 4 45 -19 60 -20 13 -25 23 -21 41 4 17 0 27 -20 40 -25 16 -26 20
-21 80 6 59 5 64 -18 79 -25 16 -25 17 -25 181 0 164 0 165 25 181 23 15 24
20 18 79 -5 57 -4 64 16 76 13 9 21 24 21 41 0 17 8 33 20 40 11 7 20 24 20
38 0 17 19 43 65 87 45 43 63 67 59 78 -8 21 59 90 80 82 10 -4 32 10 60 40
31 32 50 44 61 39 12 -4 30 8 60 40 40 45 44 47 83 41 35 -6 42 -4 56 18 16
24 18 25 106 18 63 -4 90 -3 90 5 0 6 12 22 26 36 17 15 25 30 21 40 -4 10 10
31 39 60 34 33 44 49 40 63 -5 15 5 29 39 58 35 30 43 43 39 61 -4 17 1 27 20
40 20 12 25 22 20 37 -5 16 8 33 60 82 49 46 65 67 60 80 -5 13 10 33 60 80
49 46 65 67 60 80 -5 12 39 61 180 200 134 132 184 188 180 200 -9 22 99 130
122 121 12 -5 55 32 157 134 124 124 144 140 174 140 33 0 33 1 33 45 0 44 0
45 -33 45 -30 0 -51 18 -195 160 -112 110 -166 158 -177 154 -21 -9 -47 16
-41 38 3 15 -46 70 -201 223 -154 153 -204 208 -199 221 5 12 -12 34 -60 79
-50 47 -65 67 -60 80 5 13 -11 34 -60 80 -52 49 -65 66 -60 82 5 15 0 25 -20
37 -19 13 -24 23 -20 40 4 18 -4 31 -39 61 -35 29 -44 43 -39 58 5 15 -5 30
-40 63 -33 30 -44 47 -40 59 5 11 -2 25 -20 41 -14 14 -26 30 -26 36 0 8 -27
9 -90 5 -88 -7 -90 -6 -106 18 -14 22 -21 24 -56 18 -39 -6 -43 -4 -83 41 -30
32 -48 44 -60 40 -11 -5 -30 7 -61 39 -28 30 -50 44 -60 40 -21 -8 -88 61 -80
82 4 11 -14 35 -59 78 -46 44 -65 70 -65 87 0 14 -9 31 -20 38 -12 7 -20 23
-20 40 0 17 -8 32 -21 41 -20 12 -21 19 -16 76 6 59 5 64 -18 79 -25 16 -25
17 -25 181 0 164 0 165 25 181 23 15 24 20 18 79 -5 60 -4 64 21 80 20 13 24
23 20 40 -4 18 1 28 21 41 23 15 25 21 19 60 -5 38 -3 44 20 60 24 15 26 21
20 60 -5 38 -3 44 20 59 20 13 24 23 20 40 -4 18 1 28 21 41 23 15 25 21 19
60 -5 38 -3 44 20 59 20 13 24 23 20 40 -4 18 1 28 21 41 23 15 25 21 19 60
-5 38 -3 44 20 59 20 13 24 23 20 40 -4 18 1 28 21 41 23 15 25 21 19 60 -5
38 -3 44 20 59 20 13 24 23 20 40 -4 18 1 27 20 40 20 13 24 23 20 40 -4 18 1
28 21 41 20 13 25 23 21 40 -4 16 1 26 20 38 23 15 24 22 19 61 -6 39 -5 45
19 61 24 15 26 21 20 60 -5 38 -3 44 20 60 24 15 26 21 20 60 -5 38 -3 44 20
59 20 13 24 23 20 40 -4 18 1 27 20 40 20 13 24 23 20 40 -4 18 1 27 20 40 20
13 24 23 20 40 -4 18 1 28 21 41 23 15 26 21 19 57 -6 38 -4 42 39 82 34 31
45 47 41 63 -4 14 1 25 20 37 19 13 24 23 20 39 -4 17 5 31 40 61 35 29 44 43
40 60 -4 16 5 30 40 60 35 30 45 44 40 59 -5 14 5 30 40 62 33 30 44 47 40 59
-5 13 16 39 80 100 62 59 85 87 80 99 -9 24 938 971 962 962 12 -5 40 17 99
80 64 67 86 85 102 80 14 -5 29 5 58 40 29 33 44 44 59 40 15 -4 35 11 82 61
44 47 67 64 78 60 11 -4 24 3 39 19 15 17 28 23 43 20 16 -4 26 1 39 20 13 19
22 24 40 20 17 -4 27 0 40 20 13 19 22 24 40 20 17 -4 27 0 40 20 13 19 22 24
40 20 17 -4 27 0 40 20 13 19 22 24 40 20 17 -4 27 0 40 20 13 19 22 24 40 20
17 -4 27 0 40 20 13 19 22 24 40 20 17 -4 27 0 40 20 15 23 21 25 59 20 39 -6
45 -4 60 20 16 23 22 25 60 20 39 -6 45 -4 60 20 16 24 22 25 61 19 39 -5 46
-4 61 19 12 19 22 24 38 20 17 -4 27 1 40 21 13 20 23 25 41 21 17 -4 27 0 40
20 13 19 22 24 40 20 17 -4 27 0 40 20 15 23 21 25 59 20 39 -6 45 -4 60 19
13 20 23 25 41 21 17 -4 27 0 40 20 15 24 21 25 60 19 40 -5 45 -4 61 20 13
20 23 25 40 21 16 -4 26 1 39 20 15 24 21 25 60 19 40 -5 45 -4 61 20 13 20
23 25 40 21 16 -4 26 1 39 20 15 23 21 25 59 20 39 -6 45 -4 60 20 16 23 22
25 60 20 39 -6 45 -4 60 20 12 18 24 24 37 21 13 -4 28 4 44 20 22 24 28 26
83 20 56 -6 61 -5 76 18 16 25 17 25 181 25 164 0 165 0 181 -25z M6904 15605
c-15 -23 -21 -25 -60 -19 -38 5 -44 3 -59 -20 -13 -20 -23 -24 -40 -20 -18 4
-27 -1 -40 -20 -13 -20 -23 -24 -40 -20 -18 4 -27 -1 -40 -20 -13 -19 -23 -24
-39 -20 -16 4 -30 -6 -61 -41 -30 -36 -44 -45 -61 -41 -16 4 -26 -1 -39 -20
-12 -19 -22 -24 -39 -20 -18 4 -31 -4 -61 -40 -30 -35 -44 -44 -61 -40 -16 4
-26 -1 -38 -19 -12 -19 -22 -24 -39 -20 -18 5 -31 -4 -62 -40 -29 -35 -44 -45
-60 -41 -16 4 -34 -9 -80 -60 -45 -49 -65 -64 -79 -60 -15 4 -40 -16 -102 -81
-61 -64 -86 -84 -99 -79 -25 9 -128 -94 -119 -119 5 -13 -15 -38 -79 -99 -65
-62 -85 -87 -81 -102 4 -14 -11 -34 -60 -79 -51 -46 -64 -64 -60 -80 4 -16 -6
-30 -40 -60 -35 -29 -44 -43 -40 -60 4 -16 -6 -30 -41 -60 -36 -31 -45 -44
-40 -62 4 -17 -1 -27 -20 -39 -18 -12 -23 -22 -19 -38 4 -17 -5 -31 -41 -61
-36 -31 -45 -44 -40 -62 4 -17 -1 -27 -20 -39 -19 -12 -23 -22 -19 -39 4 -18
-1 -27 -20 -40 -19 -13 -24 -23 -20 -39 4 -17 -1 -27 -21 -40 -20 -13 -25 -23
-21 -41 4 -17 0 -27 -20 -40 -23 -15 -25 -21 -20 -59 6 -39 4 -45 -19 -60
l-25 -16 0 -185 0 -185 26 -16 c24 -16 25 -20 19 -80 -7 -60 -6 -63 19 -79 24
-16 26 -22 21 -60 -6 -37 -4 -43 20 -59 24 -16 25 -21 20 -61 -6 -39 -5 -45
19 -60 20 -13 24 -23 20 -40 -4 -18 1 -27 20 -40 19 -13 24 -23 20 -39 -4 -16
6 -30 41 -61 36 -30 45 -44 41 -61 -4 -16 1 -26 20 -38 18 -13 23 -22 18 -38
-5 -16 7 -33 61 -83 47 -44 66 -68 62 -79 -9 -23 615 -646 640 -640 13 4 36
-14 78 -60 45 -50 64 -64 80 -60 15 4 34 -10 80 -60 46 -51 64 -64 80 -60 16
4 30 -6 60 -40 29 -35 43 -44 60 -40 16 4 30 -5 60 -40 29 -35 43 -44 60 -40
16 4 30 -6 60 -41 31 -36 44 -45 62 -40 17 4 27 -1 39 -20 12 -19 22 -24 37
-19 15 5 30 -4 63 -40 30 -33 47 -44 59 -40 13 5 29 -6 60 -40 30 -32 48 -44
59 -40 23 9 171 -139 162 -162 -4 -11 7 -29 39 -57 31 -28 45 -48 45 -66 0
-16 9 -31 21 -39 18 -11 21 -20 16 -54 -4 -33 -1 -43 19 -61 22 -19 24 -27 24
-123 0 -97 -1 -102 -25 -118 -15 -10 -25 -26 -25 -41 0 -15 10 -31 25 -41 24
-16 25 -21 25 -118 0 -96 -2 -104 -24 -123 -20 -18 -23 -28 -19 -61 5 -34 2
-43 -16 -54 -12 -8 -21 -23 -21 -39 0 -18 -14 -38 -45 -66 -32 -28 -43 -46
-39 -57 9 -23 -139 -171 -162 -162 -11 4 -29 -8 -59 -40 -31 -34 -47 -45 -60
-40 -12 4 -29 -7 -59 -40 -33 -36 -48 -45 -63 -40 -15 5 -25 0 -37 -20 -13
-19 -23 -24 -40 -20 -18 4 -31 -4 -61 -40 -30 -35 -44 -44 -60 -40 -17 4 -31
-5 -60 -40 -30 -35 -44 -44 -60 -40 -17 4 -31 -5 -60 -40 -30 -34 -44 -44 -60
-40 -16 4 -34 -9 -80 -60 -46 -50 -65 -64 -80 -60 -16 4 -35 -10 -80 -60 -42
-46 -65 -64 -78 -60 -25 6 -649 -617 -640 -640 4 -11 -15 -35 -62 -79 -54 -50
-66 -67 -61 -83 5 -16 0 -25 -18 -38 -19 -12 -24 -22 -20 -38 4 -17 -5 -31
-41 -61 -35 -31 -45 -45 -41 -61 4 -16 -1 -26 -20 -39 -19 -13 -24 -22 -20
-40 4 -17 0 -27 -20 -40 -24 -15 -25 -21 -19 -60 5 -40 4 -45 -20 -61 -24 -16
-26 -22 -20 -59 5 -38 3 -44 -21 -60 -25 -16 -26 -19 -19 -79 6 -60 5 -64 -19
-80 l-26 -16 0 -185 0 -185 25 -16 c23 -15 25 -21 19 -60 -5 -38 -3 -44 20
-59 20 -13 24 -23 20 -40 -4 -18 1 -27 20 -40 20 -13 24 -23 20 -40 -4 -18 1
-27 20 -40 19 -13 24 -23 20 -39 -4 -16 6 -30 41 -61 36 -30 45 -44 41 -61 -4
-16 1 -26 20 -39 19 -13 24 -22 20 -40 -4 -17 0 -27 19 -39 19 -12 24 -22 20
-39 -5 -18 4 -31 40 -62 35 -30 45 -44 41 -60 -4 -17 5 -31 40 -60 34 -30 44
-44 40 -60 -4 -16 9 -34 60 -80 49 -45 64 -65 60 -80 -4 -15 15 -39 81 -101
64 -62 84 -86 79 -99 -9 -25 94 -128 119 -119 13 5 38 -15 99 -79 62 -65 87
-85 102 -81 14 4 34 -11 79 -60 46 -51 64 -64 80 -60 16 4 31 -6 60 -41 31
-36 44 -45 62 -40 17 4 27 -1 39 -20 12 -18 22 -23 38 -19 17 4 31 -5 61 -40
30 -36 43 -44 61 -40 17 4 27 -1 39 -20 13 -19 23 -24 39 -20 17 4 31 -5 61
-41 31 -35 45 -45 61 -41 16 4 26 -1 39 -20 13 -19 22 -24 40 -20 17 4 27 0
40 -20 13 -19 22 -24 40 -20 17 4 27 0 40 -20 15 -23 21 -25 59 -20 39 6 45 4
60 -19 l16 -25 185 0 185 0 16 26 c16 24 20 25 80 19 60 -7 63 -6 80 20 16 24
22 26 59 20 38 -5 44 -3 59 20 16 24 21 25 61 20 39 -6 45 -5 60 19 13 20 23
24 40 20 18 -4 27 1 40 20 13 19 23 24 39 20 16 -4 30 6 61 41 30 35 44 45 60
41 17 -4 31 5 60 40 30 35 44 44 60 40 17 -4 31 5 60 39 27 32 43 44 56 40 25
-8 649 616 643 642 -4 13 15 36 60 78 50 45 64 64 60 80 -4 15 10 34 60 80 51
46 64 64 60 80 -4 16 6 30 40 60 35 29 44 43 40 60 -4 16 5 30 40 60 35 29 44
43 40 60 -4 16 5 30 40 60 36 30 44 43 40 61 -4 17 1 27 20 40 20 12 25 22 20
37 -5 15 4 30 40 63 33 30 44 47 40 59 -5 13 6 29 40 60 32 30 44 48 40 59 -9
23 139 171 162 162 11 -4 29 7 57 39 28 31 48 45 66 45 16 0 31 9 39 21 11 18
20 21 54 16 33 -4 43 -1 61 19 19 22 27 24 123 24 97 0 102 -1 118 -25 22 -33
60 -33 82 0 16 24 21 25 118 25 96 0 104 -2 123 -24 18 -20 28 -23 61 -19 34
5 43 2 54 -16 8 -12 23 -21 39 -21 18 0 38 -14 66 -45 28 -32 46 -43 57 -39
23 9 171 -139 162 -162 -4 -11 8 -29 40 -59 34 -31 45 -47 40 -60 -4 -12 7
-29 40 -59 36 -33 45 -48 40 -63 -5 -15 0 -25 20 -37 19 -13 24 -23 20 -40 -4
-18 4 -31 40 -61 35 -30 44 -44 40 -60 -4 -17 5 -31 40 -60 35 -30 44 -44 40
-60 -4 -17 5 -31 40 -60 34 -30 44 -44 40 -60 -4 -16 9 -34 60 -80 50 -46 64
-65 60 -80 -4 -16 10 -35 60 -80 46 -42 64 -65 60 -78 -6 -26 618 -650 643
-642 13 4 29 -8 56 -40 29 -34 43 -43 60 -39 16 4 30 -5 60 -40 29 -35 43 -44
60 -40 16 4 30 -6 60 -41 31 -35 45 -45 61 -41 16 4 26 -1 39 -20 13 -19 22
-24 40 -20 17 4 27 0 40 -20 15 -24 21 -25 60 -19 40 5 45 4 61 -20 15 -23 21
-25 59 -20 37 6 43 4 59 -20 17 -26 20 -27 80 -20 60 6 64 5 80 -19 l16 -26
185 0 185 0 16 25 c15 23 21 25 60 19 38 -5 44 -3 59 20 13 19 23 24 39 20 17
-4 27 1 40 21 13 20 23 25 41 21 17 -4 27 0 40 20 13 19 22 24 40 20 17 -4 27
0 39 19 12 19 22 24 39 20 18 -5 31 4 62 40 30 36 44 45 61 41 16 -4 26 1 38
19 12 19 22 24 39 20 18 -5 31 4 62 40 30 35 44 45 60 41 17 -4 31 5 60 40 30
34 44 44 60 40 16 -4 34 9 80 60 45 49 65 64 79 60 15 -4 40 16 101 80 61 64
85 83 98 78 25 -9 130 96 121 121 -5 13 15 38 79 99 65 62 85 87 81 102 -4 14
11 34 60 79 51 46 64 64 60 80 -4 16 6 31 41 60 36 31 45 44 40 62 -4 17 1 27
20 39 18 12 23 22 19 38 -4 17 5 31 40 61 36 30 44 43 40 61 -4 17 1 27 20 39
19 13 24 23 20 39 -4 17 5 31 41 61 35 31 45 45 41 61 -4 16 1 26 20 39 19 13
24 22 20 40 -4 17 0 27 20 40 19 13 24 22 20 40 -4 17 0 27 20 40 23 15 25 21
20 59 -6 39 -4 45 19 60 l25 16 0 185 0 185 -26 16 c-24 16 -25 20 -19 80 7
60 6 63 -19 79 -24 16 -26 22 -21 60 6 37 4 43 -20 59 -24 16 -25 21 -20 61 6
39 5 45 -19 60 -20 13 -24 23 -20 40 4 18 -1 27 -20 40 -19 13 -24 23 -20 39
4 16 -6 30 -41 61 -35 30 -45 44 -41 60 4 17 -5 31 -40 60 -35 30 -44 44 -40
60 4 17 -5 31 -39 60 -32 27 -44 43 -40 56 8 25 -618 651 -641 642 -11 -4 -41
20 -98 80 -63 66 -87 85 -102 81 -15 -4 -30 6 -59 40 -29 35 -43 44 -60 40
-16 -4 -30 5 -60 40 -29 35 -43 44 -60 40 -16 -4 -30 5 -60 40 -29 35 -43 44
-60 40 -16 -4 -30 6 -60 41 -31 36 -44 45 -62 40 -17 -4 -27 1 -39 20 -12 19
-22 24 -37 19 -15 -5 -30 4 -63 40 -30 33 -47 44 -59 40 -13 -5 -29 6 -60 40
-30 32 -48 44 -59 40 -23 -9 -171 139 -162 162 4 11 -7 29 -39 57 -31 28 -45
48 -45 66 0 16 -9 31 -21 39 -18 11 -21 20 -16 54 4 33 1 43 -19 61 -22 19
-24 27 -24 123 0 97 1 102 25 118 15 10 25 26 25 41 0 15 -10 31 -25 41 -24
16 -25 21 -25 118 0 96 2 104 24 123 20 18 23 28 19 61 -5 34 -2 43 16 54 12
8 21 23 21 39 0 18 14 38 45 66 32 28 43 46 39 57 -9 23 139 171 162 162 11
-4 29 8 59 40 31 34 47 45 60 40 12 -4 29 7 59 40 33 36 48 45 63 40 15 -5 25
0 37 19 12 19 22 24 39 20 18 -5 31 4 62 40 30 35 44 45 60 41 17 -4 31 5 60
40 30 35 44 44 60 40 17 -4 31 5 60 40 30 35 44 44 60 40 17 -4 31 5 60 40 29
34 44 44 59 40 16 -4 39 14 102 81 58 60 87 84 98 80 23 -9 649 618 641 642
-4 13 8 29 40 56 34 29 43 43 39 60 -4 16 5 30 40 60 35 29 44 43 40 60 -4 16
6 30 41 60 35 31 45 45 41 61 -4 16 1 26 20 39 19 13 24 22 20 40 -4 17 0 27
20 40 24 15 25 21 19 60 -5 40 -4 45 20 61 24 16 26 22 20 59 -5 38 -3 44 21
60 25 16 26 19 19 79 -6 60 -5 64 19 80 l26 16 0 185 0 185 -25 16 c-23 15
-25 21 -19 60 5 38 3 44 -20 59 -20 13 -24 23 -20 40 4 18 -1 27 -20 40 -20
13 -24 23 -20 40 4 18 -1 27 -20 40 -19 13 -24 23 -20 39 4 16 -6 30 -41 61
-36 30 -45 44 -41 61 4 16 -1 26 -20 39 -19 13 -24 22 -20 40 4 17 0 27 -19
39 -19 12 -24 22 -20 39 5 18 -4 31 -40 62 -35 30 -45 44 -41 60 4 17 -5 31
-40 60 -34 30 -44 44 -40 60 4 16 -9 34 -60 80 -49 45 -64 65 -60 79 4 15 -16
40 -80 101 -64 61 -83 85 -78 98 9 25 -98 132 -123 123 -13 -5 -37 14 -98 78
-61 64 -86 84 -101 80 -14 -4 -34 11 -79 60 -46 51 -64 64 -80 60 -16 -4 -30
6 -60 40 -29 35 -43 44 -60 40 -16 -4 -30 6 -60 41 -31 36 -44 45 -62 40 -17
-4 -27 1 -39 20 -12 18 -22 23 -38 19 -17 -4 -31 5 -61 41 -31 36 -44 45 -62
40 -17 -4 -27 1 -39 20 -12 19 -22 23 -39 19 -18 -4 -27 1 -40 20 -13 19 -23
24 -39 20 -17 -4 -27 1 -40 21 -13 20 -23 25 -41 21 -17 -4 -27 0 -40 20 -15
23 -21 25 -59 20 -39 -6 -45 -4 -60 19 l-16 25 -185 0 -185 0 -16 -26 c-16
-24 -20 -25 -80 -19 -60 7 -63 6 -80 -20 -16 -24 -22 -26 -59 -20 -38 5 -44 3
-59 -20 -16 -24 -21 -25 -61 -20 -39 6 -45 5 -60 -19 -13 -20 -23 -24 -40 -20
-18 4 -27 -1 -40 -20 -13 -19 -23 -24 -39 -20 -16 4 -30 -6 -61 -41 -30 -36
-44 -45 -61 -41 -16 4 -26 -1 -38 -20 -13 -18 -22 -23 -38 -18 -16 5 -33 -7
-83 -61 -44 -47 -68 -66 -79 -62 -23 9 -646 -615 -640 -640 4 -13 -14 -36 -60
-78 -50 -45 -64 -64 -60 -80 4 -15 -10 -34 -60 -80 -51 -46 -64 -64 -60 -80 4
-16 -6 -30 -40 -60 -35 -29 -44 -43 -40 -60 4 -16 -5 -30 -40 -60 -35 -29 -44
-43 -40 -60 4 -16 -5 -30 -40 -60 -36 -30 -44 -43 -40 -61 4 -17 -1 -27 -20
-40 -20 -12 -25 -22 -20 -37 5 -15 -4 -30 -40 -63 -33 -30 -44 -47 -40 -59 5
-13 -6 -29 -40 -60 -32 -30 -44 -48 -40 -59 9 -23 -139 -171 -162 -162 -11 4
-29 -7 -57 -39 -28 -31 -48 -45 -66 -45 -16 0 -31 -9 -39 -21 -11 -18 -20 -21
-54 -16 -33 4 -43 1 -61 -19 -19 -22 -27 -24 -123 -24 -97 0 -102 1 -118 25
-10 15 -26 25 -41 25 -15 0 -31 -10 -41 -25 -16 -24 -21 -25 -118 -25 -96 0
-104 2 -123 24 -18 20 -28 23 -61 19 -34 -5 -43 -2 -54 16 -8 12 -23 21 -39
21 -18 0 -38 14 -66 45 -28 32 -46 43 -57 39 -23 -9 -171 139 -162 162 4 11
-8 29 -40 59 -34 31 -45 47 -40 60 4 12 -7 29 -40 59 -36 33 -45 48 -40 63 5
15 0 25 -19 37 -19 12 -24 22 -20 39 5 18 -4 31 -40 62 -35 30 -45 44 -41 60
4 17 -5 31 -40 60 -35 30 -44 44 -40 60 4 17 -5 31 -40 60 -34 30 -44 44 -40
60 4 16 -9 34 -60 80 -50 46 -64 65 -60 80 4 16 -10 35 -60 80 -45 42 -64 65
-60 78 6 26 -618 650 -643 642 -13 -4 -29 8 -56 40 -29 34 -43 43 -60 39 -16
-4 -30 5 -60 40 -29 35 -43 44 -60 40 -16 -4 -30 6 -60 41 -31 35 -45 45 -61
41 -16 -4 -26 1 -39 20 -13 19 -22 24 -40 20 -17 -4 -27 0 -40 20 -15 24 -21
25 -60 19 -40 -5 -45 -4 -61 20 -15 23 -21 25 -59 20 -37 -6 -43 -4 -59 20
-17 26 -20 27 -80 20 -60 -6 -64 -5 -80 19 l-16 26 -185 0 -185 0 -16 -25z
m405 -521 c19 -22 27 -24 79 -19 53 5 60 3 80 -20 19 -21 28 -24 60 -19 31 5
40 2 59 -20 14 -16 28 -23 39 -19 10 4 25 -4 40 -20 15 -16 30 -24 40 -20 10
4 31 -10 60 -40 29 -30 50 -44 60 -40 10 4 31 -11 60 -40 28 -29 50 -44 59
-40 21 8 650 -620 642 -641 -4 -11 16 -37 59 -78 44 -43 64 -69 60 -81 -3 -11
11 -33 41 -62 30 -28 44 -49 40 -59 -4 -10 10 -31 40 -60 30 -29 44 -50 40
-60 -4 -10 9 -31 38 -58 27 -26 45 -52 45 -66 0 -13 16 -37 41 -59 27 -25 39
-43 36 -55 -4 -12 9 -33 40 -63 29 -28 44 -49 40 -59 -4 -10 22 -42 79 -98 58
-57 84 -88 81 -100 -7 -24 178 -209 199 -201 10 4 32 -11 60 -40 29 -30 50
-44 60 -40 10 4 31 -11 61 -41 30 -31 51 -45 62 -41 11 3 26 -4 39 -20 19 -22
28 -24 61 -19 32 5 41 3 54 -16 l15 -22 347 0 c346 0 347 0 362 22 13 19 22
21 54 16 33 -5 42 -3 61 19 13 16 28 23 39 20 11 -4 32 10 62 41 30 30 51 45
61 41 10 -4 31 10 60 40 28 29 50 44 60 40 21 -8 206 177 200 201 -3 11 23 44
80 100 58 56 83 87 79 98 -4 10 10 31 40 59 32 32 44 50 40 64 -3 13 2 24 16
33 13 8 21 23 21 39 0 18 13 38 40 63 24 22 40 45 40 58 0 14 18 40 45 66 29
27 42 48 38 58 -4 10 10 31 40 59 30 29 44 51 41 62 -4 12 16 38 60 80 44 43
63 68 60 80 -4 13 26 48 100 121 73 71 103 107 99 118 -8 22 215 247 239 240
13 -3 56 34 143 121 84 85 129 124 140 120 9 -4 25 4 39 20 15 16 30 24 40 20
10 -4 31 10 60 40 29 30 50 44 60 40 10 -4 25 4 40 20 15 16 30 24 40 20 11
-4 25 3 39 19 19 22 28 25 59 20 32 -5 41 -2 60 19 20 23 27 25 80 20 52 -5
60 -3 79 19 20 23 24 24 184 24 160 0 164 -1 184 -24 18 -20 27 -23 59 -18 31
5 40 2 59 -20 14 -16 28 -23 39 -19 10 4 25 -4 40 -20 15 -16 30 -24 40 -20
10 4 25 -4 40 -20 15 -16 30 -24 40 -20 10 4 25 -4 40 -20 15 -16 30 -24 40
-20 10 4 31 -10 60 -40 29 -30 50 -44 60 -40 10 4 31 -11 60 -40 29 -30 50
-44 60 -40 10 4 31 -11 60 -40 28 -29 50 -44 60 -40 10 4 49 -29 119 -100 73
-73 110 -104 123 -101 23 6 87 -59 79 -80 -4 -11 27 -48 99 -118 74 -72 104
-108 100 -121 -3 -11 12 -33 41 -62 30 -28 44 -49 40 -59 -4 -10 9 -31 38 -58
30 -29 45 -51 45 -68 0 -15 9 -31 21 -38 14 -9 19 -20 16 -33 -4 -14 7 -32 39
-62 31 -30 44 -50 44 -69 0 -16 4 -28 10 -28 22 0 29 -92 29 -393 0 -304 -1
-318 -19 -330 -12 -7 -20 -23 -20 -39 0 -17 -8 -33 -20 -40 -12 -8 -20 -24
-20 -40 0 -17 -8 -33 -20 -40 -11 -7 -20 -24 -20 -38 0 -17 -15 -39 -44 -67
-29 -28 -43 -48 -40 -60 3 -13 -21 -43 -80 -101 -59 -57 -83 -87 -79 -98 8
-23 -375 -407 -400 -400 -12 3 -43 -22 -100 -80 -57 -59 -87 -83 -100 -80 -11
3 -33 -12 -62 -41 -28 -30 -49 -44 -59 -40 -11 4 -36 -15 -78 -58 -45 -47 -69
-65 -88 -65 -15 0 -31 -9 -38 -21 -9 -14 -20 -19 -33 -16 -14 4 -32 -8 -64
-40 -28 -30 -49 -44 -59 -40 -10 4 -31 -10 -60 -40 -29 -29 -50 -44 -60 -40
-10 4 -31 -10 -60 -40 -28 -28 -50 -43 -59 -40 -22 8 -366 -338 -360 -362 3
-11 -10 -30 -36 -54 -27 -24 -41 -45 -41 -62 0 -14 -9 -30 -20 -37 -11 -7 -20
-24 -20 -38 0 -17 -15 -39 -44 -67 -41 -39 -44 -45 -39 -82 5 -33 2 -42 -16
-53 -21 -13 -21 -16 -21 -403 0 -387 0 -390 21 -403 18 -11 21 -20 16 -53 -4
-34 -1 -44 20 -64 16 -14 24 -29 20 -39 -4 -10 9 -30 38 -58 30 -29 45 -51 45
-68 0 -15 9 -31 21 -38 14 -9 19 -20 16 -33 -4 -15 12 -36 59 -82 44 -41 64
-68 60 -79 -6 -24 179 -209 200 -201 10 3 38 -18 80 -60 43 -44 70 -64 80 -60
10 4 31 -11 60 -40 29 -30 50 -44 60 -40 10 4 31 -11 60 -40 29 -30 50 -44 60
-40 10 4 31 -11 60 -40 29 -30 50 -44 60 -40 10 4 31 -11 60 -40 29 -30 50
-44 60 -40 10 4 31 -11 60 -40 28 -30 50 -44 60 -40 10 4 37 -17 80 -60 41
-42 70 -64 79 -60 21 8 650 -620 642 -641 -4 -10 9 -31 38 -58 30 -29 45 -51
45 -68 0 -14 9 -31 20 -38 12 -7 20 -23 20 -40 0 -16 8 -32 20 -40 12 -7 20
-23 20 -40 0 -16 8 -32 20 -39 18 -12 19 -26 19 -338 0 -300 -2 -326 -18 -337
-11 -8 -21 -33 -25 -61 -6 -36 -17 -57 -46 -88 -25 -26 -36 -46 -33 -59 3 -12
-3 -23 -16 -32 -13 -8 -21 -23 -21 -39 0 -18 -13 -38 -40 -63 -25 -22 -40 -45
-40 -59 0 -15 -22 -44 -65 -85 -43 -41 -62 -67 -58 -78 4 -10 -17 -37 -60 -80
-44 -43 -64 -70 -60 -80 8 -22 -255 -286 -280 -280 -11 3 -38 -17 -82 -61 -42
-43 -69 -64 -79 -60 -10 4 -32 -10 -60 -40 -29 -29 -50 -44 -60 -40 -10 4 -31
-10 -60 -40 -29 -30 -50 -44 -60 -40 -10 4 -25 -4 -40 -20 -15 -16 -30 -24
-40 -20 -10 4 -30 -9 -58 -38 -29 -30 -51 -45 -68 -45 -14 0 -31 -9 -38 -20
-7 -12 -23 -20 -40 -20 -17 0 -32 -8 -40 -21 -11 -18 -20 -21 -53 -16 -38 5
-69 -10 -69 -34 0 -5 -72 -9 -169 -9 -164 0 -170 1 -185 22 -14 20 -23 22 -81
20 -56 -3 -66 -1 -77 17 -8 13 -23 21 -39 21 -14 0 -34 10 -47 24 -17 21 -27
24 -57 19 -33 -5 -40 -2 -80 40 -32 32 -50 44 -64 40 -13 -3 -24 2 -33 16 -7
12 -23 21 -38 21 -19 0 -43 18 -88 65 -42 43 -67 62 -78 58 -22 -8 -526 495
-520 520 3 12 -23 43 -80 100 -59 57 -84 87 -80 100 3 11 -11 33 -41 62 -30
28 -44 49 -40 59 4 10 -10 31 -40 60 -30 29 -44 50 -40 60 4 10 -9 31 -38 58
-27 26 -45 52 -45 66 0 13 -16 36 -40 58 -25 23 -40 45 -40 60 0 15 -15 37
-40 60 -25 23 -40 45 -40 60 0 15 -15 37 -41 61 -26 24 -39 43 -36 54 7 25
-296 329 -321 322 -11 -3 -38 18 -80 61 -42 45 -67 63 -78 59 -10 -4 -25 4
-40 20 -15 16 -30 24 -40 20 -10 -4 -25 4 -39 20 -20 21 -30 24 -63 20 -32 -4
-42 -1 -54 16 -15 22 -19 22 -363 22 -344 0 -348 0 -363 -22 -12 -17 -22 -20
-54 -16 -33 4 -43 1 -63 -20 -14 -16 -29 -24 -39 -20 -10 4 -25 -4 -40 -20
-15 -16 -30 -24 -40 -20 -10 4 -31 -10 -60 -40 -28 -28 -50 -43 -59 -40 -22 8
-403 -375 -399 -401 2 -12 -12 -33 -38 -55 -24 -22 -40 -46 -40 -59 0 -14 -18
-40 -45 -66 -29 -27 -42 -48 -38 -58 4 -10 -10 -31 -40 -60 -30 -29 -44 -50
-40 -60 4 -10 -11 -31 -40 -60 -30 -29 -44 -50 -40 -60 4 -10 -11 -31 -40 -60
-30 -28 -44 -50 -40 -60 4 -10 -17 -37 -60 -79 -44 -44 -64 -71 -61 -82 3 -13
-22 -44 -80 -100 -58 -57 -83 -88 -80 -100 6 -25 -377 -408 -400 -400 -10 4
-37 -15 -80 -60 -43 -43 -70 -64 -80 -60 -10 4 -32 -10 -60 -40 -29 -30 -50
-44 -60 -40 -10 4 -25 -4 -40 -20 -15 -16 -30 -24 -40 -20 -10 4 -25 -4 -40
-20 -15 -16 -30 -24 -40 -20 -11 4 -24 -3 -38 -18 -13 -15 -32 -25 -47 -25
-16 0 -31 -8 -39 -21 -11 -18 -21 -20 -77 -17 -58 2 -67 0 -81 -20 -15 -21
-21 -22 -178 -22 -159 0 -163 0 -183 24 -18 20 -28 23 -61 19 -34 -5 -43 -2
-54 16 -8 13 -23 21 -40 21 -17 0 -33 8 -40 20 -7 11 -24 20 -38 20 -17 0 -39
15 -68 45 -28 29 -48 42 -58 38 -10 -4 -25 4 -40 20 -15 16 -30 24 -40 20 -10
-4 -31 10 -60 40 -29 30 -50 44 -60 40 -10 -4 -31 11 -60 40 -29 30 -50 44
-60 40 -10 -4 -31 11 -60 40 -28 29 -50 44 -60 40 -21 -8 -446 416 -440 440 3
11 -12 33 -41 62 -30 28 -44 49 -40 59 4 10 -9 31 -38 58 -27 26 -45 52 -45
66 0 13 -16 36 -40 58 -27 25 -40 45 -40 63 0 15 -8 31 -20 39 -12 7 -20 23
-20 40 0 17 -8 32 -21 40 -14 9 -19 20 -16 33 3 13 -6 30 -29 53 -18 18 -38
45 -43 58 -5 14 -10 144 -10 289 0 251 7 329 30 329 5 0 9 13 9 30 0 19 7 34
20 42 12 8 20 24 20 40 0 17 8 33 20 40 11 7 20 24 20 38 0 17 15 39 44 67 29
28 43 48 40 60 -3 13 21 43 80 101 59 57 83 87 79 98 -8 22 255 287 279 280
13 -3 51 29 123 101 69 70 109 103 119 100 10 -4 38 17 80 60 43 43 70 64 80
60 10 -4 32 10 60 40 29 29 50 44 60 40 10 -4 31 10 60 40 29 29 50 44 60 40
10 -4 31 10 60 40 29 29 50 44 60 40 10 -4 31 10 60 40 29 29 50 44 60 40 10
-4 31 10 60 40 29 30 50 44 60 40 11 -4 42 21 98 79 57 58 89 83 100 80 23 -5
89 59 81 80 -8 22 16 44 48 44 25 0 29 4 29 28 0 19 13 39 44 69 30 29 43 48
39 61 -3 13 9 30 36 55 27 24 41 45 41 62 0 14 9 30 20 37 12 8 20 24 20 40 0
17 8 33 20 40 13 8 20 24 20 42 0 16 9 48 19 70 10 23 22 58 25 78 4 21 13 44
21 52 22 22 22 620 0 642 -8 8 -17 31 -21 52 -3 20 -15 55 -25 78 -10 22 -19
54 -19 70 0 18 -7 34 -20 42 -12 7 -20 23 -20 40 0 17 -8 32 -21 40 -14 9 -19
20 -16 33 4 15 -12 36 -59 82 -43 41 -64 68 -61 79 7 24 -257 288 -281 281
-11 -3 -38 18 -80 61 -42 44 -67 63 -78 59 -10 -4 -31 10 -59 40 -32 32 -50
44 -64 40 -13 -3 -24 2 -33 16 -7 12 -23 21 -38 21 -17 0 -39 15 -68 45 -27
29 -48 42 -58 38 -10 -4 -31 10 -59 40 -29 30 -51 44 -62 41 -12 -4 -38 16
-80 60 -43 44 -68 63 -80 60 -12 -4 -38 15 -80 60 -42 43 -68 63 -80 60 -25
-6 -568 538 -560 560 4 10 -10 31 -40 60 -30 29 -44 50 -40 60 4 10 -9 31 -38
58 -30 29 -45 51 -45 68 0 14 -9 31 -20 38 -12 7 -20 23 -20 40 0 16 -8 32
-20 40 -13 8 -20 23 -20 42 0 17 -4 30 -9 30 -23 0 -30 79 -30 329 0 145 5
274 10 288 5 14 25 41 43 59 23 23 32 40 29 53 -3 13 2 24 16 33 13 8 21 23
21 40 0 17 8 33 20 40 12 8 20 24 20 39 0 18 13 38 40 63 25 23 40 45 40 60 0
15 15 37 40 60 24 22 40 45 40 58 0 16 33 56 105 126 68 67 102 108 98 117 -8
22 176 207 200 201 11 -3 38 17 82 61 42 43 69 64 79 60 10 -4 32 10 60 40 29
29 50 44 60 40 10 -4 31 10 60 40 29 30 50 44 60 40 10 -4 25 4 40 20 15 16
30 24 40 20 10 -4 31 10 60 40 29 30 50 44 60 40 10 -4 25 4 40 20 15 16 30
24 40 20 10 -4 25 4 40 20 15 16 30 24 40 20 11 -4 25 3 39 19 19 22 28 25 59
20 32 -5 41 -2 59 18 20 23 25 23 183 24 161 1 164 0 185 -24z"/>
</g>
</svg>
