<?xml version="1.0" encoding="UTF-8"?>
<svg xmlns="http://www.w3.org/2000/svg"
     viewBox="0 0 1024 1024"
     width="1024.000000pt" height="1024.000000pt"
     preserveAspectRatio="xMidYMid meet"
     role="img"
     aria-label="Opita Code symbol">
  <title>Opita Code - Symbol</title>
  <desc>The Opita Code corporate mark. A 4-lobe ring with a central diamond negative space. The mark represents modular engineering: each lobe interlocks with its neighbors around a governed core.</desc>
  <g transform="translate(0.000000,1024.000000) scale(1.000000,-1.000000)" fill="#0D0D0D" stroke="none">
    <path fill-rule="evenodd" d="M375 916 c0 -1 -1 -1 -3 -1 -2 0 -3 0 -4 -1 -1 -1 -3 -1 -3 -1 -1 1
-2 0 -3 -1 -1 0 -2 -1 -3 -1 -1 1 -2 0 -3 0 0 -1 -6 -4 -8 -4 -1 0 -2 0 -3 -1
0 -1 -1 -1 -2 -1 -1 1 -2 0 -3 0 0 -2 -7 -4 -8 -4 0 1 -1 1 -1 0 -1 -1 -12 -6
-13 -6 0 1 -1 1 -1 0 -1 -1 -11 -6 -13 -6 -1 0 -2 0 -3 -1 0 -1 -1 -1 -2 -1
-1 1 -2 0 -3 0 0 -2 -11 -6 -12 -6 0 1 -1 1 -1 0 -1 0 -6 -3 -11 -6 -6 -3 -11
-6 -12 -7 -1 0 -2 -1 -2 -1 -1 0 -3 -1 -3 -2 -1 -1 -3 -2 -3 -2 -1 0 -3 -1 -3
-2 -1 -1 -3 -2 -3 -2 -1 0 -3 -1 -4 -3 -2 -2 -4 -3 -4 -3 -1 0 -3 -2 -5 -4 -3
-2 -5 -4 -5 -4 -2 0 -48 -46 -48 -48 0 0 -2 -3 -5 -5 -3 -3 -5 -6 -5 -7 0 0
-1 -2 -2 -2 -1 -1 -2 -3 -2 -3 0 -1 -1 -3 -2 -3 -1 -1 -2 -3 -2 -4 0 0 -1 -1
-2 -2 0 -1 -2 -3 -3 -6 -1 -2 -2 -4 -3 -4 -1 -1 -13 -25 -14 -28 0 -2 -1 -3
-1 -4 -1 0 -1 -1 -1 -2 0 -2 -3 -8 -4 -9 -1 0 -1 -1 0 -1 0 -1 -1 -4 -3 -7 -2
-4 -3 -7 -3 -8 0 0 -1 -3 -2 -4 -1 -2 -2 -5 -2 -5 0 -1 -1 -4 -2 -5 -1 -2 -2
-5 -2 -5 0 -2 -3 -8 -4 -8 0 -1 -1 -2 0 -3 0 -1 0 -2 -1 -2 -1 -1 -1 -2 -1 -3
0 -2 0 -3 -1 -3 -1 -1 -1 -2 -1 -3 0 -2 0 -3 -1 -3 -1 -1 -1 -2 -1 -3 0 -2 0
-3 -1 -3 -1 -1 -1 -34 0 -34 1 -1 1 -2 1 -3 0 -2 4 -10 6 -13 1 -1 2 -3 3 -4
3 -6 20 -23 27 -26 3 -2 6 -4 7 -4 1 -1 2 -2 2 -2 2 0 11 -9 11 -11 0 0 1 -2
3 -3 2 -2 3 -4 3 -5 0 0 1 -2 3 -4 2 -1 3 -3 3 -3 0 -1 3 -5 7 -9 4 -3 7 -7 7
-8 0 0 2 -3 5 -5 6 -6 6 -7 1 -12 -2 -2 -4 -4 -4 -4 0 -1 -3 -5 -7 -9 -4 -3
-7 -7 -7 -8 0 0 -2 -2 -4 -5 -2 -2 -4 -4 -4 -5 0 0 -1 -2 -3 -3 -2 -2 -3 -4
-3 -4 0 -2 -13 -15 -17 -16 -2 -1 -4 -3 -5 -3 -1 -1 -2 -2 -2 -2 -1 0 -3 -1
-4 -3 -2 -2 -4 -3 -4 -3 -2 0 -12 -10 -12 -12 0 0 -1 -2 -2 -2 -1 -1 -2 -3 -2
-3 0 -1 -1 -2 -2 -3 -1 -1 -2 -3 -2 -5 -1 -2 -2 -4 -3 -4 -1 -1 -2 -3 -1 -4 0
-1 0 -2 -1 -2 -1 -1 -1 -34 0 -35 1 0 1 -1 1 -3 0 -1 0 -2 1 -2 1 -1 1 -2 1
-4 0 -1 0 -2 1 -3 1 0 1 -1 1 -2 0 -2 0 -3 1 -4 0 0 1 -2 2 -4 1 -3 2 -5 2 -5
0 -1 1 -3 2 -5 1 -3 2 -5 2 -5 0 -1 1 -3 2 -5 1 -3 2 -6 3 -7 1 -2 2 -5 3 -7
1 -3 2 -5 2 -5 1 -1 1 -2 1 -3 0 -1 1 -4 2 -5 1 -2 2 -5 2 -5 0 -1 1 -4 3 -7
2 -4 3 -7 3 -7 0 -2 8 -19 10 -21 1 -1 2 -3 3 -5 1 -2 3 -4 3 -5 1 -1 2 -2 2
-2 0 -1 1 -3 2 -3 1 -1 2 -3 2 -3 0 -1 1 -3 2 -4 1 0 2 -2 2 -2 0 -1 1 -3 3
-4 2 -2 3 -4 3 -4 0 -1 4 -5 8 -10 4 -4 8 -8 8 -8 0 -2 22 -24 24 -24 0 0 5
-4 10 -9 4 -5 9 -9 10 -9 0 0 2 -1 3 -3 2 -2 4 -3 4 -3 1 0 3 -2 5 -3 2 -2 4
-4 4 -4 1 0 6 -2 6 -3 1 -1 3 -2 5 -3 3 -1 5 -3 6 -4 1 -1 3 -2 3 -1 0 0 1 -1
2 -2 1 0 2 -1 2 0 1 0 16 -7 17 -8 0 -1 1 -1 1 -1 0 1 1 0 2 0 1 -1 2 -2 3 -1
0 0 2 0 3 -1 1 -1 2 -2 2 -1 1 0 8 -3 9 -4 0 -1 1 -1 1 0 1 0 12 -5 13 -6 0
-1 1 -1 1 0 1 0 8 -2 9 -4 0 -1 1 -1 1 0 1 0 8 -2 9 -4 0 -1 1 -1 1 0 1 0 8
-2 8 -4 1 0 2 -1 3 0 1 0 2 -1 3 -1 1 -1 2 -2 3 -1 0 0 2 0 3 -1 1 -1 2 -1 4
-1 1 0 3 0 4 -1 2 -2 23 -2 25 0 1 1 3 1 3 1 1 -1 2 0 3 1 1 0 2 1 3 1 1 -1 2
0 3 1 1 0 2 1 2 1 1 0 3 1 4 2 0 1 2 2 2 2 2 0 20 18 21 22 1 2 2 4 3 5 1 0 2
2 3 5 1 2 2 4 3 5 1 0 2 1 2 3 1 1 2 2 2 2 1 0 3 1 4 2 0 1 2 2 3 2 0 0 1 1 2
2 1 1 3 2 3 2 0 -1 3 1 5 4 2 2 5 4 5 4 1 0 6 4 11 9 4 5 9 9 10 9 0 0 3 2 5
5 7 7 10 7 19 -2 3 -4 7 -7 8 -7 0 0 4 -3 8 -7 3 -4 7 -7 8 -7 0 0 2 -1 4 -3
1 -2 3 -3 4 -3 0 0 2 -1 4 -3 1 -2 3 -3 3 -3 2 0 9 -7 9 -9 0 0 1 -2 2 -2 1
-1 2 -3 2 -3 0 -1 1 -3 2 -3 1 -1 2 -3 2 -3 0 -1 1 -3 2 -4 1 0 2 -2 2 -2 0
-2 18 -20 20 -20 0 0 2 -1 2 -2 1 -1 3 -2 4 -2 0 0 1 -1 2 -1 1 -1 2 -2 3 -1
1 0 2 -1 3 -1 1 -1 2 -2 3 -1 0 0 2 0 3 -1 2 -2 23 -2 25 0 1 1 3 1 4 1 2 0 3
0 4 1 1 1 3 1 3 1 1 -1 2 0 3 1 1 0 2 1 3 1 1 -1 2 0 3 0 0 2 7 4 8 4 0 -1 1
-1 1 0 1 2 8 4 9 4 0 -1 1 -1 1 0 1 1 12 6 13 6 0 -1 1 -1 1 0 1 1 8 4 9 4 0
-1 1 0 2 1 1 1 2 1 2 1 0 -1 1 -1 2 0 1 1 3 2 3 2 1 -1 2 0 3 0 0 2 7 4 8 4 0
-1 1 -1 1 0 1 0 8 4 17 9 9 4 17 9 18 10 1 0 2 1 2 1 1 0 3 1 3 2 1 1 3 2 4 2
0 0 2 1 3 2 0 1 2 2 2 2 1 0 3 2 5 4 3 2 5 4 5 4 2 0 56 54 56 56 0 0 1 2 2 3
1 0 2 2 2 2 0 1 2 3 4 5 2 3 4 5 4 6 0 0 1 1 2 2 0 1 2 3 3 5 1 3 3 6 4 8 4 5
16 31 18 36 0 3 2 6 2 7 0 0 1 2 2 4 1 2 2 6 4 9 1 2 2 5 2 5 0 1 1 4 3 7 2 4
3 8 4 9 0 2 1 3 1 4 1 0 1 1 1 2 0 2 0 3 1 4 0 0 2 4 3 9 2 5 4 10 5 12 7 16
1 50 -11 61 -1 1 -2 3 -2 3 0 2 -8 10 -10 10 0 0 -2 1 -3 3 -1 1 -4 3 -7 4 -2
1 -4 2 -4 3 -1 1 -3 2 -5 3 -4 2 -9 6 -9 7 0 1 -2 3 -4 6 -2 2 -4 4 -4 5 0 0
-1 2 -3 3 -2 2 -3 4 -3 4 0 1 -2 4 -5 7 -3 2 -5 5 -5 5 0 1 -4 5 -8 9 -9 10
-10 11 -4 16 2 3 4 5 4 5 0 1 3 5 7 8 4 4 7 8 7 9 0 0 1 2 3 4 2 1 3 3 3 4 0
0 1 2 3 4 2 1 3 3 3 3 0 3 14 15 21 18 6 3 25 20 25 23 0 0 1 1 1 2 6 5 13 25
13 38 0 11 -5 35 -9 40 0 0 -1 2 -2 5 -1 2 -2 5 -3 7 -1 1 -2 4 -3 7 -1 2 -2
5 -3 7 -1 1 -2 4 -3 7 -1 2 -2 4 -2 5 0 0 -2 4 -3 7 -1 4 -3 9 -5 12 -1 2 -2
5 -2 5 0 2 -12 26 -13 27 -1 0 -2 2 -3 4 -1 3 -3 5 -3 6 -1 1 -2 2 -2 2 0 1
-1 3 -2 4 -1 0 -2 2 -2 2 0 1 -1 3 -3 5 -2 1 -3 3 -3 3 0 1 -2 4 -5 7 -3 2 -5
5 -5 5 0 2 -40 42 -42 42 0 0 -3 2 -5 5 -3 3 -6 5 -7 5 0 0 -2 1 -3 3 -2 2 -4
3 -5 3 0 0 -2 1 -2 2 -1 1 -3 2 -4 2 0 0 -1 1 -2 2 -1 0 -3 2 -6 3 -2 1 -4 2
-4 3 -1 0 -5 3 -9 5 -5 2 -9 5 -10 5 0 1 -1 1 -1 0 -1 0 -12 4 -12 6 -1 0 -2
1 -3 0 -1 0 -2 0 -2 1 -1 1 -2 1 -3 1 -2 0 -12 5 -13 6 0 1 -1 1 -1 0 -1 0 -8
2 -8 4 -1 0 -2 1 -2 0 -1 0 -3 1 -5 2 -2 1 -5 2 -5 2 -2 0 -8 3 -9 4 0 1 -1 1
-1 0 -1 0 -8 2 -8 4 -1 0 -2 1 -3 0 -1 0 -2 1 -3 1 -1 1 -2 2 -3 1 0 0 -2 0
-3 1 -1 1 -2 1 -4 1 -2 0 -3 0 -3 1 -1 1 -26 1 -27 0 0 -1 -2 -1 -3 -1 -2 0
-3 0 -4 0 0 -1 -3 -2 -6 -4 -4 -2 -8 -4 -9 -5 -1 -2 -3 -3 -3 -3 -2 0 -12 -10
-12 -12 0 0 -1 -2 -3 -3 -2 -2 -3 -4 -3 -5 0 0 -1 -1 -2 -2 0 -1 -2 -3 -3 -5
-1 -3 -3 -6 -5 -8 -2 -2 -4 -4 -4 -5 0 0 -1 -1 -2 -2 -2 0 -3 -2 -4 -2 -1 -1
-2 -2 -2 -2 -1 0 -3 -1 -4 -3 -2 -2 -4 -3 -4 -3 -1 0 -3 -2 -5 -4 -3 -2 -5 -4
-5 -4 -1 0 -6 -4 -10 -9 -5 -5 -10 -9 -10 -9 -1 0 -2 -1 -4 -2 -3 -3 -6 -1
-18 10 -5 6 -10 10 -11 10 0 0 -3 2 -5 5 -3 3 -6 5 -7 5 0 0 -2 1 -2 2 -1 1
-3 2 -3 2 -1 0 -3 1 -3 2 -1 1 -3 2 -3 2 -2 0 -7 5 -7 7 0 0 -1 2 -2 3 -1 0
-2 2 -2 3 0 0 -1 1 -2 2 0 1 -2 3 -3 5 -1 3 -3 6 -5 8 -2 2 -4 4 -4 4 0 2 -8
10 -10 10 0 0 -2 1 -3 3 -1 1 -5 3 -9 5 -3 2 -6 3 -6 4 -1 0 -2 0 -4 0 -1 0
-3 0 -3 1 -1 1 -26 1 -27 0z m23 -21 c0 -2 1 -2 3 -1 3 0 12 -4 15 -8 2 -2 3
-3 3 -2 1 1 5 -3 5 -4 0 -1 1 -3 2 -4 1 -1 2 -2 2 -2 -1 -1 0 -2 2 -3 1 -2 2
-3 2 -5 -1 -1 0 -2 1 -2 1 -1 1 -2 0 -5 0 -4 2 -8 5 -8 0 0 1 -1 2 -2 1 -1 3
-2 4 -1 0 0 2 -1 3 -2 0 -2 2 -3 3 -2 0 0 1 0 2 -1 0 -1 1 -2 1 -1 1 0 3 -1 5
-3 1 -2 3 -3 4 -3 0 0 2 -1 4 -3 1 -2 3 -3 4 -3 0 0 5 -4 10 -9 4 -5 9 -9 9
-9 2 0 5 -3 5 -5 -1 0 3 -4 7 -9 4 -4 8 -8 8 -9 0 -1 0 -2 1 -2 1 0 18 17 17
18 0 2 3 5 5 5 0 0 5 4 9 9 5 5 10 9 11 9 0 -1 2 1 4 4 3 2 5 4 5 4 1 0 2 0 3
2 1 1 3 2 4 2 0 -1 2 0 2 2 1 1 3 2 3 2 1 -1 3 0 3 2 1 1 3 2 3 2 1 -1 3 0 4
1 1 1 2 2 3 2 2 0 4 4 4 8 -1 3 -1 4 0 5 1 0 2 1 1 2 0 2 1 3 2 5 2 1 3 2 2 3
0 0 1 1 2 2 1 1 2 3 2 4 0 1 4 5 5 4 0 -1 1 0 3 2 3 4 12 8 15 8 2 -1 3 -1 3
1 1 2 18 2 19 0 0 -1 1 -2 4 -1 2 0 3 0 4 -1 0 -1 1 -2 2 -1 0 0 1 -1 2 -1 0
-1 1 -2 3 -1 1 0 2 0 3 -1 0 -1 1 -2 3 -1 1 0 2 0 3 -1 0 -1 1 -2 2 -1 0 0 1
-1 2 -1 0 -1 1 -2 3 -1 1 0 2 0 3 -1 0 -1 1 -2 2 -1 0 0 1 -1 2 -1 0 -1 1 -2
3 -1 1 0 2 0 3 -1 0 -1 1 -2 2 -1 0 0 1 -1 2 -1 0 -1 1 -2 3 -1 1 0 2 0 3 -1
0 -1 1 -2 2 -1 0 0 1 0 2 -1 0 -1 1 -2 2 -1 0 0 1 -1 2 -1 0 -1 1 -2 2 -2 0 1
1 0 1 -1 1 -1 2 -1 3 0 2 0 3 0 4 -1 0 -1 1 -2 3 -1 1 0 2 0 3 -1 0 -1 1 -2 2
-2 2 1 8 -2 8 -3 0 -1 1 -1 1 0 1 0 2 0 3 -1 0 -1 1 -2 2 -1 0 0 1 0 2 -1 0
-1 1 -2 2 -1 0 0 1 0 2 -1 0 -1 1 -2 2 -1 0 0 1 0 2 -1 0 -1 1 -2 2 -1 0 0 1
0 2 -1 0 -1 1 -2 1 -1 1 0 3 -1 4 -2 1 -2 2 -2 3 -2 0 0 2 -1 3 -2 0 -2 2 -3
3 -2 0 0 2 -1 3 -2 0 -2 2 -3 2 -2 1 0 3 -2 6 -4 2 -3 4 -5 4 -4 2 0 49 -47
49 -49 -1 0 1 -2 4 -4 2 -2 4 -5 4 -5 0 -1 0 -2 2 -3 1 -1 2 -3 2 -4 -1 0 0
-2 2 -2 1 -1 2 -3 2 -3 0 -1 0 -2 2 -3 1 -1 2 -3 2 -4 -1 0 0 -1 1 -1 1 -1 1
-2 1 -2 -1 -1 0 -2 1 -2 1 -1 1 -2 1 -2 -1 -1 0 -2 1 -2 1 -1 1 -2 1 -2 -1 -1
0 -2 1 -2 1 -1 1 -2 1 -2 -1 -1 0 -2 1 -2 1 -1 1 -2 1 -2 -1 -1 0 -2 1 -2 1
-1 1 -2 1 -2 -1 -1 0 -2 1 -2 1 -1 1 -2 1 -3 -1 -2 0 -3 1 -3 1 -1 1 -2 1 -3
-1 -2 0 -3 1 -3 1 -1 1 -2 1 -4 -1 -1 -1 -2 0 -3 1 0 2 -1 1 -1 0 -1 1 -2 2
-2 0 -1 1 -2 1 -2 -1 -1 0 -2 1 -2 1 -1 1 -2 1 -4 -1 -1 -1 -2 1 -3 0 0 1 -1
1 -2 -1 0 0 -1 1 -1 1 -1 1 -2 1 -2 -1 -1 0 -2 1 -2 1 -1 1 -2 1 -3 -1 -2 0
-3 1 -3 0 -1 1 -2 1 -2 -1 -1 0 -2 1 -2 1 -1 1 -2 1 -3 -1 -2 0 -3 1 -3 0 -1
1 -2 1 -2 -1 -1 0 -2 1 -2 1 -1 1 -2 1 -3 -1 -2 0 -3 1 -3 1 -1 1 -2 1 -3 -1
-2 0 -3 1 -3 0 -1 1 -2 1 -2 -1 -1 0 -2 1 -2 1 -1 1 -2 1 -4 -1 -3 0 -4 1 -4
2 -1 2 -18 0 -19 -2 0 -2 -1 -1 -3 0 -3 -4 -12 -8 -15 -2 -2 -3 -3 -2 -3 1 -1
-3 -5 -4 -5 -1 0 -3 -1 -4 -2 -1 -1 -2 -2 -2 -2 -1 1 -2 0 -3 -2 -2 -1 -3 -2
-5 -2 -1 1 -2 0 -2 -1 -1 -1 -2 -1 -5 0 -5 0 -11 -4 -10 -7 1 0 0 -1 0 -1 -1
-1 -2 -2 -1 -2 0 -1 -1 -3 -2 -4 -2 0 -3 -2 -2 -3 0 0 0 -1 -1 -2 -1 0 -2 -1
-1 -1 0 -1 -1 -3 -3 -5 -2 -1 -3 -3 -3 -4 0 0 -2 -3 -4 -5 -3 -2 -5 -4 -4 -4
0 -1 -4 -6 -9 -11 -5 -4 -9 -9 -9 -10 0 -1 -1 -2 -2 -2 -1 0 -5 -3 -9 -7 -5
-4 -9 -8 -10 -8 -3 0 -2 -2 5 -8 3 -4 8 -8 9 -9 2 -2 4 -3 5 -3 1 0 2 -1 2 -2
0 -1 4 -6 9 -10 5 -5 9 -10 9 -11 -1 0 1 -2 4 -4 2 -2 4 -5 4 -5 0 -1 1 -3 3
-4 2 -2 3 -4 3 -5 -1 0 0 -1 1 -1 1 -1 1 -2 1 -2 -1 -1 0 -3 2 -3 1 -1 2 -3 2
-4 -1 0 0 -2 2 -3 1 -1 2 -2 1 -2 -2 -2 4 -5 8 -5 3 1 4 1 5 0 0 -1 1 -2 2 -1
2 0 3 -1 5 -2 1 -2 2 -3 3 -2 0 0 1 -1 2 -2 1 -1 3 -2 3 -2 2 0 6 -4 5 -5 -1
0 0 -1 2 -3 4 -3 8 -12 8 -15 -1 -2 -1 -3 1 -3 2 -1 2 -18 0 -19 -1 0 -2 -1
-1 -4 0 -2 0 -3 -1 -4 -1 0 -2 -1 -1 -2 0 0 -1 -1 -1 -2 -1 0 -2 -1 -1 -3 0
-1 0 -2 -1 -3 -1 0 -2 -1 -1 -3 0 -1 0 -2 -1 -3 -1 0 -2 -1 -1 -2 0 0 -1 -1
-1 -2 -1 0 -2 -1 -1 -3 0 -1 0 -2 -1 -3 -1 0 -2 -1 -1 -2 0 0 -1 -1 -1 -2 -1
0 -2 -1 -1 -3 0 -1 0 -2 -1 -3 -1 0 -2 -1 -1 -2 0 0 0 -1 -1 -2 -1 0 -2 -1 -1
-1 0 -1 -1 -2 -1 -2 -2 -1 -2 -2 -1 -3 0 -2 0 -3 -1 -4 -1 0 -2 -1 -1 -2 0 0
0 -1 -1 -2 -1 0 -2 -1 -1 -1 0 -1 -1 -2 -1 -2 -2 -1 -2 -2 -1 -3 0 -2 0 -3 -1
-4 -1 0 -2 -1 -1 -3 0 -1 0 -2 -1 -3 -1 0 -2 -1 -1 -3 0 -1 0 -2 -1 -3 -1 0
-2 -1 -1 -2 0 0 0 -1 -1 -2 -1 0 -2 -1 -1 -2 0 0 0 -1 -1 -2 -1 0 -2 -1 -1 -2
0 0 0 -1 -1 -2 -1 0 -2 -1 -1 -2 0 0 0 -1 -1 -2 -1 0 -2 -1 -1 -2 0 0 0 -1 -1
-2 -1 0 -2 -1 -1 -2 0 0 0 -1 -1 -2 -1 0 -2 -1 -1 -1 0 -1 -1 -3 -2 -4 -2 -1
-2 -2 -2 -3 0 0 -1 -2 -2 -3 -2 0 -3 -2 -2 -3 0 0 -1 -2 -2 -3 -2 0 -3 -2 -2
-2 0 -1 -2 -3 -4 -6 -3 -2 -5 -4 -4 -4 0 -2 -47 -49 -49 -49 0 1 -2 -1 -4 -4
-3 -2 -5 -4 -6 -4 0 1 -2 0 -2 -2 -1 -1 -3 -2 -3 -2 -1 1 -3 0 -3 -2 -1 -1 -3
-2 -3 -2 -1 1 -3 0 -3 -2 -1 -1 -3 -2 -3 -2 -1 1 -2 0 -2 -1 -1 -1 -2 -1 -2
-1 -1 1 -2 0 -2 -1 -1 -1 -2 -1 -2 -1 -1 1 -2 0 -2 -1 -1 -1 -2 -1 -2 -1 -1 1
-2 0 -2 -1 -1 -1 -2 -1 -2 -1 -1 1 -2 0 -2 -1 -1 -1 -2 -1 -2 -1 -1 1 -2 0 -2
-1 -1 -1 -2 -1 -2 -1 -1 1 -2 0 -2 -1 -1 -1 -2 -1 -3 -1 -2 1 -3 0 -3 -1 -1
-1 -2 -1 -3 -1 -2 1 -3 1 -3 -1 -1 -1 -2 -1 -3 0 -2 0 -3 0 -4 -1 0 -1 -1 -2
-1 -1 -1 0 -2 -1 -2 -2 -1 0 -2 -1 -2 -1 -1 1 -2 0 -2 -1 -1 -1 -2 -1 -4 -1
-1 1 -2 1 -3 -1 0 0 -1 -1 -2 -1 0 1 -1 0 -1 -1 -1 -1 -2 -1 -2 -1 -1 1 -2 0
-2 -1 -1 -1 -2 -1 -3 -1 -2 1 -3 0 -3 -1 -1 0 -2 -1 -2 -1 -1 1 -2 0 -2 -1 -1
-1 -2 -1 -3 -1 -2 1 -3 0 -3 -1 -1 0 -2 -1 -2 -1 -1 1 -2 0 -2 -1 -1 -1 -2 -1
-3 -1 -2 1 -3 0 -3 -1 -1 -1 -2 -1 -3 -1 -2 1 -3 0 -3 -1 -1 0 -2 -1 -2 -1 -1
1 -2 0 -2 -1 -1 -1 -2 -1 -4 -1 -3 1 -4 0 -4 -1 -1 -2 -18 -2 -19 0 0 2 -1 2
-3 1 -3 0 -12 4 -15 8 -2 2 -3 3 -3 2 -1 -1 -5 3 -5 5 0 0 -1 2 -2 3 -1 1 -2
2 -2 2 1 1 0 2 -2 3 -1 2 -2 3 -2 5 1 1 0 2 -1 2 -1 1 -1 2 0 5 0 4 -2 8 -5 8
0 0 -1 1 -2 2 -1 1 -3 2 -4 1 0 0 -2 1 -3 2 0 2 -2 3 -3 2 0 0 -2 1 -3 2 0 2
-2 3 -2 2 -1 0 -3 1 -4 2 -1 2 -2 2 -3 2 0 0 -2 2 -5 4 -2 3 -4 5 -4 4 -1 0
-6 4 -11 9 -4 5 -9 9 -10 9 -1 0 -2 1 -2 2 0 1 -1 3 -2 4 -1 2 -6 6 -9 10 -7
7 -9 8 -9 5 0 -1 -4 -5 -8 -9 -4 -5 -7 -9 -7 -10 0 -1 -1 -2 -2 -2 -1 0 -6 -4
-10 -9 -5 -5 -10 -9 -11 -9 0 1 -2 -1 -4 -4 -2 -2 -5 -4 -5 -4 -1 0 -3 -1 -4
-3 -2 -2 -4 -3 -5 -3 0 1 -1 0 -1 -1 -1 -1 -2 -1 -2 -1 -1 1 -3 0 -3 -2 -1 -1
-3 -2 -4 -2 0 1 -1 0 -2 0 0 -1 -1 -2 -1 -1 -3 1 -7 -6 -7 -9 1 -4 -1 -10 -3
-10 -1 0 -1 0 -1 -1 1 -1 -2 -6 -4 -8 0 -1 -1 -2 -1 -2 0 -2 -4 -6 -5 -5 0 1
-1 0 -3 -2 -3 -4 -12 -8 -15 -8 -2 1 -3 1 -3 -1 -1 -2 -18 -2 -19 0 0 1 -1 2
-4 1 -2 0 -3 0 -4 1 0 1 -1 2 -2 1 0 0 -1 1 -2 1 0 1 -1 2 -3 1 -1 0 -2 0 -3
1 0 1 -1 2 -3 1 -1 0 -2 0 -3 1 0 1 -1 2 -2 1 0 0 -1 1 -2 1 0 1 -1 2 -3 1 -1
0 -2 0 -3 1 0 1 -1 2 -1 1 -1 0 -2 1 -2 1 -1 2 -2 2 -3 1 -2 0 -3 0 -4 1 0 1
-1 2 -2 1 0 0 -1 1 -2 1 0 1 -1 2 -3 1 -1 0 -2 0 -3 1 0 1 -1 2 -2 1 0 0 -1 0
-2 1 0 1 -1 2 -2 1 0 0 -1 1 -2 1 0 1 -1 2 -2 2 0 -1 -1 0 -1 1 -1 1 -2 1 -3
0 -2 0 -3 0 -4 1 0 1 -1 2 -3 1 -1 0 -2 0 -3 1 0 1 -1 2 -3 1 -1 0 -2 0 -3 1
0 1 -1 2 -2 1 0 0 -1 0 -2 1 0 1 -1 2 -2 1 0 0 -1 0 -2 1 0 1 -1 2 -2 1 0 0
-1 0 -2 1 0 1 -1 2 -2 1 0 0 -1 0 -2 1 0 1 -1 2 -2 1 0 0 -1 0 -2 1 0 1 -1 2
-2 1 0 0 -1 0 -2 1 0 1 -1 2 -1 1 -1 0 -3 1 -4 2 -1 2 -2 2 -3 2 0 0 -2 1 -3
2 0 2 -2 3 -2 2 -1 0 -3 1 -4 2 -1 2 -2 2 -3 2 0 0 -2 2 -5 4 -2 3 -4 5 -4 4
-2 0 -49 47 -49 49 1 0 -1 2 -4 4 -2 2 -4 5 -4 5 0 1 0 2 -2 3 -1 1 -2 3 -2 4
1 0 0 2 -2 2 -1 1 -2 3 -2 3 0 1 0 2 -2 3 -1 1 -2 3 -2 4 1 0 0 1 -1 1 -1 1
-1 2 -1 2 1 1 0 2 -1 2 -1 1 -1 2 -1 2 1 1 0 2 -1 2 -1 1 -1 2 -1 2 1 1 0 2
-1 2 -1 1 -1 2 -1 2 1 1 0 2 -1 2 -1 1 -1 2 -1 2 1 1 0 2 -1 2 -1 1 -1 2 -1 2
1 1 0 2 -1 2 -1 1 -1 2 -1 3 1 2 0 3 -1 3 -1 1 -1 2 -1 3 1 2 0 3 -1 3 -1 1
-1 2 -1 4 1 1 1 2 0 3 -1 0 -2 1 -1 1 0 1 -1 2 -2 2 0 1 -1 2 -1 2 1 1 0 2 -1
2 -1 1 -1 2 -1 2 1 1 0 2 -1 2 -1 1 -1 2 -1 3 1 2 0 3 -1 3 0 1 -1 2 -1 2 1 1
0 2 -1 2 -1 1 -1 2 -1 3 1 2 0 3 -1 3 0 1 -1 2 -1 2 1 1 0 2 -1 2 -1 1 -1 2
-1 3 1 2 0 3 -1 3 0 1 -1 2 -1 2 1 1 0 2 -1 2 -1 1 -1 2 -1 3 1 2 0 3 -1 3 -1
1 -1 2 -1 3 1 2 0 3 -1 3 0 1 -1 2 -1 2 1 1 0 2 -1 2 -1 1 -1 2 -1 4 1 3 0 4
-1 4 -2 1 -2 18 0 19 2 0 2 1 1 3 0 3 4 12 8 15 2 2 3 3 2 3 -1 1 3 5 5 5 0 0
2 1 3 2 1 1 2 2 2 2 1 -1 2 0 3 2 2 1 3 2 5 2 1 -1 2 0 2 1 1 1 2 1 5 0 4 0 8
2 8 5 0 0 1 2 2 3 1 1 2 2 2 3 -1 0 0 2 1 3 2 0 3 2 2 3 0 0 0 1 1 2 1 0 2 1
1 1 0 1 1 3 3 5 2 1 3 3 3 4 0 0 1 2 3 4 2 1 3 3 3 4 0 0 4 5 9 10 5 4 9 9 9
9 0 2 5 7 7 7 0 -1 4 2 8 6 3 4 7 7 8 7 1 0 2 1 2 3 0 1 -1 2 -2 2 -1 0 -5 4
-9 8 -5 4 -9 7 -10 7 -1 0 -2 1 -2 2 0 1 -4 6 -10 11 -5 6 -10 11 -10 12 0 0
-1 2 -3 3 -2 2 -3 4 -3 4 0 1 -1 3 -3 4 -2 2 -3 4 -3 5 1 0 0 1 -1 1 -1 1 -1
2 -1 2 1 1 0 3 -2 3 -1 1 -2 3 -1 3 0 1 -1 3 -2 4 -2 1 -3 2 -2 2 2 2 -4 5 -8
5 -3 -1 -4 -1 -5 1 0 0 -1 1 -2 0 -2 0 -3 1 -5 2 -1 2 -2 3 -3 2 0 0 -1 1 -2
2 -1 1 -3 2 -4 2 -1 0 -5 4 -4 5 1 0 0 1 -2 3 -4 3 -8 12 -8 15 1 2 1 3 -1 3
-2 1 -2 18 0 19 1 0 2 1 1 4 0 2 0 3 1 4 1 0 2 1 1 2 0 0 1 1 1 2 1 0 2 1 1 3
0 1 0 2 1 3 1 0 2 1 1 3 0 1 0 2 1 3 1 0 2 1 1 2 0 0 1 1 1 2 1 0 2 1 1 3 0 1
0 2 1 3 1 0 2 1 1 2 0 0 1 1 1 2 1 0 2 1 1 3 0 1 0 2 1 3 1 0 2 1 1 2 0 0 1 1
1 2 1 0 2 1 1 3 0 1 0 2 1 3 1 0 2 1 1 2 0 0 0 1 1 2 1 0 2 1 1 2 0 0 1 1 1 2
1 0 2 1 2 2 -1 0 0 1 1 1 1 1 1 2 0 3 0 2 0 3 1 4 1 0 2 1 1 3 0 1 0 2 1 3 1
0 2 1 1 3 0 1 0 2 1 3 1 0 2 1 1 2 0 0 0 1 1 2 1 0 2 1 1 2 0 0 0 1 1 2 1 0 2
1 1 2 0 0 1 1 1 2 1 0 2 1 1 2 0 2 1 3 2 5 2 1 2 2 2 3 0 0 1 1 1 2 1 0 2 1 1
2 0 0 1 2 2 3 2 0 3 2 2 3 0 0 1 2 2 3 2 0 3 2 2 2 0 1 1 3 2 4 2 1 2 2 2 3 0
0 2 3 4 5 3 2 5 4 4 4 0 2 47 49 49 49 0 -1 2 1 4 4 3 2 5 4 6 4 0 -1 2 0 2 2
1 1 3 2 3 2 1 -1 3 0 4 2 2 3 8 6 9 5 0 0 1 1 1 2 1 0 2 1 2 1 1 -1 2 0 2 1 1
1 2 1 2 1 1 -1 2 0 2 1 1 1 2 1 2 1 1 -1 2 0 2 1 1 1 2 1 2 1 1 -1 2 0 2 1 1
1 2 1 2 1 1 -1 2 0 2 1 1 1 2 1 2 1 1 -1 2 0 2 1 1 1 2 1 3 1 2 -1 3 0 3 1 1
1 2 1 3 1 2 -1 3 0 3 1 1 1 2 1 4 1 1 -1 2 -1 3 0 0 1 1 2 1 1 1 0 2 1 2 2 1
0 2 1 2 1 1 -1 2 0 2 1 1 1 2 1 2 1 1 -1 2 0 2 1 1 1 2 1 3 1 2 -1 3 0 3 1 1
0 2 1 2 1 1 -1 2 0 2 1 1 1 2 1 4 1 1 -1 2 -1 3 1 0 0 1 1 2 1 0 -1 1 0 1 1 1
1 2 1 4 1 1 -1 2 -1 3 1 0 0 1 1 2 1 0 -1 1 0 1 1 1 1 2 1 3 1 2 -1 3 0 3 1 1
1 2 1 4 1 1 -1 2 -1 2 0 0 2 7 4 9 4 2 -1 3 -1 3 1 1 1 3 1 10 1 6 0 8 0 9 -1z
M345 781 c0 -2 -1 -2 -3 -1 -1 0 -2 0 -3 -1 0 -1 -1 -2 -2 -1 0 0 -1 0 -2 -1
0 -1 -1 -2 -2 -1 0 0 -1 0 -2 -1 0 -1 -1 -2 -1 -1 -1 0 -2 -1 -3 -3 -1 -1 -3
-2 -3 -2 -1 1 -2 0 -2 -1 -1 -1 -2 -1 -2 -1 -1 1 -3 0 -3 -2 -1 -1 -3 -2 -3
-2 -1 1 -2 0 -2 -1 -1 0 -2 -1 -2 0 -1 0 -2 -1 -3 -3 -1 -1 -3 -2 -4 -2 0 1
-2 -1 -4 -3 -1 -2 -3 -3 -3 -3 -1 1 -3 -1 -5 -4 -3 -2 -5 -4 -5 -4 -2 1 -7 -4
-6 -6 0 0 -2 -2 -4 -5 -3 -2 -5 -4 -4 -5 0 0 -1 -2 -3 -3 -2 -2 -4 -4 -3 -4 0
-1 -1 -3 -2 -4 -2 0 -3 -2 -2 -3 0 0 -1 -2 -2 -3 -2 -1 -3 -2 -3 -3 1 0 0 -1
0 -2 -1 0 -2 -1 -1 -2 0 0 -1 -2 -2 -3 -2 -1 -3 -2 -3 -3 1 0 0 -1 0 -2 -1 0
-2 -1 -1 -2 0 0 0 -1 -1 -2 -1 0 -2 -1 -1 -1 0 -1 -1 -2 -2 -2 0 -1 -1 -2 -1
-2 1 -1 0 -2 -1 -2 -1 -1 -1 -2 -1 -3 1 -2 1 -3 -1 -3 -2 -1 -2 -20 1 -21 1 0
1 -1 0 -4 0 -2 0 -3 1 -4 1 0 2 -1 1 -2 0 -2 0 -3 1 -3 2 -1 2 -2 1 -3 0 -2 0
-3 1 -4 1 0 2 -1 1 -2 0 0 0 -1 1 -2 1 0 2 -1 1 -1 0 -1 1 -2 3 -3 1 -1 2 -3
2 -3 -1 -1 0 -2 1 -2 0 -1 1 -2 0 -2 0 -1 1 -3 3 -4 2 -2 4 -4 4 -4 0 -2 30
-32 32 -32 0 0 2 -2 4 -3 1 -2 3 -4 3 -3 1 0 3 -1 4 -3 2 -2 4 -4 4 -3 1 0 3
-1 4 -2 0 -2 2 -3 3 -2 0 0 2 -1 3 -2 0 -2 2 -3 3 -2 0 0 2 -1 3 -2 1 -2 2 -3
3 -3 0 1 1 0 2 0 0 -1 1 -2 1 -1 1 0 3 -1 4 -2 1 -2 2 -2 3 -2 0 0 2 -1 3 -2
1 -2 2 -3 2 -2 1 1 9 -7 9 -9 -1 0 0 -1 1 -2 2 -1 5 -8 5 -9 -1 0 0 -1 1 -2 2
-2 2 -12 0 -12 -1 -1 -2 -2 -2 -2 0 -1 1 -2 2 -3 2 0 2 -10 0 -12 -1 -1 -2 -2
-1 -2 0 -1 -3 -8 -5 -9 -1 -1 -2 -2 -1 -2 0 -2 -8 -10 -9 -9 0 1 -1 0 -2 -2
-1 -1 -3 -2 -3 -2 -1 0 -2 0 -3 -2 -1 -1 -3 -2 -4 -2 0 1 -1 0 -1 -1 -1 -1 -2
-1 -2 -1 -1 1 -3 0 -3 -2 -1 -1 -3 -2 -3 -2 -1 1 -3 0 -3 -2 -1 -1 -3 -2 -3
-2 -1 1 -3 0 -3 -2 -1 -1 -3 -2 -4 -2 0 1 -2 -1 -4 -3 -1 -2 -3 -3 -4 -3 0 1
-2 -1 -3 -3 -2 -1 -4 -3 -4 -3 -2 0 -32 -30 -32 -32 0 0 -2 -2 -4 -4 -2 -1 -3
-3 -3 -4 1 0 0 -1 0 -2 -1 0 -2 -1 -1 -2 0 0 -1 -2 -2 -3 -2 -1 -3 -2 -3 -3 1
0 0 -1 -1 -1 -1 -1 -1 -2 -1 -2 1 -1 0 -2 -1 -2 -1 -1 -1 -2 -1 -4 1 -1 1 -2
-1 -3 -1 0 -1 -1 -1 -3 1 -1 0 -2 -1 -2 -1 -1 -1 -2 -1 -4 1 -3 1 -4 0 -4 -3
-1 -3 -20 -1 -21 2 0 2 -1 1 -3 0 -1 0 -2 1 -3 1 0 2 -1 1 -2 0 0 0 -1 1 -2 1
0 2 -1 1 -2 0 0 0 -1 1 -2 1 0 2 -1 1 -1 0 -1 1 -2 3 -3 1 -1 2 -3 2 -3 -1 -1
0 -2 1 -2 1 -1 1 -2 1 -2 -1 -1 0 -2 1 -2 0 -1 1 -2 0 -2 0 -1 1 -2 3 -3 1 -1
2 -3 2 -3 -1 -1 0 -3 2 -3 1 -1 2 -3 2 -4 -1 0 1 -2 3 -4 2 -1 3 -3 3 -4 -1 0
1 -2 4 -5 2 -2 4 -4 4 -5 -1 -1 4 -6 6 -5 0 0 2 -2 5 -4 2 -3 4 -5 5 -4 0 0 2
-1 3 -3 2 -2 4 -4 4 -3 1 0 3 -1 4 -2 1 -2 2 -3 3 -3 0 1 1 0 2 0 0 -1 1 -2 2
-1 0 0 2 -1 3 -2 0 -2 2 -3 3 -2 0 0 1 0 2 -1 0 -1 1 -2 2 -1 0 0 2 -1 3 -2 1
-2 2 -3 3 -3 0 1 1 0 1 -1 1 -1 2 -1 2 -1 1 1 2 0 2 -1 1 -1 2 -1 2 -1 1 1 2
0 2 -1 1 -1 2 -1 3 -1 2 1 3 1 3 -1 1 -2 20 -2 21 1 0 1 1 1 4 0 2 0 3 0 4 1
0 2 1 2 3 2 1 -1 2 0 2 1 1 1 2 1 3 0 2 0 3 0 4 1 0 1 1 2 2 1 0 0 1 0 2 1 0
1 1 2 1 1 1 0 2 1 3 3 1 1 3 2 3 2 1 -1 3 0 3 2 1 1 3 2 3 2 1 -1 3 0 3 2 1 1
2 2 3 2 1 -1 32 30 32 32 0 0 2 2 3 4 2 1 4 3 3 3 0 1 1 3 3 4 2 2 4 4 3 4 0
1 1 3 2 4 2 0 3 2 2 3 0 0 1 2 2 3 2 0 3 2 2 3 0 0 1 2 2 3 2 0 3 2 2 3 0 0 0
1 1 2 1 0 2 1 1 1 0 1 1 3 2 4 2 1 2 2 2 3 0 0 1 2 2 3 2 1 3 2 2 2 -1 1 7 9
9 9 0 -1 1 0 2 1 1 2 8 5 9 5 0 -1 1 0 2 1 2 2 12 2 12 0 1 -2 4 -2 5 0 0 2
10 2 12 0 1 -1 2 -2 2 -1 1 0 8 -3 9 -5 1 -1 2 -2 2 -1 2 0 10 -8 9 -9 -1 0 0
-1 2 -2 1 -1 2 -3 2 -3 0 -1 0 -2 2 -3 1 -1 2 -3 2 -4 -1 0 0 -1 1 -1 1 -1 1
-2 1 -2 -1 -1 0 -3 2 -3 1 -1 2 -3 2 -3 -1 -1 0 -3 2 -3 1 -1 2 -3 2 -3 -1 -1
0 -3 2 -3 1 -1 2 -3 2 -4 -1 0 1 -2 3 -4 2 -1 3 -3 3 -4 -1 0 1 -2 3 -3 1 -2
3 -4 3 -4 0 -2 31 -33 32 -32 1 0 2 -1 3 -2 0 -2 2 -3 3 -2 0 0 2 -1 3 -2 0
-2 2 -3 3 -2 0 0 2 -1 3 -2 1 -2 2 -3 3 -3 0 1 1 0 1 -1 1 -1 2 -1 2 -1 1 1 2
0 2 -1 1 -1 2 -1 4 -1 1 1 2 1 3 0 0 -1 1 -2 2 -1 2 0 3 0 3 -2 1 -1 2 -1 4
-1 3 1 4 1 4 0 1 -3 20 -3 21 -1 0 2 1 2 3 1 1 0 2 0 3 1 0 1 1 2 1 1 1 0 2 1
2 2 1 0 2 1 2 1 1 -1 2 0 2 1 1 1 2 1 2 1 1 -1 2 0 2 1 1 0 2 1 2 0 1 0 2 1 3
3 1 1 3 2 3 2 1 -1 2 0 2 1 1 0 2 1 2 0 1 0 2 1 3 3 1 1 3 2 3 2 1 -1 3 0 3 2
1 1 3 2 4 2 0 -1 2 1 4 3 1 2 3 3 3 3 1 -1 3 1 5 4 2 2 5 4 5 3 2 0 7 5 6 7 0
0 2 2 4 5 3 2 5 4 4 5 0 0 1 2 3 3 2 2 4 4 3 4 0 1 1 3 2 4 2 1 3 2 3 3 -1 0
0 1 0 2 1 0 2 1 1 2 0 0 1 2 2 3 2 0 3 2 2 3 0 0 0 1 1 2 1 0 2 1 1 2 0 0 1 2
2 3 2 1 3 2 3 3 -1 0 0 1 1 1 1 1 1 2 1 2 -1 1 0 2 1 2 1 1 1 2 1 2 -1 1 0 2
1 2 1 1 1 2 1 3 -1 2 -1 3 1 3 2 1 2 20 -1 21 -1 0 -1 1 0 4 0 2 0 3 -1 4 -1
0 -2 1 -1 2 0 2 0 3 -1 3 -2 1 -2 2 -1 3 0 2 0 3 -1 4 -1 0 -2 1 -1 2 0 0 0 1
-1 2 -1 0 -2 1 -1 1 0 1 -1 2 -3 3 -1 1 -2 3 -2 3 1 1 0 3 -2 3 -1 1 -2 3 -2
3 1 1 0 3 -2 3 -1 1 -2 2 -2 3 1 1 -30 32 -32 32 0 0 -3 2 -5 4 -2 3 -4 5 -5
4 0 0 -2 1 -3 2 0 2 -2 3 -3 2 0 0 -2 1 -3 2 0 2 -2 3 -3 2 0 0 -2 1 -3 2 0 2
-2 3 -3 2 0 0 -2 1 -3 2 -1 2 -2 3 -3 3 0 -1 -1 0 -2 0 0 1 -1 2 -1 1 -1 0 -3
1 -4 2 -1 2 -2 2 -3 2 0 0 -2 1 -3 2 -1 2 -2 3 -2 2 -1 -1 -9 7 -9 9 1 0 0 1
-1 2 -2 1 -5 8 -5 9 1 0 0 1 -1 2 -2 2 -2 12 1 12 0 1 1 2 1 3 0 0 -1 1 -1 2
-3 0 -3 10 -1 12 1 1 2 2 1 2 0 1 3 8 5 9 1 1 2 2 1 2 0 2 8 10 9 9 0 -1 1 0
2 2 1 1 3 2 3 2 1 0 2 0 3 2 1 1 3 2 4 2 0 -1 1 0 1 1 1 0 2 1 2 0 1 0 2 1 3
3 1 1 3 2 3 2 1 -1 3 0 3 2 1 1 3 2 3 2 1 -1 3 0 3 2 1 1 3 2 3 2 1 -1 3 0 3
2 1 1 3 2 4 2 0 -1 2 1 5 4 2 2 4 4 4 4 2 0 33 31 32 32 0 1 1 2 2 3 2 0 3 2
2 3 0 0 1 2 2 3 2 0 3 2 2 3 0 0 1 2 2 3 2 1 3 2 3 3 -1 0 0 1 1 1 1 1 1 2 1
2 -1 1 0 2 1 2 1 1 1 2 1 4 -1 1 -1 2 1 3 1 0 1 1 1 3 -1 1 0 2 1 2 1 1 1 2 1
4 -1 3 -1 4 0 4 3 1 3 20 1 21 -2 0 -2 1 -1 3 0 1 0 2 -1 3 -1 0 -2 1 -1 2 0
0 0 1 -1 2 -1 0 -2 1 -1 2 0 0 0 1 -1 2 -1 0 -2 1 -1 1 0 1 -1 2 -3 3 -1 1 -2
3 -2 3 1 1 0 2 -1 2 -1 1 -1 2 -1 2 1 1 0 2 -1 2 0 1 -1 2 0 2 0 1 -1 2 -3 3
-1 1 -2 3 -2 3 1 1 0 3 -2 3 -1 1 -2 3 -2 4 1 0 -1 2 -3 4 -2 1 -3 3 -3 3 1 1
-1 3 -4 5 -2 2 -4 5 -3 5 0 2 -5 7 -7 7 0 -1 -3 1 -5 3 -2 3 -4 5 -5 4 0 0 -2
1 -3 3 -2 2 -4 4 -4 3 -1 0 -3 1 -4 2 0 2 -2 3 -3 2 0 0 -2 1 -3 2 -1 2 -2 3
-3 3 0 -1 -1 0 -2 0 0 1 -1 2 -2 1 0 0 -2 1 -3 2 -1 2 -2 3 -3 3 0 -1 -1 0 -2
0 0 1 -1 2 -2 1 0 0 -1 0 -2 1 0 1 -1 2 -1 1 -1 0 -2 1 -2 2 -1 0 -2 1 -2 1
-1 -1 -2 0 -2 1 -1 1 -2 1 -3 1 -2 -1 -3 -1 -3 1 -1 2 -20 2 -21 -1 0 -1 -1
-1 -4 0 -2 0 -3 0 -4 -1 0 -2 -1 -2 -3 -2 -1 1 -2 0 -2 -1 -1 -1 -2 -1 -3 0
-2 0 -3 0 -4 -1 0 -1 -1 -2 -2 -1 0 0 -1 0 -2 -1 0 -1 -1 -2 -1 -1 -1 0 -2 -1
-3 -3 -1 -1 -3 -2 -3 -2 -1 1 -2 0 -2 -1 -1 0 -2 -1 -2 0 -1 0 -3 -1 -4 -3 -2
-2 -4 -4 -4 -4 -2 0 -32 -30 -32 -32 0 0 -2 -2 -3 -4 -2 -1 -4 -3 -3 -3 0 -1
-1 -3 -3 -4 -2 -2 -4 -4 -3 -4 0 -1 -1 -3 -2 -4 -2 0 -3 -2 -2 -3 0 0 -1 -2
-2 -3 -2 0 -3 -2 -2 -3 0 0 -1 -2 -2 -3 -2 0 -3 -2 -2 -3 0 0 0 -1 -1 -2 -1 0
-2 -1 -1 -1 0 -1 -1 -3 -2 -4 -2 -1 -2 -2 -2 -3 0 0 -1 -2 -2 -3 -2 -1 -3 -2
-2 -2 1 -1 -7 -9 -9 -9 0 1 -1 0 -2 -1 -1 -2 -8 -5 -9 -5 0 1 -1 0 -2 -1 -2
-2 -12 -2 -12 1 -1 0 -2 1 -2 1 -1 0 -2 -1 -3 -1 0 -3 -10 -3 -12 -1 -1 1 -2
2 -2 1 -1 0 -8 3 -9 5 -1 1 -2 2 -2 1 -2 0 -10 8 -9 9 1 0 0 1 -2 2 -1 1 -2 3
-2 3 0 1 0 2 -2 3 -1 1 -2 3 -2 4 1 0 0 1 -1 1 0 1 -1 2 0 2 0 1 -1 2 -3 3 -1
1 -2 3 -2 3 1 1 0 3 -2 3 -1 1 -2 3 -2 3 1 1 0 3 -2 3 -1 1 -2 3 -2 4 1 0 -1
2 -3 4 -2 1 -3 3 -3 4 1 0 -1 2 -3 3 -1 2 -3 4 -3 4 0 2 -31 33 -32 32 -1 0
-2 1 -3 2 0 2 -2 3 -3 2 0 0 -2 1 -3 2 0 2 -2 3 -3 2 0 0 -2 1 -3 2 -1 2 -2 3
-3 3 0 -1 -1 0 -1 1 -1 1 -2 1 -2 1 -1 -1 -2 0 -2 1 -1 1 -2 1 -4 1 -1 -1 -2
-1 -3 0 0 1 -1 2 -2 1 -2 0 -3 0 -3 2 -1 1 -2 1 -4 1 -3 -1 -4 -1 -4 0 -1 3
-20 3 -21 1z m21 -26 c1 -1 2 -2 4 -1 2 0 3 -1 4 -1 1 -1 2 -2 2 -1 1 0 11 -4
13 -7 1 0 2 -1 2 -1 1 0 3 -1 4 -2 0 -1 2 -2 2 -2 2 0 33 -31 33 -33 0 0 1 -2
3 -3 2 -2 3 -4 3 -5 0 0 1 -2 2 -2 1 -1 2 -3 2 -3 0 -1 1 -3 2 -3 1 -1 2 -3 2
-3 0 -1 1 -3 2 -3 1 -1 2 -3 2 -3 0 -1 1 -3 2 -3 1 -1 2 -3 2 -3 0 -1 1 -3 2
-3 1 -1 2 -3 2 -3 0 -1 2 -3 4 -5 2 -3 4 -5 4 -5 0 -2 8 -10 10 -10 0 0 2 -1
3 -2 0 -1 2 -2 2 -2 1 0 3 -1 4 -2 1 -2 3 -3 3 -2 0 0 1 -1 2 -1 1 -1 2 -2 3
-1 0 0 2 0 2 -1 3 -2 34 -2 37 0 0 1 2 1 2 1 1 -1 2 0 3 1 1 0 2 1 2 1 0 -1 2
0 3 2 1 1 3 2 4 2 0 0 2 1 3 2 0 1 2 2 2 2 2 0 10 8 10 10 0 0 2 2 4 5 2 2 4
4 4 5 0 0 1 1 2 2 0 1 2 3 3 6 1 2 3 4 3 5 1 1 2 2 2 2 0 1 1 3 2 4 1 0 2 2 2
3 0 0 1 2 2 3 1 0 2 2 2 2 0 1 1 3 3 5 2 1 3 3 3 3 0 1 2 4 5 7 3 2 5 5 5 5 0
2 11 13 13 13 0 0 3 3 6 6 3 3 7 6 10 7 2 1 4 2 4 3 1 1 12 6 13 6 0 -1 1 0 2
1 1 0 2 1 4 1 2 -1 3 0 4 1 2 1 17 1 19 -1 1 0 2 -1 2 0 1 0 19 -8 21 -11 1 0
2 -1 2 -1 1 0 3 -1 4 -2 0 -1 2 -2 3 -2 0 0 2 -1 3 -2 0 -1 2 -2 2 -2 1 0 4
-2 6 -5 3 -2 6 -5 7 -5 1 -1 3 -3 4 -4 0 -1 3 -4 5 -7 3 -2 5 -5 5 -6 0 0 1
-2 2 -2 1 -1 2 -3 2 -4 0 0 1 -1 2 -2 0 -1 2 -3 3 -5 1 -2 2 -4 3 -5 3 -4 4
-9 4 -24 l0 -15 -4 -8 c-2 -4 -4 -7 -5 -8 0 -1 -1 -2 -1 -2 0 -1 -2 -3 -4 -5
-2 -3 -4 -5 -4 -5 0 -2 -19 -21 -21 -21 0 0 -2 -2 -5 -4 -2 -2 -4 -4 -5 -4 0
0 -2 -1 -2 -2 -1 -1 -3 -2 -3 -2 -1 0 -3 -1 -4 -3 -1 -1 -4 -3 -7 -4 -2 -1 -4
-3 -5 -3 -1 -1 -2 -2 -2 -2 -1 0 -3 -1 -3 -2 -1 -1 -3 -2 -3 -2 -1 0 -3 -1 -3
-2 -1 -1 -3 -2 -3 -2 -2 0 -18 -16 -18 -18 0 0 -1 -1 -2 -2 0 -1 -2 -3 -3 -5
-1 -3 -3 -5 -4 -6 -1 -1 -2 -3 -1 -4 0 -1 0 -2 -1 -2 -1 -1 -1 -8 -1 -20 0
-13 0 -20 1 -21 1 0 1 -1 1 -2 -1 -1 0 -2 1 -3 0 -1 1 -2 1 -2 0 -1 1 -2 2 -3
0 -1 2 -3 3 -5 1 -3 3 -6 4 -7 2 -1 3 -3 3 -3 0 -2 8 -10 10 -10 0 0 2 -1 4
-3 1 -2 3 -3 4 -3 0 0 2 -1 3 -2 0 -1 2 -2 3 -2 0 0 2 -1 3 -2 0 -1 2 -2 3 -2
0 0 2 -1 3 -2 0 -1 2 -2 2 -2 1 0 3 -1 3 -2 1 -1 3 -2 3 -2 1 0 3 -1 4 -2 0
-1 2 -2 2 -2 1 0 3 -1 5 -3 1 -2 3 -3 3 -3 2 0 33 -31 33 -33 0 0 1 -1 1 -2 1
-1 3 -4 5 -8 l4 -7 0 -16 c0 -15 -1 -17 -4 -23 -1 -1 -2 -3 -3 -6 -1 -2 -3 -4
-3 -5 -1 -1 -2 -2 -2 -2 0 -1 -1 -3 -3 -5 -2 -1 -3 -3 -3 -4 0 0 -1 -2 -3 -3
-2 -2 -3 -4 -3 -4 0 -2 -13 -15 -15 -15 0 0 -2 -1 -3 -3 -2 -2 -4 -3 -5 -3 0
0 -2 -1 -2 -2 -1 -1 -3 -2 -4 -2 0 0 -1 -1 -2 -2 -1 0 -3 -2 -6 -3 -2 -1 -4
-2 -4 -3 -1 -1 -12 -6 -13 -6 0 1 -1 0 -2 -1 -2 -2 -17 -2 -19 0 -1 1 -2 2 -3
1 -2 0 -8 2 -9 4 -1 0 -2 1 -3 0 0 0 -2 1 -3 2 -2 1 -4 2 -6 3 -2 1 -5 3 -6 4
-1 2 -3 3 -3 3 -2 0 -27 25 -27 27 0 0 -2 2 -4 5 -2 2 -4 4 -4 5 0 0 -1 2 -2
3 -1 0 -2 2 -2 3 0 0 -1 2 -2 3 -1 0 -2 2 -2 3 0 0 -1 2 -2 3 -1 0 -2 2 -2 3
0 0 -1 2 -2 3 -1 0 -2 2 -2 3 0 0 -1 2 -2 3 -1 0 -2 2 -2 3 0 0 -1 2 -2 3 -1
0 -2 2 -2 2 0 2 -14 16 -16 16 0 0 -2 1 -3 3 -1 1 -4 3 -7 4 -2 1 -4 2 -4 3
-1 0 -2 1 -3 0 0 0 -2 0 -2 1 -2 2 -35 2 -37 0 0 -1 -2 -1 -2 -1 -1 1 -2 0 -3
0 0 -1 -2 -2 -4 -3 -3 -1 -5 -3 -6 -3 -1 -1 -2 -2 -2 -2 -2 0 -20 -18 -20 -20
0 0 -1 -2 -2 -2 -1 -1 -2 -3 -2 -3 0 -1 -1 -3 -2 -3 -1 -1 -2 -3 -2 -3 0 -1
-1 -3 -2 -3 -1 -1 -2 -3 -2 -3 0 -1 -1 -3 -2 -3 -1 -1 -2 -3 -2 -3 0 -1 -1 -3
-2 -3 -1 -1 -2 -3 -2 -3 0 -1 -1 -3 -3 -4 -2 -2 -3 -4 -3 -4 0 -1 -2 -3 -4 -5
-2 -3 -4 -5 -4 -5 0 -2 -19 -21 -21 -21 0 0 -2 -1 -3 -3 -2 -2 -4 -3 -5 -3 0
0 -1 -1 -2 -1 -2 -3 -20 -11 -22 -11 -1 1 -2 0 -3 -1 -2 -2 -17 -2 -19 0 -1 1
-2 2 -2 1 -1 0 -12 5 -13 6 0 1 -2 2 -4 3 -3 1 -5 3 -6 3 -1 1 -2 2 -2 2 -1 0
-3 1 -4 2 0 1 -2 2 -2 2 -1 0 -3 1 -3 2 -1 1 -3 2 -3 2 -2 0 -23 21 -23 23 0
0 -1 2 -2 3 -1 0 -2 2 -2 3 0 0 -1 2 -2 3 -1 0 -2 2 -2 3 0 0 -1 1 -2 2 0 1
-2 4 -4 7 -2 4 -4 8 -5 9 -4 8 1 39 7 45 1 1 2 2 2 2 0 1 2 3 4 6 2 2 4 4 4 4
0 2 13 15 15 15 0 0 3 2 6 5 2 3 5 5 6 5 0 0 2 1 4 3 1 2 3 3 4 3 0 0 2 1 3 2
0 1 2 2 3 2 0 0 2 1 3 2 0 1 2 2 3 2 0 0 2 1 3 2 0 1 2 2 3 2 0 0 2 1 3 2 0 1
2 2 3 2 0 0 2 1 3 2 0 1 2 2 2 2 1 0 3 2 5 4 2 2 5 4 6 4 1 1 2 2 3 3 1 2 2 3
2 3 1 0 2 1 2 1 0 1 1 3 2 4 1 0 2 2 2 3 0 0 1 1 1 2 15 12 14 62 0 76 -2 1
-3 3 -3 3 0 2 -12 14 -14 14 0 0 -2 1 -3 3 -2 2 -4 3 -5 3 0 0 -1 1 -2 2 -1 0
-3 2 -6 3 -2 1 -4 3 -5 3 -1 1 -2 2 -2 2 -1 0 -3 1 -3 2 -1 1 -3 2 -3 2 -1 0
-3 1 -5 3 -1 2 -3 3 -3 3 -1 0 -3 1 -4 3 -2 2 -4 3 -4 3 -2 0 -29 27 -29 29 0
0 -1 2 -2 3 -1 0 -2 2 -2 3 0 0 -1 1 -2 2 -6 6 -11 37 -7 45 1 1 3 5 5 9 2 3
4 6 4 7 1 1 2 2 2 2 0 1 1 3 2 4 1 0 2 2 2 2 0 1 2 4 5 7 3 2 5 5 5 5 0 2 9
11 11 11 0 0 2 1 4 3 1 2 3 3 4 3 0 0 2 1 3 2 0 1 2 2 3 2 0 0 1 1 2 2 1 0 3
2 6 3 2 1 4 2 4 3 1 1 16 8 17 8 0 -1 1 0 2 0 1 2 17 2 19 1z"/>
  </g>
</svg>
