<svg xmlns="http://www.w3.org/2000/svg" width="256" height="256" fill="none" viewBox="28 28 200 200">
  <defs>
    <mask id="a" maskUnits="userSpaceOnUse">
      <rect x="0" y="0" width="256" height="256" fill="white" />
      <path d="M128 98 L158 128 L128 158 L98 128 Z" fill="black" />
    </mask>
  </defs>
  <style>
    g.logo-group { fill: #000; }
    @media (prefers-color-scheme: dark) {
      g.logo-group { fill: #fff; }
    }
  </style>
  <g mask="url(#a)" class="logo-group">
    <g transform="rotate(0 128 128)">
      <path d="M 50 110 C 70 50 110 40 128 85 C 146 40 186 50 206 110 C 190 120 160 100 128 100 C 96 100 66 120 50 110 Z" />
    </g>
    <g transform="rotate(90 128 128)">
      <path d="M 50 110 C 70 50 110 40 128 85 C 146 40 186 50 206 110 C 190 120 160 100 128 100 C 96 100 66 120 50 110 Z" />
    </g>
    <g transform="rotate(180 128 128)">
      <path d="M 50 110 C 70 50 110 40 128 85 C 146 40 186 50 206 110 C 190 120 160 100 128 100 C 96 100 66 120 50 110 Z" />
    </g>
    <g transform="rotate(270 128 128)">
      <path d="M 50 110 C 70 50 110 40 128 85 C 146 40 186 50 206 110 C 190 120 160 100 128 100 C 96 100 66 120 50 110 Z" />
    </g>
  </g>
</svg>
