<svg xmlns="http://www.w3.org/2000/svg" width="256" height="256" fill="none" viewBox="28 28 200 200"><defs><linearGradient id="a" x1="0%" x2="100%" y1="0%" y2="100%"><stop offset="0%" stop-color="#00e5ff"/><stop offset="100%" stop-color="#d500f9"/></linearGradient><filter id="b" width="200%" height="200%" x="-50%" y="-50%"><feGaussianBlur result="blur1" stdDeviation="8"/><feGaussianBlur result="blur2" stdDeviation="16"/><feMerge><feMergeNode in="blur2"/><feMergeNode in="blur1"/><feMergeNode in="SourceGraphic"/></feMerge></filter></defs><defs><mask id="d" maskUnits="userSpaceOnUse"><path fill="#fff" d="M0 0h256v256H0z"/><path fill="#000" d="m128 98 30 30-30 30-30-30Z"/></mask></defs><g fill="url(#a)" filter="url(#b)" mask="url(#d)"><path d="M50 110c20-60 60-70 78-25 18-45 58-35 78 25-16 10-46-10-78-10s-62 20-78 10"/><path d="M146 50c60 20 70 60 25 78 45 18 35 58-25 78-10-16 10-46 10-78s-20-62-10-78"/><path d="M206 146c-20 60-60 70-78 25-18 45-58 35-78-25 16-10 46 10 78 10s62-20 78-10"/><path d="M110 206c-60-20-70-60-25-78-45-18-35-58 25-78 10 16-10 46-10 78s20 62 10 78"/></g></svg>