<svg xmlns="http://www.w3.org/2000/svg" width="256" height="256" fill="none" viewBox="28 28 200 200"><defs><mask id="a" maskUnits="userSpaceOnUse"><path fill="#fff" d="M0 0h256v256H0z"/><path fill="#000" d="m128 98 30 30-30 30-30-30Z"/></mask></defs><g fill="#000" mask="url(#a)"><path d="M50 110c20-60 60-70 78-25 18-45 58-35 78 25-16 10-46-10-78-10s-62 20-78 10"/><path d="M146 50c60 20 70 60 25 78 45 18 35 58-25 78-10-16 10-46 10-78s-20-62-10-78"/><path d="M206 146c-20 60-60 70-78 25-18 45-58 35-78-25 16-10 46 10 78 10s62-20 78-10"/><path d="M110 206c-60-20-70-60-25-78-45-18-35-58 25-78 10 16-10 46-10 78s20 62 10 78"/></g></svg>